<mxfile host="app.diagrams.net" modified="2023-08-11T17:27:35.572Z" agent="Mozilla/5.0 (X11; Linux x86_64; rv:109.0) Gecko/20100101 Firefox/111.0" etag="05ngXnCo7N9HzZGcRR1N" version="21.6.8" type="device">
  <diagram name="Page-1" id="eMUY6uJbiaqHBv15Bpyp">
    <mxGraphModel dx="927" dy="435" grid="1" gridSize="10" guides="1" tooltips="1" connect="1" arrows="1" fold="1" page="1" pageScale="1" pageWidth="1200" pageHeight="1600" math="1" shadow="0">
      <root>
        <mxCell id="0" />
        <mxCell id="1" parent="0" />
        <mxCell id="nqBrUfsvDNbjU66Rz_OZ-1" value="" style="shape=image;verticalLabelPosition=bottom;labelBackgroundColor=default;verticalAlign=top;aspect=fixed;imageAspect=0;image=data:image/png,iVBORw0KGgoAAAANSUhEUgAAAQAAAADVCAIAAAA3lLkZAAAAA3NCSVQICAjb4U/gAAAgAElEQVR4Xu19B3wc1fH/Xm/qsmRLrrINLthgY3ox2PRqaggEQocfSSgJCSEF+OdHElqAEFqSX2imE3rHGDBgY5oNGNvYGPcq2bKsLl39f+fN7t7e7t7tSbqTTvbtZ7Xae2Ve2Zl58+bNm2eLxWJS/sr3wK7aA/ZdteH5dud7gHogTwB5PNileyBPALv05883Pk8AeRzYpXsgTwD6zx8Oh/OKAX2ndOV3JBIxSb5tm3TdddLHH5tE9WlQngASuh/Y//bbbzc2NvbpR+nHhUej0a+++sqEg5x/vnTHHdLvfy+ZkkfftdhmUte+q02+5J22Bz78UJo+XYLO/fnnpdNOy51m5gkgd75FD2qyebP02WeSxyMdc4xkz8lRHag/Y4b02mvS+PHSN99ITmcPWpvJrLnVWRiOPv744++//z6TTdwVYH3xhXTqqdIFF0ihUI4212aTbr5ZcrmkpUulmTNzp5IWBLBt27YPPvjAfFrTxUY0NTU9++yzr7/+OvIB0T/55JO//vWv69ev14Kx2Wzl5eWQwrsIO5+8P/TAXntJZ59NFf3zn6XW1hypsQUBfPjhh9OnTx8xYsS1116LyU1PKGHDhg1r165lAsDLv//9b0C+7rrr2tvbZ86cec8999x7772bNm0aOnSoM2fGxxz5SDtPNW66SQoEpNWrpfvvz5FGWYhiBxxwwAUXXPDKK6/cddddwNE99tjjnHPOOfvss4Gm4NZdasP48eNbW1tXo/GS9MUXX4wbNw7A33zzTRDGueeey6AAc/78+WvWrGloaCgtLQVt1NXVSTYJ4fbcFG271AVZS+yt3zZAkqCB2bRxA80EMnVp7cTYZEw8Y5IN/7tjROZw+087o+Lxx6ARqjvppGBhQaZqmiYcu90xaNAgLS5ZEMDgwYMfeeSRtra22bNnP/300xBOrr/++htuuOHQQw8F1s6YMaOsrCzNsrXJoG3kSuDZ0tKirdBuu+129dVX+/1+pP/o448uOeWKQqkUJOCQHN0oaBfJcnik4R+StKO+8ZQJPw5myrzF4bC7fVG/OzSwOGaX2qrsMXfMNrAzZpMOrFhV4OqY6Gkrske72sP2kc4T/cWv+cb884wb2hwWAkhXgVult7ldGz768J2CgjjhWRAAQwQ6niwuyPGzZs168sknQQ/vv/9+YWHh8ccfD0o48sgjvV5v6uIh94NF8XPYsGGLFy8OBoOYA4wcOVKbsaKiQv2JxMXtA6ptI2JgOvkreQ+USviOK+wx+8COYRkiABuQxVFQEin0tw8dGHNI9eMdMX/UNbY5apP2H9U2wNN8TMAx0NHlOffmrQWXzL+wOeoBDvYy/4cY0bxju05y6RoJFhUVnXbaab/+9a9POukkAGpubsa8Fu+jRo3CJKGzszP5N5IwhXj88ce3bNny3//+d7/99gPB3HjjjYcffjhgpsjVLrWGpGCKBPkobQ9khk/Y7TanM1boD42u6hhZ3jTU0TTM3l4djlV3TBy4aa+BG6cXrD8usK7U1gkpqKs3atvhSIvt9s6XTbcqYN5Lly59RlyrVq0Cbx4+fPhZZ5119NFHP/bYYy+//PLdd999ySWXQLJPVu/Jkyf/4x8YqOmCzPPHP/4RMB2OvGCTrMO6EJ4ZvFcKhMAp2XHbYw7cNrB/iEA2ewy3yxaBhOW0RZ0SRKHuXMjlcYfttlgw6MxstbtTG4mGTotr48aNjPesBYI49OMf//inP/3ptGnTPGK+dcQRR0BbChqorq5OAQsjhnb0wXs62O+TAk7JZQRrd9hdHldnW6oxR83l8bnDoUgkbGajYgTdD0PqJd8caWir5MoMSpUU2KsHhQqcLcM8wUJbW1XM7oiVDmoq8bYdWvq90x4Z5JKK7T6ik65fFeWtM+/+bzBiu+w3ZzS1ZG6+3vWacA4LAsCyFJSVmLNCNQmlzXnnnfejH/0I+hldcQMGDAD7724dUuULS+GYBLEzLqp5A57Trj7h2IumP/yHp+Y8+0mqzErcpOkTrrzvktmPf/TcHa+0Nbenk6V/pfleKv2Lbf+e19mGhSqPWyrwh4s84QJHKGCLBGKxQFRyRMt9bWXe1qGuFgwCbhvYf3ewHzUE7y/yBYOR+Ae1kRjVTWg9b7IFAUBFM2TIEExzof0cO3asbgLR8+ItIbRIjZ1Sp1fyccpBNZV/evE6IPGNM25bsyRhES0FqM/eWLjh+5uvvPfi+z6/9aZTb1+/bGOKxLtylC3gtw8oD5V5Owb5Q36po9wWLYrGykJ2R3hUybaB7pa9PdvdIAoJCo+uzR5Ne9UTCc3Y8OmYpg1/nvjjvqIBCwI49thjV65c2Yc6+BKp3CtBJUpje3FF0e2zb9qyqvaPJ98abO/azHjjis1/OPGvNzx37e3v3njlgb/ftqHe9JPssoE2J/TMzpjXHfW5Il5H2CvhjnhiNgS4gx5HuMzVUupsc0oOB5h1F5eAkvXqHo3rLl/xFmLfqd778/IxyZJlNdyCjr/88ktI9t9++62xElDpYB6MGYIxKtMhhP0YfK5+8DJ/oe+28+/tKvZzfSLh6F2XPIj3a/9zRR+SdKY7JzPwbF6fo6w0VlESrCrqHORrr7C3V9g6y6P28uDAsqaq0sa9CtZNCGwK2J1+mwdT4oyU+lXZyC/LR0MEuviHWfburKtloBYWBAARqLa2Fk9jUaNHj163bt1nMELM5tUobe+UOlDC2P1GHzxj39f/Nat+U0OKAm1QXyS/mra3vHTPG1OO2hOzguSpdrEYofSUPK6Yzx0F7/eQjB9xSzFXzO6OuF3hIldnkaujxB4utIUzxPrlHobY88ioo6M2+27Nm6bVftMn/Z5UBIKOH3NfPFEtrH/BNkFbP4Q8+uijCMm23Y6qBTr24iOA3LNnfmjaTQUlgbOum3Ho6QdgoIDC56v3v41FY8UDCv/6k3t06Wc/8dFFfz3nhEuPXDh7kSmoXS3Q5vHYPZ5oWXFkUGlnqbO90hkshPQv2XxRT3lHaaB5fPEWny082dOEKbFdcmMwzmAXLSsa8lHlhMNrF52/6r25FXt0Okw0fhkszgjKnACA+nvttdfmzZuhqkcerAHrZAYs4iIKlptTp041As1giFvyQDh1OB0HnbzPltV1G1ZsNgIvqyq95a0/+Aq8fz3n78u/XFleXXb/Z7cg8ImbnzcmbqhtXLN4/ZSj9kL69hYaW3aCa5S0Y0bshzbJ9X+2PSPpIyh4P26fN1YYiChqH8x9w4FY1B91+0NlvrZKb/NQV73HFnXb7JD+u638SdHJj4084qCtS4e0bTtu05cvDz0wRcpsRJkTANAddm9Qd0L4gXV+TU1NAEZ8mgtGEGPGjIHRTklJSTaqpYNZNXJg8YCipZ+a7BPAsHD941dWjxr4s31+u375JmTEBHfdso0ggMXzlhnrhiW81YvXjdprxNCxg7//cqUxQX8MqZTajpPW7JA8D0kT0ycALMTghtJTKi+OlLk7S5yhYluoUIoUxqJFEZcvVFHYUu1tHO2pBZZ4bXbQQDY6Z22g8u3qKSdv+Ozc1R+8WzW51WlhU5PZOiQlgNeweUeSsBkA6wCwhzvwwN4mTW4nTCHCUmjwblVAdIwAxsYfcMKUydMnvvSPNxn7OQG4OybKKxauMqZHCMGxSdWjBu00BNB1oUTkCPhxR8oCkRJ3sAiSjw3CT6gw5igI+wMdxb7Wob7twzxNNc6QMEbseiGmvW8W+ETN9KM2f1UWbD5l/fwna6aZJclWmDkBqKWBzf/5z3/GfDdb5acHt7CUxp9gh4np1fGXHokoLHKpkID9IJi1Szc01dMExniFOgkOZgjGqF0qBMKPraQwWuQLF7pDBfaQ3xb2xyL+mNMf8fmDhd6OKm9Ttat1qBNrkeA/QJVs0cA2T9EzIw4b0Nn0TvWUXv4EFgQAHegf/vCHXq6TtjieBGMOgMBISG/LgFXhPQ4aA0RfuzS+KDZ2/90wJ14yf3kyE1LoQ/uwRblQtK0wYPN4o2UFsRJvsNgVLLIHi8D7pWhh1F4Y9hd0DAo0Vbkba1xbBzmDDptTLNVmC/u5Q56omdYna2EmBACDzTvvvBOSz3HHHVdfX4/dMCm+GSwjtNbVKVL2JKqjlWarbp9eRVA6sKSwtGDtdxs6NetiJ15+FBIv/WR5shJdHmq16XiSLMvOFR4D77cXFkYKfeECTzhAJg9hzH2x3uiL2nxhr6+zzNNe7m6tcu0os2MfBuzgst4BfYL9aJUJAbz33nt/+9vfsGkLBIAtkRdffHGK1u+555777LNPigQZiWLdf3mVfvON2+sCY2reHl+m2OfovfY/gYbRpfNNZsxcGaiJ8LJt4/aM1K1/AbEVBLDoGysuiBT4QoUuknwKbKEAaX4igag3EPL7Owb4Wod4G6pdzUMdUb8d42hW5r450m8mBIDdXhdddNFRRxEfPeiggzAapKgrNnCliO151A5pW6lUAR4P+QeSvQ5gc0NrOBQeNKLC6XaGg2EkOPt3py2aswTrXFvX12NwOPzHB7/2z3d0stCQ3atgGbruuw09r16/g2D3+21eT7jQHy30hgudRADAfr8E0R+qT6c/VOjrKPO1Vnl2VDnbq5wRsP9+18YuVdiEALBd66GHHmIo2ED5q1/9qksQM5s4IBW5JS94PFQ6oyaNCBT7Wxvb1CIatuz4Zs5SrOz+9rEr69Ztm3zEhFt+cs+lt53ndDnP/t2ph5y2/wt3v67Dfo/fvfuUUZgiI31mq9qH0NKxgrYB9bHNpTgQAwEUuWHsGSywBwNg/zGwf1sg7A6Eivztg3xN1Z4dw93byu0w+nekXFjPYovd0TBM8HpBLsp1+nZJbrtgQu899TE2AOx33GRtr0OpD/Oej56fP3z84ECx78ZTboMy9Lm/vbLiq1WYCj9wzSNY99V9pUmHT/AX+ZAFebP4AXsX9Eqp5A7bPvfbJiVfBIjZvR57wB8L+KIBbyTggugf8dkiPkncMZs36vaGA57OEiH9VzqaSh2tDqyT9foIAFdtUIn+59N7Jm0312Jntmv1IwDQAuafWAlOsxiIQOnsa0kTWopk7zz6wVnXnXLyz48F7mrVOHXrt938o7u0GRfPXfbzfa83BQVl3ilXHget0WsPzjJN0E8D6yT/LGmEeeWxExa832aD3B/zeUIlnpjH2VkEyQdaf5L+owVRqSDiK+goDrRV+RtrvNtGuFtGYBdStvU+5tUlZdMJm77AwvDFK2ddWfY/2R4E9AQA607Y/afv/2fhwoXY65ikLZkMbm/uuP/qh2949lfHXDD9zf/M7h7ow844cO8j97zzkgeTLRF0D2xO5wIBuN1kwOz1QPgB9sPaOeK1R7y2iEeKeiT4epDcUZc7EnAHC11YDm4rdXZC+dNXV9Rme3jU0Xct+Pf4xnWH1C39uHKPrNZETwDFxcXQbMLUJ81SBw4cmGbKbicDJ2KvEHNf/Oyxm5792T0Xtre0f/DsvGRq/mQFHXDilGsf+hk2hb07c06yNDtVOPN+6HwGlGCDb6g8EPE628ucUY8tWGKDzU+oOIoNX97iTg8soAsahxU0jPbWjfNsqoTmn5a9+uxaVDJi/oBxB29desGqdz8dMCZkz2Jl9KBh5PPUU0/1WdMNBddLtSXSACyHcczTt7y0aWXtpbede/Cp+z964zMbhPGP5QVTovP/dNakaRPuu/KhWTPn7ETCv0XThQzvkLCMiAkldrg7aZN7FHvasc9dvmM2R9TuiLocEbcdptC4Qy4bzN762FnBo6OO3K9+eU1LLeYDbw7e16KdPYjWE0APQGUlq7IjTAaOKcqcZ+d98fZXB5+yH0we0iwSmp+vP1iMOfGuIvnAmBFumiD4lxXHYNFfHojZbcFSV9hr7yyWom4y+An7JFth2Akz0ML2skDbUH/DKG/dKHfzaFcMW37T7NjsJVtZUPXeoEnHblpw3ur33x+0V4cDZthZuUwIAEgGH51w+ebz0U7cUEqHwy5so87mBfZlnIxBEzrrsTnpFwv7Z9zpp+93KTFxxL4qVDuqGCwQ74fcj50uUH2C8duh1LTFcNMIINEI4ISBW0xyRp32qNsR8dhBHSGfHZohcomSC9djI4+cvmXRwI4dsJCDpVCWqmQy2XnrrbfgDRcuQVHknDlzsCk+xbVsmYnJsVrXnUnVmKUPkBGwe0u1T8TefCD2nssWs7vcdq/PVlaCO1IaiJT6gkWw9nGSwQ/UPoVSuIBsfqIFEW9BZ3GgvTLQPNTXMNxTP9pVV+loc5NniD6Wf7hPar0lrw4hVxenr//EG0l3UtrV/jQZAXiTFzuAgIqTnf8kg5t6c+3WrVuxaaZ39KTJargrhHukSIXU7oL/GDB+lxNeDUnnY5OiXidJ9x6QBe1yxB11SREXbXe0uaIuV8SH9QBnZ6GzvcjZUezo9MPdUm5gP3+1p0ccVhhqA/vvVREIRhDw2Mw7XWAWAT9wKXAo9ZbI9NWpKYrIR6XbA1D7eL3waxID0sOA3CYFi91RN+R+WLPZYO8JvWeoKBp1x1yFIbsvXFrQVuZvhfRf49060t0y0onNwJB+coL9c5Mb3AW37XFmus3vVjqTEQC8X6vcTI3iqQsFnNRDROrs+dgu94BwaShucl4Fxk9PYDVs2vgFE1xMqmhIwB2F40PMCFgtJCYNu9xlQgCmfYC1YZhGb9++3e12ww8cPNqm4ySr59jf9/oI0+7IqUDgLTYrYq8EFrrLSqKlBZj1dhZj8UuC3B9xQe4nMggXxjACxAojEH4CBR1+f7Aq0DjI1zzCu3WUq3aQ01ZgT1erllOt72FlTCbBOohYFLvllltwvAXOCsATu8OqqqqwFz71PoEeVkvNvlXa2CqZb+zKVBH9Hg4RgODdxPIF71cYP16Y91OUUBWB9yOE2T9GBYdQCOHeBXk/f3eLEQBCPPwiwqE5BCGohrBBDIodHHA0b948HPJ12223wVV6VhGoQqoOSLv63sXkPUwYTX5NvEUSdjcAu0sKgiVeyDTBEgeQGmofKD2h9sF7pCAahTFEQQjefqD4L/W1Q/kDu/8ad9NIV3vABkV7tnTtyevftRgn9iyEOxpdCf4ZugbCkNpiBACWA/th7fP555/DPcRHH30Ed7mwlsNRMZWVlXBxDrdZBpiZDDAuAmQSen+HBacmLhe5tVK8zAtxnhZ647fQ+oMMJFCEI+p0REgt5Ajh9tmDPlun1waDIIcz5+X/iTvW3PfFgzd++3RmP5oFASxYsADl3X///aABVaDH4heOBYCzf5yIAQrJbIXy0NLvATsOcSkpshcXkpWbZIvabeECdzhgp9tPdwQ7XXxit5c/JrY7Rvy+ziJfZ7m3rdLTMsjdhE2PAxyREge2x2d3QTP9RiVLCU+6uzVtmrx95f7bkm52TZY3RbiFCATbOGQ2tXjDTABR+aWuFJ2bxSh26QN9v8sVczkXFIw+u/xXoSJP0I2lXaHWwYfFOoDg/TGs+EK974zYnOD9Ydw+R9Bvh9Y/GLDD8kdMDnL+WlA+emHZqCnbf7hw1bt4D8NRSyYuixEA24JBA//5z3+MZcFmDodlHHzwwcaofEi2e8DmdjsKC+047M0PQ0FfR4F/a0nZ1tKSsN8peL8twu6d4eHZG4t6If1HXd6wF7sg4f/K3VHmah3gaq5wtmDp1283cTaT7fp3Az6GuIdGHxOx2Xdv2jhtS8bcWpoQAIx/oPnhCxZBt99+O85IhS9oNRAv9913H6gCJ12bDg7daF4+S7o9gF2KbhfZK9DtxJoX5PqoC6Y+dpL+if2TnQ8/Y3BoAo9Wzhhuh1gU9jrDXiH9g/37bDG/ze7Kjr+3dJvTlXTsSBQ5zl81G3smu5I1aVq9CATjBZxgp90PACEHPy+88EIckMpgEIK5L9j/O++8c/rpp8NSKCn4fESme8AGUx9wfRh7+r0xF1T64O3Y3OiE807wfsg8YcxqnWD8QvPjjZGTZ28Y715PyOsOlbjbsOulwtVc6WyqdEQr7PKO00xXM1vwHhl11CFbl1S3bz9h4xcvZcKRqMkIAK+32gvoDjaP00vVQIRABQR3QDg1zNRzerZav2vDJVeeTuxUIQNPmPjHHOD9wHgy86Qb67p2CP3C1p9e2OI/FiNLUOwFwCARcWMCAKN/cXtt8HiFs6eUNYR+0rcb/APerKbtAees+aAgnIHTrvQjABCdD3NPs0N6vtabZkH5ZDavl7Df67H5fDEvufOPeRzRACQbGDHbI05b2CcUoNjoCBEIx89h8QvKIRftdsd7oacTmx6x4R12bxWO5gpHS4HdCZLqdx37VM3hR275uqyz5YBty2cPmtTD+pu0P6dwOm8KQR8YvF+YeUpOWe6PkdwvRgCh8PFFOwY2NXTEnCsrKsnun9i/2E3ujEL3DwLBCadQ/kD6B+PHLez+SVHUH6+tnuL7xpy00Ve2uGREz+ufVidA+Glvb9+xY4fOWwRIBROAdIyCul3RemkzNoX5e/tQ8W7XNysZ7Vjtwo39SaABjxsnecVg54zbbcdOFthw7rt91Z3vPbzdX3jk5TdE3dgBg21fIAAc8RK1u6KQ/qHqLHDB7Lmz2NlejG3v9lCpHXuD+yt7eadq70x1tDUBwOrhl7/8JcR9U18pCJ80qafDUIrGlEtVuzL2k7YHyAu3DtD3u+GrBLcj5hZqH7ptdAuWjwvoLJQ/MX6CAKD5cdC6Lx1MDd1/wNEZsHfCHwocHvptAGcyA0zxLXbKKAsCgAXoaaedhid8pcAYDhvE4AgIXB+HxyxevPjSSy8dOnRoVvulH6zQZLP9OLyIrH28HiIAnOALvSeWuujGRkbi/biJBnhRCEI/eD/2u0D76cbuSBBABLte/M4Q5sEFzmAB9r44Ogod7QV22H7muuVPNvs1DtuCAN5///26ujqYQlxxxRVYHwDqX3nllZdffjkkohNOOGHFihVYKOidiu5qpWCpi+R+THkxAsgEgAmAA9gPlh4lyQc0gO1dIADCe74QEsVx8TD7ccG/Dk6+C7ucIIAgPEIA74tw2zuK7R1i02Oe/VOfWfTCmjVrsKERB8TjM8AECLp/tn3AfnmYguL8mK+//npXQ83eaa+dNZ7yghfNfYn9Q/uJHe5i7osd7ryfBdgPvSdfmPvSDFhseBemb2JHJJs/0J53sf5lDyFr77SiF0rBsIejtrtdkAUBsO9/nubiia0wOBqVC4Pwg0kwTES7XXY+o0kPoJfdbpJ8xE27e90k/ZPcT6I/nmD8QuzBFmB6AcuX5wCQeWg0wAjgijpcEacrghHA6wphBPCLCUCBHXe0yB6D28Od4yoId9z61aP3f/HApIZUG3dTNNaCADDBxZYAzIMZBI4CePLJJ+E0BePAs88+iyi2lktRQD6qqz0AT4ak84G9g7B1o5sYv+D9bPLAK180AijbGRXDMBoBnHB2QtNfO2YKxPvhBzEkzB9oBAjYYgGblOuWn2l3WavT446GcMg2jtp2xLozrFkQwJQpU0aNGnXvvfey5IPDMoD9vC8MbtPhPB275tOubT5hyh5g3i8UPuD6jPqw9MQNxk82P0LhI2t+XDY4dyDeLyx/WAsE6Iz9pPvH9BdeQGH5A+s42fiHVEA+m82HEzL6j/1Pyi6D4osciWK6M75xLc5aTZ3YNNaCALADGGZwhx9+OOtA991338ceewyrxbAFAm289NJLuuNTTcvIB6bZA8T76WZbNyH0C9QX2C/M3ehJZIB1X14CY4PnJr9vSfXgZYOroAAF9sP0jRfKhCfcEBk/O0IkBYEA4DPO5srqkY9pNjZTyRaXDIcjUch0F618F1vGugrWQgsEcDggVXtG6jnnnAPvudgKg3lwTq0Zd7XluZIezNhmw44UUneKpySecGWOrbtY7cK7cO9DC1egAeg94b+T9D/s5Ec85+8+asb4X4UDQP2o0x10OqN+Fxa/oPrsAN6XOuHpP1pqbyuxw3dQP7N+s/xMYhA46oBty4a31h2zacEbg/ezzKJNYDECmMLC/mAw/jz2m3ZOFwOV2SjwXr3Jq6HwUaLcvJ8dvn3IukHcHKL+1IUA9RXHJ/IL3J9gviB8o+yE1+qCQbOryEc/jtr2RTq71ELrEQDgoAx9+umnsS0YxtJQhg4fPnzatGlYIIMr6S4Vlk+c0AMCy+3Yjci8H3HQ9wNzPXTyH/F+jAAeklag9SeDHpguQPiB5kdW/hDvF4p/Mnwg6d8tLH9cERyY5ncFsfoL2weMAEX2dowARY5wMZnM9Vfzh9TIM7Nm+tTab4Uj0U/hTy51Ym2sNQFgUzzmvs3NCb5JMBPAAdqYA0yYMCH9wvIpNT1AvFiweA3v53f4MiE2z+H8wlxf9nJFbBwjtzIUaEYDbH0klk/xiusrYSUNl7jCQE5E7ZTXZl/Z64P3O3Pd3D13rH5Gmpr+uTIWBLB+/XpshYG686qrrjr55JOxEgx10A8//PDEE0+AME455ZSlS5diorxT9mm2GgWUJyFHHNwCtw6C68PETTzxjiNb6KNAhQksxiIWwsH7hRNnofQUzj3pybxfGD5EYfXpgt1bBNpPrzsMb89k/mCLFTk6Ag54SKE5QLFdKrbDb+jOSgLSkzXTFpXWfFIxLn3sRz9bEAD2fLW2tv7rX/+67LLLVISAXRDsILAQhuOE4RUCOqJs4crOCpdpAL5M2JMhkFKQhEQsmhg/PRUeTiIQ5sFg4xQiFn2VJ40D6jux/RjMnuEInbZGih0ymDNDaILK1EF6I3zsHPF8npXv2uTyz6sY31XQFpNg3vCFrfE6uPiC2AyJQBwr39UiU6SHshXmFTBAMrU8TZGxf0TBdaGTVJxwYQtvVjavG0/Ji2NgxY0lHdb6e5x0khfWfWHzQyu+8tIvK/55DTgmBgHa+OKiTY/DG7ZePnvO+e/N92DNi3T/vPobKsDqL6zf7B0wAfLZ7B6bq/dPfczxT2NBAFCAAtfZO8/ApJAAACAASURBVJCuJUuWLEFI+gdlNzQ0zJ49GwfQIxfkKNhRw8YOZ/LxT4TgwubjkSNHwh/13Llzc7zjulw9Yu0k0EP2IWYfV/WwzocDxekUshTPTm3JtyFlJGZPEBSNkDwH4JDdttRe/9xbv3h+jiuK0UJVAcX3SLLzQ1GD/JXQAxYEgJUvcPprr70W9s/afMDRG2+88dhjj91773S3Jnz33XcwqXj44YcBB3gPTxM1NTXYaI8lhVmzZr344ouYUre1tcG8FC5499hDezZgv/9s2MqITS0Q+nFYL4R+uiH0Yw7A677k2wdW/sT4aZejW5g8uOgJrk8SjJD7+WbGz34fwP6jsHyGs3+7rNuh1V+4/XHiGGzwfjL+Cdg6i+Aa3R7EZCGP+8Ye0M8BOjo64AoXSKkmxY54OAOFN1yWeRAOVg2tKKQjaEKRnk9SMoLWhRx00EFQoTIBfPrpp1AfHX/88fPnz8dZBEcccQSbWkDyQek4oEBdYG6X2lpiO2AW45HovKZ+eGlVOqzYSfZkpi7YPP5kZq9mV5pOw0jCOgCxB4VFaFcA5FkDTyg0afphH3anyrs1b4zYHKsKBqXOrCcAWP/ffPPNjI7anND8wP5ZBwszY4wAsIlIXYYxFqIOr6PB1rqxsVE9ggB7L0EVIAMkgOk1MoakznapFS/9lADI7sZBThxI8wOXPrzDS97nRbu9wPXxhJU/kBg2P3hC+kd7aQSAcwdY+1A45rPs442eNBkQ276I/cPnD0z/HWQHRmokZyTgJNM3qP8xCQ44OgrswQIYUNMMeBe6cLTeeaveh5XEr/e+hDZGJL/03QL/z2+88Ubqg/G00GAYlxy4eQyoCxokSEQoBewfQr+aDscxHXDAAdpsRVJpha3aHFCuh4p+V0R/waQTeL+i8FE5OnN9SgekV28dv4ccQ7cYBzglpU0cATS5GYzVto++60nU/Mwz9neB8nVXLPbyqwtbW7u2rKvCWFI8DCvfuzdvHNy+bb2/Qg9c81tPAGDGRp1PivzpRy1atAhLB+D3OFgAWlRoe+BcGqNHaoPqNqklLAWdOe+5W9sPrOYnxo/PS/ta6KRecWSvnVz64AljT0Rhj0v8KVZ8oaQR/J6fNALg+wCdBfunnb5iswsxc/4J039nVILrK7sYAeAGhfx+kuUzrP+BAYU2WIDCBNoB92/6L53+l8tmysrK4ssuOfzjuctXrdp64QWHhsOR+x9879ijJ1ZVlTz/IulLund9VTbqgd1OmFc5fou3NDWE3uuWPffcE0IULXyK64YbboCoY3nKKuQGoQfpL5cQ2YHiuEjnLmt1xDhgvPkII1XcZ64v/9SNADLLFyBlrs6DQHzYoDJVEyAsBYgVAnaTxdbPyjCRS305sqZi0aJ1f7nl1amHjkW91q3f/uprXwWD4SOm79HZ2X3nh5hEvTAsLa+1aREAdoHBEygOB4DEgnXfMWPGnHTSSTAL9cJBX1cuFfvFp6I9lpa5vZIP/NMyWY4kgPM2ahhYvmgeIT25cVYYPwiDuT52twBVofWnJ/F+KHxI1neKEQACO4QccvBGoj+AEO9X7P7Z+l/2/AMwwu+nrAXCHECc+IvVAOx9AQ2A/cP3rdeO1QcAzkUC+PyLVV9+uTocju4xfjBavWwZ7bWaN2/Fwq/W9s43tcatDz/8ENoeqCbVCkF8f/nllx988MFXX32VnaRnr65CBArBND57RWQGMo9spN0XIwB+Co2+8q4N4XA1Ael8BFMXljoqj+d1X/WnXq4nRZFIT7nXVZc+cuZBUhGRjXz0nXCUSO8iVc5ekUiUTfjHjiVv+98t24RnU3M77t6ps4V0AcX8+eefD2sIHIWE/e9N4oL5AwyEFi5cqLWPyFJ1I1I4Sue/5fBFC1t2UvOT+yry3UkbGuM3iBdOGDCM4RwXUgfR/kZ5mwtp+uG2U6Id7qSpwV5d3OTogfa7yBI/sXwhzQiuz4Fi5zt8v2EEgK7IEVs3ouzBi6Y+99N9nG7sGoC/CGwZgBO4EA7HgIN0sdLGFnY52o0ej3P0qIHg/Uu/IwLozctiBIAjICwC3HnnndgAqVYLy8PQ1UCA+b//+z84Eq2pqclejQulEtgJZA9+jyAT6oPLs8SvPOMjAHN9PrRUYKC4xcF1yiAg9PayPY8YB2jQkFk7m/0I9k3LwIpeSLzLy8NICwKApad8g+WDlHi7GPBeDu9RG3sl8+jRA6EIamnpWL++vlcKjBdiMQLA8w/SQtzXVQsi7gUXXACS7QW3KLkpvKJDyF2zXfbYzH6bZcZPPmcdxPUTbzB74vfiSTe8VZHjZvXMXkZY8vCMQHqyFESTAc0IIL9jEIDjE8X6TeyXFM6ywrQF3h7COODB1jFhRgQq62Ws6mpxe4wnD/vLv9+CyYA2L4xlcSMETwe6TvAHJ/pWc4nZFoVwArxg2Z1nm2p2bXrdu8UIkGLbF8+AtWvGKYrpdtRWaXNxTvkGFbK+PJtX9Txg2vF3dQ6gjgky72fGz5Y6AEFDAZg9UvGTfHlSP8VnAhwlYjmZmCEIa1/5hQhAyDcMlUYAcZNBqFAB5dK578mRYJyYACxfnmBus9++I8//6SGxmPTIox/99LxDysoC9/xj1qmnTNltt4H/e/Mri5dsQJZph4877ZR91q7fNmhgMbRGf7jh+YMO3O3Siw+DNumuv799859O++jj5c+/kEqdajEC8DoXDHWMlcd6GQJHjBhhjMpgSJlUgTOAMgiwh6CII+EWXqvEzSOAEPFp0ZfuOOMnuR8ivuzNin1aSRD34a6fBgHgqRgBmOWT0E97vljQZ/0lHPjT/Ji5fvwpNr6IEUCMIlE8xQhA0r9wlwj3/5gD4BnzgMpyewCAyn/ypOH4Lp3BsGAv8tXY1D7r3cWgjZEjK2c+Pndwden0aeOwSjCgvHDsGCKYvfYc+offnfzEU/Puu3/25EkjNmwgPU1dXeOTT88/8IDRv7n2+Icf/fiDOd+l/uIWIwCOABs3btxvfvMb2PzAPxwvWkEjNHPmzL/85S/YG9kNO4jUFdLFArP6XgRK4PoKX0dFSV7X3BxiCFdWfCml8i7L9EKyF+MAcXQxB+ARQPQCDwVEAPIdEy94kuaHpgzKTdu+hKhDNELveKEnDxVivMjda8+JQ/8rmDRWwdxuV2enfGYZBoSTT5zc1NT+8isLTjpxMuTtmU/MGzF8AFJ+/wMZ4SOwtrbxywVrEIheXPTtegT+sLKuozMMHjXvk++//nqtZbMtCAByDnAd9jkwCIXlZnl5Ocx14CsXe8TgNA6T4HR0+ZaVyOkEEHeEWpOeuMSJvMTm1XeweVwsmPI7uD4+iHiS0E+CPqknSeaBph9P3vgipHxSAQGtsdwHLBVCEU9wMQ4QYYgnyTHaGxUR0pEAT9L/5O/WX/ro3FCJ87G/HiQYfwiDAIjBDflYzNRz+Xpn1rfJqjdhjyHQC4VCkYkThmypbayra5px0t6wj/jhBzqdetTIyhU/1EKROvXQMSCeZYoEBfYPLC0uSst60oIAUAy8wcF2H6cCv/XWW+wTrqamBvab11xzDbaGJat6psIbpYYyaSC2jWQKoBUcebwhKZ9vYBqhvkBofkc4kwQjvVH3r5ABiee0kC0jvUwDoARCdyGts3gjniJEEXjEu0wJonB5EOBA0msKHSjOSRLT6bLmtr2+2tBUhi02YZwUAzAwmYMq1YN9l7mN/Sk+R3Gxf8iQ0lnvfgt2Pn7c4CVLN0ajOK2ruLm54/Cp4z77fCUooajId/hhY6dMqWnvCGHOgAnD6FGVGDSWLNl4wP6j29qCb779jW5irSvRmgCQAY7RYcVw6623wngBtIXFYHkWmKL6GYrCSjCE6wwBSwMMoYugAYH9MtcnJiroARePAwlPQ7hIDNmcsoCp861SFMeS+ELyiiym8E8qlwLFk99l7KcqiRD1phyaW9Qb5BYBSBfNBEAGOEqXjkCSaTqN1udUEp/P9eRT8+fO+97jcQGPFy0iCefV1xa2tIxv2NFav73lwX+9f/RREyKR2K23vfajH+0P2SkYjNTXtzz3/OdYSD72mImr125Ljf0AaIFbr7/++qmnngr2D/foQt/U2yuy4P3ZN4VgjAfeCSGELrRV0dbTq8B+WQQSvJpGAyVEJgaBm5o0YpQggiGEFjIPazx5HCDUV8YBJNPwfkJ0mrUKri8mCeKZcLPyR9GjYhKsbHYRrhN5Fw3mADYnLPL6KfrTbtvGhx/9iGnysZlz+eXrb9bh5neMCbj5/a673+YXfkJHxGoibaDpuwUBwPkzuH76+x5Ny8j1QMHaGcvFk37JLJ/pQeblQHrTEcAQLhMMARWSDGG/kO/pSaivhDD7TxSE4nNfmQaYEgR9iZtUQDw+4KcARk/uZNoOz0dFCnkKCqlcnwH0NXKIj5f8gu9bGEg/88wzmPUmT9VPYhgvxVPWZmIZCzf2qYipKgk84oV2rtCtqDURwtpPcVgdzYApjXjqbzEI0CKXBjeVd0Z9wc4RqyC6QhJMJ0Kfr0YlMn6iBGC/QkdiDRg3qfwFAYA6yFxatqWgOUA/+TB9WU2LEQB7gh944IGrr74aalA4QeHjArT1xd5F4ppZu5qlHZmbBGvqyXUWVgzw1UDVZ4sGDZHExR6Zo5txemRURwl6pzSCrwvOzE/m0gSEkFSj96R3ZQ4gI32c6wOSwvtpiGDezy0QcATs+M1fQCwk8InxnAmEkcWvk7XP3nuALQgAdm/wjY5ZL44FwD5gI67DFCKrzuG8UgD+XLvWHxqCVCrMKM5PAibCWc6hHyIIMrN4194CuWUtkEBuRnH5yTgth1NmQnqRQeC6DIrnqkJYEbNe3Ijld+1kF5TD47Gomoz9PBoImUfcJP/I7t/EtEIZBFgEwmiASTB5jM5xI1Dqpdy4LAgAphCY+OKIgGS1zbZ7dPjJh5yRrHSzcEYfEcNYyIiuJE3g9zK+EtYqCh/GYCHJqEhM7wphMLozzRh4vzIaMBCCQJpQeSYgY7+C3EQGYoZA3F0dBzhWxn7NCCDCVSMI5KJ3Gj9kglLmAIT6JBEJAuBamnVSPkzpAQsCgNWnqVOg3utAwjwTAqBvG/++AuHUSzBmxkE5DafkVOI9Ad2NOI0BIpGLExztCCDWBGgagHChESKlJy5BKqTeQYhQ8oh1LpoPiFvBeM3iFw8IPKmlZS9shxeQmDbkqYKgE+UGTQkUhzmFOALM6Yj8MLnytoeOLfO32txY/Ap7JKhBZZoiWPkreQ9YEEDyjH0dE8d+wekZ4eOVYgpIZIIyGTBppHzK0Aw8VFsolakBwkXLCUTp4pYnpyJhwiVSynxbG8EpObtpArkg+qdCbS3yrNyzssPbgDPwYAShzix0ZeZ/GnsgFQFAAYrNADgRtaamJtuijrFmcghEFrY7EB9cg0gKisuIkBATTyrwTJ4JqOiLF/Xm7JSCA1W0FiKQOjggXhaKZC2MOiaISS1p+on308SXRB3lXYQIdi2rd4TJQwLXZxFISFPyHIAHPEVAEunlm1d/5T0A8k4AmvKS9lPsg8ESGN7F4UmChjS9krSHd+0IE+mCOwQeHCD6jx49euLEiTgTCZu/dB7Se6ffGmJ17THyC4RLYKl6cxDjayL2C2SOX2oWBQrDSkggoCsQxTvhjwJFhsDxIlCNUt85RIahASUyJYwDmroljADaTCz9i7zxS5ORG6grRqEUGfMRq82hA5b/yT1gPgJ8/PHH5557Lvz2wIFPSUkJHCHy5q8333yzlxeDC+ylHgc0rUI6pk9q+KZKCEXIWKhJwyHMyLnFahpCciYnTUYZ10W4ClC37ouYuMSPdwIjjwOcHcpIeQ4gYhXpnxi5PAKIia+YqJLEz8yenxpdEDN+ihUbIFkFxBsAaLAhK2jYU/NWGLB/UvyLoSAMN4rCDTrfeVRP1QPmIwDMfrDyBU8QOBsG/nwgCOEoALi25T0AqeBlOg4OlLEcJUNVcD1eiDZExV1GXP6pIrEayJmZRrRYrr7rSpFTimw6jEqIihOMzO/jtUx408v9zOwVlk9TV1GQ/JIECAhAxPBMF5SSuHGAB7AkefPB2h4wJwCo/4888siLLrqId4TBCvqhhx6Cr8LXXnutt7sP7BMMWNy8Cqsu0NKLWJflO2H/ITi0ujGF3nlxV04pMvLOFREFjEcazsIv8k8RS++89KtZ9xUASZRnVQ+lEQY/HMJyv6KiJy7N7/QkZY6svZcDOSRhHJA1OKroLwiP9FJ0kxaIVE3CDhS20ADvjoYLWjv8rfAgJjYEkxMtmMEZGUZvf73cL8+EALDzAP7bdD4P4bQZxs/qMfG92DAN1zV+UGMI10wbzjxVV2NtoHYcMDZMBhVn8DQOyKWIf3J2fteHyKisKU7l8SIvPeQxgd85JZ7aGhrURboy95i/6aYjXz/35M+cIR4KiF7EMJC/LHrAfA6ATMbdwHBkC4MIC3iZjQZqYH2WRHBx0TdN/Kg6RI//JE1+vC5CxyJfMu6IEAaoDVEDKYtSHFcAbB4XuC49RXYRIrT+YOriXawexJFehq/MBEjKFxMGWfMjZgIihHMxbbAuiN5pBJD9/wiYYg2YN9Pzrl/hP4W0QNGYszPiDMLvSoSdJjrF4omm2VTf/GXsgaQEgPMvHn30UW2Gbdu2wTBOF4gzg9mNsxF0JkLw3QV2MAvUYb++AM3n1n75FFhgBCgTgwDNGXUEo4brS9dm4XdDwTJAQ0otKDVNGk0g+uJqKolFiJiQxxtgWtF8oNwDSQngbXEZ++nCCy/UBsIQCFvGjMkyFsKiuVYG0LJzUYxs2MNFEkZocEeLvpyAGbkRrRmsGq5NhneEiwTM72Xez2nkkUEUqgBRWbu8DiCL/sT7ia8L/Q+PA4zCFA4Amqc8jHAIRZEdKCfmQYDmALweLA4FE43DyUnkVgubNrAbXz/b5ubnn4k9YEIAwCccXoTzIdPpqxRmQulkt0hjs20NrStxVfrtRSlTajA+ZbruRGrJyZjfrGSWZOS0hgRaiZ8ZdVJMVfMagKgV0amLxE/AS57B2IRdO8SEANAh2P+VE90SkyrcwwMuMw/XyjCvqac88CuYJ5CA2TMHGbk+hxOD53GDRQqRkeCLm4AIex5jdpb+RTgloJmAgCigyeI+3oXEj0DxFDIKAYzPBESImkABogkhgPRT8QQh1451TmQBCgM4UTDVVDhWJO2YqIiof/5K3gP8xZLH93kMo52xGsYvqw3RIqsxry5Ezij+mRUX59BKEQhJxuZFYkVLT6+iMMGW+cYvSmOsv0jIZTHweLnx3HK8KF84R5ErokkropKAF2XkL00PmI8AOdRF+JKq0G/ETtMQbaCREjgkQeIXXEA3B0AyFM0LTjxEcALs8UVi1gIxKFkjRChHXJ9QUrB5yi4oCoHcCnoqzJ5RWE4jKEQ3DnCUOgcADLyLdQCxzZie7FeFTN+oWCoEWiCRCu9qr+XQx8zBquQ8AeRUn2lJiysmME9/GQM5RBuueddybz0o8duEn8vZmdnHYPvWXurGkfBAfDHY5K90eyDnCQB8TyvHq+0yDdQiqMwVNYhm5PoMTQ5XZwIy547L/cRR5TmAwmwJrLwCIApSpH9RHAn9qmUo/2SYQu7nGwnFLUv/Gk5PDJwBUgJ5EwySCU7PN48oshYISwGrDq6474Npw9z1XndIDDl5GlARxeIl5wkA9TfyXV2jdAnUn4xk+h4QOCoe8j+ZVJR0lEugu5pd/qlk5J8yAJFMA4xwWgtQLYjDtYkV+KpcL/ISLJnlxxPHEVoULs+iBQAhahFR0fwXsexMWqlT/r9FDwhuk/yCTQTsonFGavIkWY5RkU99Ae8noZxxtGdP8H4S0PW3wmYVGtDyXlbgsNwtI7qKkoyYAm0Zd4U4IospVApjq4gV9CBu8S56UX4XIQyB8wqAyn5Igep8y7nJwgi3OBJGHKVn8VGz/MX6F3iLvnruueew1gvbuD5tFWMTkEBgqvYiRNGFxLFWRiLCHjWjSJyYIw5PQbuENCp8NVbGe5FP+86A4sm4IE2J4lUeH9TEBIR/GJ5qOL8IyEp1FGIRFMRQaWRIpWEywM8HWHqGY3dA2BLQZ31FuKvgiA7XKdiAO4QlIjAelUg2CTMBTcqEcAUpVVAC+eJgWUwXsTK/5ZTMT5ijc82V+hAvV2rF70oIgxXwE24xKsTLRYNowMBQoAw/REoinqoA1IcKSPgIEvSOignA+St1D1iMAPCLOGTIEBxpCre4qQFlM5Y/KSOgoZwEpFHwhdBRvdXXRErQQtLCVmDI8XFCAhyRTk2sS6kAFIiu/NDUQgEo/nMCEauVgpRsSf9r8nFWHlFY1OI2y5SVFEQ+QtMDFpNgHAhw3333XX755fCQ9dvf/rawsFDXexCQsrpdeHtwQ5mv2ucsNv9qzOs4ToupwAT1JyGZQBsTVBbhGt5PinwZxeQsMttWgMgCjBaghirUWFl2V5FbILqM61QTUWPxVEQZOYEcZQinhsojgGDwcY0QAESL6ttHLd46wN/cephXjAb5K90esCCAd955B3vBGBj8wxmhYsdwVo3hyjzD/M7iBLmZK8E4RIiuqVQcxROZfWoCAACSLQSFKIjO1KIgNGOnKEnGWvpHuKs+1ZoQhIRbRXHdiy4ZfsanwtwmgsNzX7HoK9qkxX7CdaFuHfztjhOvXNRZ7pw3bxTciCFfXv7hLrR8WhAAkPv2229PASX7fnPh811cAtviVxzXlTAKURJpXhOz6YCInwnkES9GiNjiJ0GLQ47jlrZK/K4N0RQlC0WaWHMEpYK4Sob2KtCUQYUrpdCUovjPs39Nr6f1akEAOBkA5yOlBSlLiRSmpycA4oe6IjVcnzBJE52A4oxhIlaEx3k/hWjoIY6OIpkWCMM2hDCii2kxVU+gJzNtGaEZYUUpCcIPDyZyixi4XBmukoBHN1MlnuIWc19adhNtohwiQV4EUvrD+r8FAVgD6IUUKiJqy9LiN4cTgqRdG21KGY/N8irJTGQwXXJOqcFdWZ5JqLO+iIRxQAvBtMmKiCQ3V6C78i6PMYIeutAN+grter/TIgCcFP/SSy999NFHGzduhKPc3Xff/aSTTjrooIOM2yYz34GECgIdtCirFkOBSoScUonTUkgcxTVQtHK/jEcym8UvwWkTQYlaCElcFCpitZw7PkQwc+b6aDi9PD5QiAJcwJRvVXBXytUOF3JlRBQACCxHvLIiptaUgSkQlOD8/6Q9YE0Ay5cvP/nkk3FShhbGHXfcccYZZzz88MNGh+lJi+pmhPzN44ieAMeApilKMSEJFTjAx7HGREBnNAVwTiWe5tgfr4ABoAYvZY6trS0XocCPizVqGhGlVESmDkE1fFOsGAG0tKstIP9u0gMWBADfWFB0whRixowZOC8e+7/gM2Lx4sWPPPIITCSgJIXDLBOomQwCiisyLWGAgkT4j+9O6KCEUGTyd45REgj8MxAPhYh0BFYGLqdUgdMgoMSKZipjAgVyFD2ZPDhETk+QtUyd0FZTX8ojfsYD1WoIFBcjBy+EUTXZJkM2ixAl80WZ4r/U4PyLeQ9YEMC8efPgGOu6666DqyzVzwJUQ/Abd+aZZ4IM/vznPw8cONAcdkZCtSiixW8Ap0+tidbFqqUzGlF6Q2IOkJFeW5KMi/EWJEaqZEgJZCAirS5ZPL9ZrGliFZppbLw0DWEmloJ8yXpCV538T/SAhcLg22/pDNef/exnCV5GYEHhdF511VUwlPjss8+y3o9ssqYuV+HzqjfK1r5zVTiE32XDAIW1EyNlTQo3XWX5At3ErEAI6Im30LMoGTmLNoGQPFTOTQhochMEKoJBCTYvbsoowkUFNE/+KVh+HKAIJN4vniiWbT/bBrpXHT9g61EFqAn8yFh8VFFI/uIesBgBgOJAfdO1XriLA4i2trbsdqWWm2nfuVRjiLY2jE+m9UtAOPGDQRkByikTYWl/meJuikLlmhtS6OAkqbySSkg5Spq6CUUf3D1muGubH07jDIDzASl6wIIAWOh///33MRPQQYF0hJBBgwalgJ6ZKB1SGnGUUEHz3Xms4LI14bKWhtmjFt3Fu6LDiWOVPBTogNNPwb/FS0lpwOai7edsEocDuijWbtvR1BaVYpRMp6gXuRhx1UFABshg48AF4+dL0frrkFsUBes3soLmg2EQkpf/lV5L678FARx++OFYC4O0g0Hg6KOPZtfQnZ2dcBn0xz/+EYPAfvvtl1Y5WU2kxf6MM8DkAL1e10MPXQxd8IaNDbvvNhCo98PquiHVpV6P64xL/7WtmcbG1OiYNDax0ORVoG5VCEqQnkKbWe3vnQm4BQHA+u1f//oXNJ4nnngiKAGWoTgpHh5Ca2tr4SkRk+BsuoXT9LOR65uGaDElNe83fkMZj4iFC7QSL6o0rWAZc3rOPWRoudvt+sU1j3u97gf+cV5ra+dV1z9z4jF7njFjSkNTu9hqo6Cnml1bQ4aiTZO0VlwlmqQotzwTUHNwZcX6AFfdCCsfYtID1vOlE044Ye7cuTCJg7j/5ZdfLly4EOti06ZNe+utt8477zwTkDkWlJTLmtbTiKCGZCpAYPyNN724es228eOqkWrFytpgKLxo6Yb/vrYAymJDPlnyMQm3CmJYYsKsXvyuPumFE6TRAqvydqV4ixGAu2LKlClYCQbeb9++HZ+2qKgoS1tkcAgNhCuPx3P88cdD0USlEztTvqkl1+fqJuP92u/KacQzLv0rCRRFEP0WmCUqYHhu2rwDN47BYwJYsnwzEq9YXff92q1x8T0OM675SRgZlASiCPFDPGWMxruiduKECFC3RCobI7mTOAcGLeGhN3+l1wMWIwBmunvssccTTzwBaJgG4MCYYcOGdQ/7N2zY8Je//AWLaAAF5RJg3nTTTexvHWIVXxCoYF+NcynTdMyYuo0yw8wIMiQHAidsY8dUoSbfLdukxirFXwAAGzdJREFUxeBkdZNrpYlOCFFpIGmJegBIOGB5ywE3ra65td4WkckgWen5cF0PWBDAp59+unTp0owsdeGwPcyhceQMavDhhx/C+zQsLLCOFgwGMZe45557cCQ9ptcgM4ww8WUHYoGK0p3rLnigfKtYoqRRZWSZiwuhWL5UOImJKQF1gzLUMKeXy0oiUVOtxG2XyssLKyuLIpHosu+3UCZRnFg3SLiVSlACjhpVVX7fZadUlxXJoOL1BBInYjnVgteA5eEqDk3AK97YvvvTtYOeb7ILAshf6feAhQg0efJk4OKcOXOOOuqo9IGapsTOAQwmLByvXr0aa8k4cQMyFawtLr74Ys4CD+xYeAYZ4IBKDukINTd3bnM7vB5ngQxWi6AcZAyRw00rYghkzJOfKhpqKEfNoYmkMPFzzO6DnA77hk0N9Q0t8EmihhuK0QdUFhdEotGtzfIRgAnRiQVpK6iDYozS1VFfav53Yg9YEADUoNgJ+be//Q3M+/rrrzeekAddUDe6FPjt9XqRUQcQ59Aceuih06dP9/l8DLYz0toWbJC8JR67fjcmJdCgfgJvBBZoEYGTJaMTTQOEAKFob7ThgCYGS3kFQBM1fizNgJev2BKlia9cqsfjPP6IiW6P88X3vjl26viyssAzsxbuO2H42JqBz334zeam5jGDK6aMHvLJ8rXBSMTjcp52wASX0/HkV9+cOmmPsiLfQwsWNEmdVAgvAyszEXXo4mVgWmMQLlJUti/anZ8DaD6P1asFAUBkX7FiBYze/vSnP/373/9mrNXCxJ7JNDeFQe4H3mMEwAtkKpy3ByUS3rU0AJ065B8t/GJv1aDC3bXKR6sWpRufrqxgxVEn7TUMRa5eu00tGJCnHzymvDRwwekH1AwbsGxN7SUzDth7zJC3Pl129hGTHU77XS99tKq2/idTJ7/77Qrps29OmDy2vMB/2WH7ja4qX7pl61UHH7iucccLPyyNtyR5HThGVhDRDyOFptshu2Y6izlAXV3dBx98ADQFb4ZkAj9ZukuVVSy7D1ZD0JxCyYN5xTHHHAPh57bbbvv1r3+NDQYp8raEtnXGEq0tFDaosn+W+2UgzKpVjOHE2gJESHyGQJMEZY6RmFgBmzgDEeK5OtP40Y/2LysN1G1t2mvi0ECBl4V7lPbWB0u2bm8Btb/8/jffr62DGPnm/O8+WbzG4bDXN7WCSw8uL/a6nF+t2ojEL36xeGsLCUJPLVi0vI4IaQeOohLMPH6Z0YCYTdAysEwAQkGkbWv+3bIHLEYAnBW5efPmFFBSo682IzbQHHjggQjhCe7/+3//D/ihs7EzFuRy+Bw2nHiSo9ez//38mRe/QOXICAKXZg4wcUx1XX3LslV1Zx2/dygc+XTxmomjqjBbWLiCkH7SyGrg99drqG+Bs5OHVdc1tyzeXPs/h+wXjkYXpupzExQ3o44c7bFcq5bFCLBjx44XXngBqhsguunVpfYA3bUYb4n9AI5Tsh12VwKT1hSZLu83DBpJq60OIMiiu4xAdExak97msE3YvXr56tpwJLLX7oPrGlq27mgdN2JgZyi8aVtjccA7ZkhlU1tHY1tHod9js9tAAIs21mIWMam6auX27R6HAzfB0xSBcUtI/PF1AJM6kud2wDNUXt+Y/G+5BywIAK4RsQ+mN2yek3yRUKQjGoskiVSCjYioxQBTbDBmMZbBWGSaUheoxTfxXlrs93lcC5euh8xTVVG0YNl6DHeb65sQ+cszDnO7nJsbmjD3veaEQ5wOByYAPpfr89V0JtX6HY3VhYWX7bsvuENcnFc0tMY6GkNMBghjonyI0gMWIhBrLXUT097svfbwjlC0w2NXdKBC/japQAIKan4YEsvZOQnHimcysISFugITQxJmnTJAqb6h9cQr/omMkNDP/cPjsNXE+wsfLnr1s6WdWDJwSjM/WPDU/K+hAsKxpog6+DZKDJc+N7/7wS3zPuyMRiJujTWoSYPjQci3fXzgi1tHlAVa6XTslInzkboesBgB4BoRS78w/MQ6bp/0XZG3yuOMK0D17I1xUfvNU/J+ffZkTZKB6HEptYYlHpu8mGBIHs2guQyGzVetQCFqvQz0ixiaaeOfGCFIBsR7a5Vn9enl9Sf5SULS6oaTNTAfrvSAxQgAa9C///3vODMPZs9wEGR0jfjjH/84+/vi5comY9JytA5ZDJRgnt0MFRi/tDHxcUBPFGrd4snN8V/QamoSMquLvCyhRjHJx/eoCUrQxuY3xZt2Y7JACwKYNWvWaaedxpl/9atfGaFMmjQpq64RG9rWlRUM9TkNx6QyIiZBR2M94yEpsjBy6TOnyGCQjkRekF4CSlKQHqgxxJxsOJ8xuxk8Ivk0Uhqy7tIBFgQAn7h33313ih6Cj6AUsT2PKhQikAnz1n5pM0FBLtoYxRk14TJwFgYTxg0LaSI5O1fWkuWyErtBh6biZ3yEQVpTJFZ2AqToUoARjTDNnyLfLh1lQQDV1dXXXHNNH/aQ0+HWb/JO5/sm4n0q5tqltsnSt2yrHM+qVIkLMi0Ogbpw02Sa6lhMggW6g3AwzQYJR1kQ4lLS6aEutXsnTmxBALnYcsvPa8L1k+QxpuQGC64sX/TOHF0EMaLpBgoKF8mTlCNHacGK5HoaUBMYUork8YtqJCpFC9mCEuyYVoNkRGD+Sr8HzLVA2P4CE6DUUGDRCRtmGDmnTtbD2JbObcFIG31V9e42RCusYsACKXuGRdo5QLdrG8+oHTyElxRhjaEFXD2v8bipS8afsEUKZqC8XQqECQFA93/66afD9E3tCFgs33zzzfANqu0aGPZAOkptKNHzrpRNIZIRAHNCLkbmigruaqPkBNaITWil5e7dbkD6FJSaLGVrUFEPhesbK+joiPo2B121EQDLa4G69NGSikC8BMawOjo6YBGN96lTp6rQtQm6VGSXEnucAYcziS2QFhGMSCGKMZs9C9wU6eVYFVl1NKObmxrrnaxQTqlkT5jgshrfiPRagjEOIIT6yafcSsUEVI1NtrHC+RBDD5iMAIY0fRqgxQxtRdLA/nTrzehowGYxGqQLI6Fq4gfLKNqnNk2CBMMRSlkmUXLO5DFKgrxbFG0np/OedARIJ3NvpQFqJH57A7Im1MQY21U8JpKITydl3stAtE8ZcSkoTi3JyjLJqCcwPYInA6VpLczjxEijz9pbn6bfl5PrI0B9y+p27AjTXkb8TvIVZKQgbNajWpIcJsFxIBxpBKWFnxplU8cCvgrcWIpJ1Uw0Umap8mGpeiDpCAAXQHfddRdnxRwAW9dxXLYagnB2jZgKdibiSvxDvC5lGdgU9ZPIQkml/0zUqvdgGCiBJgPCLjoZ1xdG5pak1nstyPGSzAkAnQjHDbi0tcdmLly69qRj09+TLsBmAP1CmBZcEuzvSYkZyJtl9GPwSdCcNgTn5aH0P6IJAQCnH3300XT0mzCDg6eg9AvrlylNhx3Rkrjcb2yYip6cPTlJ6EUsIyg1JDkQ0v44bLhRqTz2p+hCY5QJASBRzvk8NGKhMcTYONMQy4xaPEudOAlGKiioTKOTJJNrFycV0+omBKI6psA2H1w8a864wZ4GFwxH9BoDa7C7cgpzAsiZHsHCJx34QKv86mVESk2I4MoaJEkyyY+vABD+UXr9moC2C4wlamK1+nlrXT1VL/E29jVXXyUMUcFkqM+5Ix57e5Ur4rJ7jNDyISl7IAmCpMzTi5G2rc0rWoPbu1miKbfUwrJM0L2Cew62WxC6lal7Ldx5cuX6CFBeMNLvLu1pf6dk4SbAIVLrOAMp2wnBlKchk7YIDEMGZCTdDWU3ZNQGIDZ1gsTcQvKXj8bQngqSsox8ZEIP5PgIAMuWPqihcR6pDTHGpotTXUHudGEinTwx6H69ulDWTpc0x0eAxP42MnJjyE72hYxjQkq3KDtZ63uhOf2KAHqhPzJSRJY4vahb4vqXzPVdLZGizR0eT1gaTQNmEl1RRtq2swFJlwC2bNny3Xff4ZCYI444wughNOu9kganT1j6NTJOwot0EFMgTzoJBaKZXiToJ4kySZ92YlRfLACbXAM/azr0f1aEB9jXfjrY5u4DodGkTv0kyLqz4LIcrh9GjBgBp804KQzecLlpP/nJTy699NJ+0sxeraaMo6ao2qsVyRdm3QMWBADHTWeddRb8w8Etys9//nN4R4RREEOFPwgsGDc0JFqqWZfYtRQJKwDarOCHaXF0fXGkjTHNyJxYg7VsZtkFXp5YFOt8GIg539akl8vSVzb/O+s9YEEA8OSMQ4Lhxhl2QTjNResKFwMCXEN//fXX2ayjra5peWtnfTaL6A+wuzKYdCVtf2h7lutoMQfAmZA4q+JnP/uZ0eitsrISgfCfns0axgYWjw14K1Kv7qeS/k2ZPWrMhC9izQeE7LXKMNToi1ITKLgsFiFoRNGnNPzmLfuG4HxA0h6wGAFwdh0OrTA9BoZPjJTPckwKPyMR1h8+I8VkD4ipfaaxVWnhuHkt48CMYM1z5ENFD1gQAAR9nI764osvGruLj47EsV/GqOyGdFf6736tjFKFtg7MsBl6krqZzwGIsSdWSgsq7eomlN+9iVHaZe18CS1EIJxqsf/++0PbAy8pOC8MG+GhD4V7iGeeeQYnyOPAizFjxux8nWLeIiMZmKfr1VCxLKBl/3lz6K71vwUB4ACvp59+Gu5BcaALeayPxa6++mr2BzFu3LjHH3/cODfoWvm9kzrZTCBF6bosKptNQgZ6Xm6EzBCSZDcmTydEBRkqdDSN99lLoxgAEJiXgtLpPU5jQQBIVFNTg82Qr7zyChzl4lxrzAqwCeawww4788wzjc6i0y84n7InPSBQP47nW/cr/Pi10cNd9b7EheKeFLGL5LUmAHQEFEFYC8PVx51iYOS9rcDpg/Yn4+ZiPSPP63v8RSwmwZs2bbrxxhtNdZ3z58/nc957XIfMAUgpYKSpYyFhJiWczFW3W5BoATCVwJXLde9Wg7ObyYIAli9fDqeIK1euNNaiubn5hhtu+Pjjj41RfROiSsRcvFEhYwwxVDTXsV9UmFA8j+aGb9e9gLREIFPQOEAS4bAUMo3NVGDvOGBMVdsUqJYsShvO78lSpipYHydgWIs9yWQmPbj8b9ED5gSAme611167devW2tpaJMIx8QMGDND2GPAevB8qh4kTJ2azJ231LatKC4f4PWXZLCUJbGCcYdaRkDRFrJEGkhRCvFy9k6Xh8PSsnwAsTwOpO1Iba04AsIF76qmnVNFftQBVc2J5GCqg66+/fvz48ekX1vWUsQGFo/xuE+zv/jfOBDPuekOym6NgbUfN7G3FBe3t5xbFzD9pdivQf6Gb9xbU/7B+g/U//MNdfvnljzzyyJ577qltZCAQqKqq6q3jU4HtBrRNwX1Tfw0DpNTJ+0Vs0Q8d427dgv0A688uyo8AXfpk5gQAEGPHjsUTshCOScUxeBMmTOgS3IwlJvGgBzjbhbwZ20clj04s2HBHaEiYpHhtVMZ6igDlFaNd7c6kBMCAgPpr167tKtCMpu8B9nepHpkrx4QHG4B3X4RL2ShDOSlT5yOTTYJ1PQMaWLBgASa+2ACgjcJMAPvC+n49mD97lz6+GBni62hdypttvDHajqJ6OVXDbPdAL8K3GAFQk9tvvx1rYZ2dnaa1wjmqU6ZMMY3q1cCe4EdP8po1Mkvc3ayofFhPe8CCAL7//vs//vGP0IHCWyhmvVj5wrbggw8+eNWqVffee+8tt9yimxz3tDpp5Cf0Si3Zp45NowhtEtPitCuxIoGcQ/tuXY4FX7c4JtUafj5FGj1gQQBz587FCXnPPvvsoYceipdbb70VRtHQC2F9Chdo4Morr0yjlIwmySh+p1uzFKOENipFsnRLEuksaEMPK1PF6uHuAr8tTCEg92PPF+QcdAV0o9B+ggzoA9lsQP0NGzbkkClEDn8to1RvXtku4j0DEVqlKL9jCMoLYOZ9myTUYgQYNGgQNKFNTU3sC2jIkCHqLnjeCZBtU4gk1e5nwamM1zLRlJYRnlX/M6CwsFNy0OCRp4H0O9ViBMB2MMB6/fXXGSLkH+wFg0S0ZMkSLAODNmpqatIvrL+klFX1idVlfypJVfhWzNvaiKcHvdM02rf8uoHbriyIOfLY37V+tCCA3XffHe5P7r77blaAXnHFFVj9xcYArIvBWdAhhxzC0lHXyuyHqbU8NZf5a3rmQv3wA2StyhYiEOQcIDo2grFjCEhEMJEAPaxZswbaz1/+8pdYCsha3TIGOFf2zRh3wfesidgYAPfo8JcIMDwPhh+xXKbPnjU3K7ktCABllopLLXy33XZ74IEHslIXE6DYhYzpXW6JteFQe9QWdbsLTOrbW0EscGmVP7Wbw5UDYl5/b9UgnXJs0uq1oeqBTo9HW9N0cvZemhzn37FoLKJ2BkvhCX2DjkULRPciZThivloXCrfHNHCQGD+1iSPRUDRK2i2AQng0Sgve0POGQu0Iwks43IGQUKgNz/bWuuYd6ylxGlck1BmNCMiJF6oc6WzX8etoKBTVLDhGOzpoOwS3rr1TipCqJ4bKtQUxlsSCoUhHGDrhloYQUn0+r6N+azRNe6b2zlh7h9lQYZPqGyKinPgVCsdaWuNBTc3RjqCcF4n5LRiK7WikNM2t0bb2KAK31kdQ8xffbt3eGP+CCXANRBEOdwp+Z3KJ/k+ocCSCxHHI+DTq1pFgsJUTRyLBiOh8fFz5+xpgm48ALS0t2AgGU+fzzz+fs0DygXsIzHpVCB6P5xe/+EW23aK0dTbsaN3I7SFc0PWa5mdHsKk9uKOsYHiCykUsGmxt/L4oMNjtDFB2kSUUbmvtqC8pGk4/gENtdTa7M+AtxwG8O5rWuNwFfv8AfI+GHasrKsZHosEdjavLKsZt27q4rHJca3NdONKBNHDWjNxRwUPECY18rgzkEg7BF7M1169x+gLu0gqePdMkFciLBDZb84bl/sEjJJ8bqSMuqkbH9i2xcMg9cghJMq5Yx8rV7lGD7F63wxUN/rA2MqzIXeprb2uJbKyNTR5Qt6nOJwWjY11L3lwfOcZTt75j+bJg247YRocZZlON4teK1aCZ2O4jqeiEyy69+lrLEdP8AX+cM9bWR9ZvCO2zl5dS2qRP5rcPHuIcPsQF1vPKGy3HHxNw2W2ba8NLv+s8YnrgiwUdhQX23Ue7/vtC85lnFq3fGFy4pKNsk+gRzRWK2hrqN7S0aytg29GwKlAw0OUyjmK2HdtXFhUPsztUdLU1N673+kroK4hqba1bXF4+BgngQnvL5oUVAyfa7c7mpo3w6gaYba3bgAh+f2UkJHiK5iL2llA18QObfWH+8Pzzz8MhCsdeddVVWPbSpUTsCy+8YMyeqRBsxcQMxOnUd1+m4GuYClMSd4VAZUJUNVC8IBL/+Uk/TfotsWKcPVllVUAiQbxkDWR8NAoXcfK7SEz8X7yItDhGsHTpd2OeejIUCCy49jdRpzlTkzPwP9E20xZQOYaWaQP1lVJqzgAFw+FaYbBC3ehpetnt7O9RG6l2uDGHMUoXov2pvutfAoHCiy++GLxbLcCcAEaPHo1E3377rTrHBQE8+eSTDz/8sOom8Xe/+90PP/yAXWM4LdhY3yyFYOkNWzHhl6W4uDhLRXQDLPqho6Nj5MiRfr+Re3UDXtezvPqqNGOGVFkprVsnKV+XfdiMGDGi6+CykgMnT+PbQa9o6mkzK0WmAdRkDgDfbzD1Ofnkk3UaHqyFnXDCCbAF4gvWQfjqIJI0SrFOgj1oixYtevPNN3lEgtd1rDYgRDdAtbe3QwGFtQhriJlIAZHvq6++eu+991j2q6+vhxyoazJqCP8AoIGXXnopE2Vaw4BKGk6L3377be4cbNx7f+7cVq9XKkvYOof9TGBY1uAymgIfaM6cOfAYwlDhVAFbC7GxFgYEjz32GGyK4WMqowV2Exi8/APlkNmcANCz2AeTGjZvkVm/Pt3pYGpojY2N8MMOy1OgGq6bbroJrtjvvPNOoPu77777d3FhHlJeXr5x40Y8U0PLVCzmQrCGeuihh1AloN1vf/tb2H7fddddqBW+JdcKFAIPqlgs5y1EmSo6BRzQIZyUwWc9PhMQ6/e//33n1KlXnHhiLWjigw+4Vl988QV4be+Pk2AEb7zxBnoM9Yd08L//+7+ow29+8xtQI1aQsK6KcSlF03onCiR6/PHH80ZfE3mRRyj1IAyuEzShFRUVWkeIoHVEwUAoI5UuKyuDcDZ79mxAQx+BHk499VQAB1VgIg5HdAhHxcBRoIddtmxZRgq1BIJvBr+oXBzaC+xHx6F6YMAzZsxghwCoFRgtSAXWspYAM5Jg4MCBqBW+IqCtXr0alHnciSe2dnR8vmjRcccdh4VL7ivs4oDECM9O1dXVGSk3HSDok7PPPvuf//wnEmMcAFOA1PD5559jEMA4CW7Sa2wiRW2xeovFXHh9RhoTAoCEDQM4sBAtCMyJwWm00huQAAmy0blANTa5Q3FsjafWBN8eWMgGGilamI0o7IiAWTjEQhyMAPiom9obQDuEw1IwG+WmhqkO5WAWoEytt3rwrGuuuaYPtyuhx7iLUDdI/yBajAO9xiZS9Bu+lDoPNhGBSkpKgGGQaDETUKGgJdq5M9oDkQ4MEqN/ipK6FIUBnf3vAstRFj4tpB3dfgMIP6DP3kQ1lrPxRKGwgAJlYhTSVQBcAGvkvYlqaq3QIUB6DAL4WDq+gO84fPjw3qyV9nOjhugWcFmI2pj+jho1CoM8jCm1PLRL6JGlxCYEgJKuu+46sGEIIaYbgjFDPeecc4Cdl112mZYqelJF9NQdd9yB8RpSI1yRYvsB6gDxGptvegK2h3lRK8xGvvnmG8xGMCeZNm0aTAAh2k6dOrWHkHuSHaMitiJh7otpANg8eBBqBfbfZ44LNI2BXAB1+dKlS8EfsaEcahJ8RygVtcYEPWl7RvJiaMKcDSIZvq+5GhRzPux6+c9//gMGAyyH2gc6PtAuprwQ0x988EHMAiHMQaTL1HwUDAPjIzePlYmoHKgrU3OM7nUcasWSIiQc1Ip/9nmt8HXQVzwf41rhJ3R0vXJaj0VHYiwC0iMRKoMq8U9UMqdsxsBYMUtBB2IiZ04AaADGemyAvOeee7g93ADWBiIWLBDqrcGDB1v0Rz463wO53QNJCYCrjT3BM2fOhCoG+gQI5eD3e++9Nw5OPeaYY/qWN+d2r+Zr1296wIIA+k078hXN90C3esB8EtwtUPlM+R7ofz2QJ4D+983yNc5gD+QJIIOdmQfV/3ogTwD975vla5zBHvj/nkhfaUGHMg0AAAAASUVORK5CYII=;" vertex="1" parent="1">
          <mxGeometry x="180" y="100" width="256" height="213" as="geometry" />
        </mxCell>
        <mxCell id="nqBrUfsvDNbjU66Rz_OZ-2" value="$$\frac{T_M}{T_c}$$" style="text;html=1;strokeColor=#314354;fillColor=#647687;align=center;verticalAlign=middle;whiteSpace=wrap;rounded=0;fontColor=#ffffff;" vertex="1" parent="1">
          <mxGeometry x="280" y="313" width="63" height="40" as="geometry" />
        </mxCell>
        <mxCell id="nqBrUfsvDNbjU66Rz_OZ-3" value="" style="shape=image;verticalLabelPosition=bottom;labelBackgroundColor=default;verticalAlign=top;aspect=fixed;imageAspect=0;image=data:image/png,iVBORw0KGgoAAAANSUhEUgAAAQEAAADTCAIAAAAODzE6AAAAA3NCSVQICAjb4U/gAAAgAElEQVR4Xu19B3wcxfX/7nVVW5Ys23Lv3WA71BACBBsMJJT8IPDjB/yAEP4BfrSQQkiAJJQ0EgIJPZTQCTUQiA2mNxuMwTZuuHfLsiwX1Wv/75u3u7d3O7t3kvak0/n2s1rtzbx582bmlXkzszNqPB5XClehBvbjGvDsx2UvFL1QA1QDBRnYD/ggFlNmz1auvFIp2HxZa6uFvpCsWjIL27dP+eUvFXDYj3+sDBqUWZrugProI+WII4jOOXOUGTO6g4KczrMgA51onh07lJoaJRJRPvtMmTq1E4iynBTqH6w/d65y8MHKBx8oPl+W8+th6At9oR7WYB0hV1WVm25SvF5l/nzl2Wc7giGv0xRkIK+b1yjcIYcop51Gv264QWlt3T/KnGkpCzKQaU31bDiYgl/9SvH7lZUrlQcf7NllEdSHw+E777zzlltu2b17t1Gc+fPn//znP3/nnXc4pK2t7bbbbmtubnYub0EGnOsnj2LHj1fOP5/Kc/PNiolvemgJH3300aqqqlmzZkEMuAj79u3785//fO211/7973+vq6tD4N133/3vf/87rQzI3aNFixYBI7AEAgEVKqRwyWrAt2vXlHgctbN02bJmjLrk/nXccRMfeii0eXPDTTetPvPMLqMXY4/l5eVjxoxxznH79u2bNm2SwgADLo/HU1NTM2DAAMB88sknN954Y58+fdavX48ocOmaNWuQRVlZ2dSpU5ctW1ZRUeHz+UaMGCFFaA6Uy8BP/u9nm94jSfIUJhDsq7BCibwZj3kV5cazf7tcLbYHzGqMqqhqeMpQxe/bM1wJFyuTh20sL26qnVe9e2W5NeNrqiZPa9n119fWfzj7NmtslkLAo1+bVvLIIw8443/66ac8TTdX9UGNpl4LF7cGKy6bOHFiUVERy0AsFvN6vWB9Y3AfIRASpER4JBJBL+jiiy+eO3fu2rVrISqpGE2/5TIQ9IYGKEMdkhWiUAO9FDiXn+GlUu3XT+ndLXWi+gOKR20aNCke9McOiLf1VsYdoPQrb1i5b+SW3f2tJD3Zd+JjqhpTPdXWuKyFxOMxv39LWvTocMyaUTRkoIQni0uUspqjcRlIJkyYsGDBAij+6upq9PvR+Rk6dChMAfyEpUuXnnbaaSeddBJ+NjQ0bNy4cfr06Q65S/IDdEQJ1ys7+yhdWVEOROZoVLPi+5t6IPpCO5Si7iFRVbxVfTDe31rhiwU9sfJwvCw2oKh+aGjnVm+NlKSwR6JlpZDdEhiLxyJxSa8yZpnhvuCCC37729/OmTPnJz/5Cdxi6Ptzzz335JNPxs8jjjhikLhQhMbGxmOPPda5LHIZ8Cq+Uqi5wuVYA22K92VlpCNI1iPjPrSVN+5VcKvemMcbC6qRkCc8oHJvdNjO2p0le/aGsk6EexlElRhuK76YJRD9/pvh3OsXBACvUP+4zMkvuugiK7aUELkMoI8ZUILOib0+jy/ga21qSwJTlUDQ39YSTkkbLApEwtFoJOqMsxDbzhpQ4xWlSsAfLvdE0WBlbaGyyOBQ/Uj/jqNO3VX5X97b/n7Ea2+NbSfO7gSPKnGpHUB49siSj41C7JoUGheSXkWloXOuP/3hlXdOn3EAA8A1ueDm/35x1yOvNj1x9i++a0110KypD6+8439++V9Ia40thHSkBuD/qZ5o0BsNeSEAMciAP1LkD5d54r08il9RFRqySnMBKA1E10aD16V3LJt0ymUgrsQiSrKC1+ti4OgBd3586wFHTfz5Cbd8+NInHAzf/MHrnljw+iJ/0L/onWXWenv/+Xk/n3XzgUdPuvOjW2pGSnw1a5JCiHMNqB6vigGQ0kC4LBApUiNFSklRW6+i5mp/vL9XLZY3bBLKMXs237rw4Sm71jpn1JWxMAIRmALLHbX4Ay5SJa8q9DHLFclwUuWAit+/fv329TuunXXzxuWbU+goryxtbWpd+vEKKX0bV2y59vibtq3fAQx9+nfPKIqUsB4ZCMtbFMINVzga8MQCcdwhX7jU1+ZXFZ9CNsK5XIi+dOUrB+9ceeHqOR6ZG+qcPEuxcAXA7ta7G+yAtISo9ivvvdgf9P3+f/8abk3t8cM3GHnAsOXzVzXvbZEmR2C4LfLH8/8WLA4AT35MvYkOR3d0J1TV06vc06ssUuKLlHqixfFoUbw81FwVbCzyqH7Vn3ZiB0Q/OHJGTFUnNaz/+g6J6bZrxKyGR+ISIwCzkFU/Um4HwkrbtvjGlNJOOmLcoSdOf/Gv/9m9Y4+1IoaOH1RaUbLo3aXWKHNIw449L/31P4ecOG3SN8Y5Q+Z+bJnS9kB8zoPx2UMUSYVkl37MDYWg+QPRoApnQPHH44F4sa+tzNfiVRPjKpPHbD/+qJXjRtVKiVlUMXxe5TjI8PmrX/fmhikAr0fjkjuWTT0jlwG/Euivpn4UcsJFx0ajsbmPvyut0HGHjIJq/+LtL+Ew3Pj8j19qeOSBxX8ad8hoK/Abj78La3fChWlGba0Jcy3Eo8QHKvsGKfvgkXY1beDc8mLckWI1XKzGimNKUbQ82FQV2OtXE0pz5hGrrrnw/aMPlff444oKUxBRPcMat8/YurCriyDLLxpXI4rk7gY7IMhL6lCGSoIHHXfgppVbajfQGgrrNeHwsU17m2PR2M8evfyT1xa+cMdrg8cP+ukjl/n8qZMy29bVblmzHaYADrQVTyEkTQ2gFxQMqsFgtNgfwR3CdIDiC0Zw9/Y1VXr3+TypDOOgQ1eXDXirPw3unbP2zVBUPgqShh5Xo23tQDr3pjNUyO2AFeOAEf169S1f/+XGuMwsYZ3GhEPH7Knb+7+/PvNX3/3Dv+9/45Ebn4bADBpTM8A6ChRX1i7eUNandOCowgCRtabTh6h+dPj90ZAvhhs2yK94/VGfP1rqa+nlbfa10yg9MuLYFm9gQHP9dzbNS593liEiiicsu2EcspezXAawVqJO2WrOFdyMn1DhUlJ6V5djxLPv4Mp/3PhM3eZ6wEBUdmwki1GGSRzLtW0t4akpyIClZtIHYFVNSYlaUhwp8tAdUqMhpTjYhruPrxF2wNwXYmwHjt962bkff/2gdVLkW4r6vDLwYESduf7d0ojteIY0reuB6AtJ71gGcx0dJkY+T4yx0d5KlRlpWUUJflongBlm/KFjPF7Pe89+/MU7XxqpistoFU3zXskXDDys1KtKsrCxwyXZfxJiSDSOHk+Qxj/ZDgQDEY8/VuptFXYAbZqk2kYNqccdiaoffDJMWktPDDtq/O6N/xx6RKM3zeIAaXIXA6PkDEj0MsJdzCUFlVwGsFZCVGXi8mJdCtbShSNSUiYcRhPyrz/6jhGLodL+w6qb97VITUc0mtpnlaItBEpqAN5wSSjmgxuAVlJiQazJVEoCbegO9fFFKj1RH5qunVdDoOTyr12MNfjtTOc+eDTuwW3FG5MFWsE6FpJpfbU00keowRDG4STXhMPHYOx/yQfLjbhhEwf3ru71yezPIQbWBP4AecNtLd3vhFlpy/kQjIrCA1AxKkoy4I9BBjA75vNFMU9Q5sH3DA4+sG3hckEAQByMQK7YAWtV1W2hXn6fmgprVFFZaPikIXWbdjY2NBmxM879Jlro5btnW+ERUinwsOcgBegpgRheBMd1hOnaX0LV5/WUlipeT1tZIO5VI/hoBzYBo6L+eEWwCYuFenm95WrIp0r0aPtz654UMAIRmcqPyTpIbpEotwNhpXWbUtdfGWJks2HZZiz8HDSaPmNLuSAAJb2K4QHjQx6OGjJ+0Ik/mDHv1c9wp0KL3/Cw4TSvW5I6DScFztnAvUrgAvU48OEOpUs+IlMxA+yPez1wBuI+FYulqZPsjeMOeCN+TwRLJPxq6kh0ztaelLAo2QFJEeAoS+FdCZTLAKyrWQCQU/22Xeu+3DB8ytDi8qKmPUluLjsDmBqbeszk1V+sG3vQqMvv+v6KT1b97pw7pQOpEJgRU4au+HTVnp17XSlDdyGJKepWhYYKuujyepRysgPhEg/sQLSI1ml4QhHYAUyNFfnCAfCPS1cgFmnzyHnDpRzkaGAEpP4AZEOewI1Qu3Kmmndw81tPfnDR7/4HjP7Bi/PNWWP6DEOiOzbtPOPHJ1f0K9+zc9+zt7386gNzrWuKONW0Y6cgybvPfmx8CepGQfYDHPBZsUWcFxaAjAB9yAyPwBNXsGSORokiHuqXdfbq37zr/DWvl4WbrjvwPPT0OouunemFHZCwO9RNOzG1A9xOBiQoXrl3zunXfOeU/5v14b8+MSv4x36jbV32nwfflCRLDvJ41JMvPX7XtoZX738jLXABgGtA9fnUQEDBKtHSEAQgXAw7oGBaAFeoKIxR0UrfvhKsGFWcRtuwYmL8qB1LV/W99/FDHCp2cNOOY7d+DoCDdn41vzLNThAOeDoWFY17I9TJS70Qnhrk3m+JzNkhRxforisemvyNCd86+0g7mLThSDv5G+Pvuurhxt0JBzptqv0dACuxfF7cwhMgAaAby5W8WCQd93pjATWC29kOVPZumjiqdmhNYkcqaa0u6DP6sz4j4eRcsAprql0wLNJcpIHIDPMAMAXWO1fsAOh+++kPhowfeOU9P2hpbMFnMdKSOAR+47uHXnH3RbAb7zzzoQNYISqlBmAE1N69YvSRWACsHy6hvlCkGAuflbJQC1ZJ9PPtLvW1Bkyr5Tpch0D64MiZU3etHrN381HbF70pVhN12QUjIB0XkjoJblEl7wtZx4U4P/Tg0fXf/NXWS28//8jvHvrw9U9tWb09E1IGjRlw7o3fm3zEuNv/331zH38vPzwBKOL+SiOKj3EhrHLJpB46CIPOMPidbjEFTD/FwCiFxaH+hYPgms5e1mvwe30nfbN28Xlr3vigekKrp+uWNpIFkHV7usEnto4LGY0H9n3jsXfn/fuzw085KJTxx8HB4uCCOV/cccn9+xqIafLjwvcD+HgAzPdD9dhV2dlfCJ4AVokqpSXx8pJYyNtW6iU7gDUo8ImLohCKXqEWzAz09+0r9bZgNSlFuHE9PPLYw+qWDW6qm7X50xcHH+YGyoxwwAiEZfMD3TA2mnbaZ++ufbMfeiujYgmg1Z+vw505fAFSqwGwOb6LpBsvwg7oFkC8kBGgWzgILlba+pLq2TXTv71p3tnr3np9wNRGXxfthIA1EVGZGGd1jiybFtzFNtlfUal+n1pWGi8rjpQG6fP5Yg9uzAzEiuLeUMQbivb2N1f48dlAvNKLvSTcvB4dfkyzN1DZuve4rfKJTjcz03FhYJSXDFmeuTE2mo0yF3Da1gDGgsgIeOnsDMwNo8tPHX8xHATFRfuq0BofnyeGxdI+jBtpZsIWH0eEguFBA3a3tPrq6tPM7tUFyx8aOaPN43+15mtpkLoXDdaX9oVyYs2ce8UsYMqoBjAW5MFxASXF8dLiWEkgUuzDIjnsoQIBoJkBaP1gFF5xb39jsS/cyxMsz2wTxSljtz/0u+fmLxp03R9npqXj2SFHpIVxF4BHRa04u8EnthJRCOniGhBGQPME9F6/SqtmtOEgqH3YAZgHLKOOtaujAMTkS+TkJdbMSdz6bpkfyNVKysmWywpRwYBaWkqfCpQGYyW+aBGWQyi4YQdioZjqjReF2sgO+JoxQ4yXrNDQ5UjZDbBmm9X5AblPHFZatikbrKQUQrqiBqCo4QMII5AY94EbQJbBmB/QYrB2zqeiU5Qfl5gkFsvmUu6sjgvJ58j8SjBl3Wh+1LG7pYCB3qSUwU1tc3WCzBMKYdsItbQEmyfGi/3RYp/23bBuB+IB2IFYiZ/tQGOpt815lYRbpe7TtndXoDSrC+moLySrzG6ZH3Cr3vIZD74f+L6a3rNsRxVgRSG66jACfl8cS0R5gZC+UNQYF8IHAxgU8ntojgx+MlaMpp3PaQcNMlAspcaWjCdsnv+LA877omK4DMSdMMyRyf0By8TZnj17fvOb37S2tl599dXDhg3j7J9++ukPPvgAZzGdf/75zz333Mcff4yvdn/605/2wxkp9pe8L2QPX4jJYg2oXh/tmwIjUBRSigKxkB+7p2BVNN0BlT+fj2MWwB9XsKucP4yN5fAdfamnJdutiH24xu7eWBJp/f7q2Vn1Pay9IA6x+sQPPPAADuTDiRt/+MMfuEnq6+tfe+21v/zlLziqDOeanXLKKYiaOXPmU0895dxm2a4959wLseYaULGPNCbFYATwnQAO1xBLRMXMAC8U1ScHYAQ8mBbwRHHzitFs2wGc3fTQyJlYTjexYf3h2dyclPpCshvhr7/++j/+8Y/FixdzlS1fvnzKlCn9+/fHKUy8/AyH8+EEPoynjRs37quvvsLL7bfffs899xx//PHOfFaQAef66apYdGvQaBgLggUIBePBQAzniwVxqgw4XcU0GD6c1++4xx/1YKDIG8ZdqraWqa1d0IroAs2roi1iL1j9uh8bpGfnorXTFodYhKijR4+eNm0amJ5zxpmT6OeA+2kQWVwIwVF8eMHT7/dj37dLLrkERza9+OKLzsR2Qe05E1CIpRoQvSBS/+JmCyAG/2n8nz4ZoyFRWhUU178ZoB2GYAdwChl6Sdm2A9xID46YEfF4h+/bNmMbfWSTjctGADwYF0Knf9KkSX379uV8Dz300FdffRWHco8cORLnCKP/AyOwcuXK2trahQsX4sS+1atX42RiOAxp6SzIQNoq6goANeD3FBWpoaASJCNAh0zigBl8Ikm3GsUXYsIOxLG/tD8GDejzkh0IefFpMd26KswuqbQ5ab8pyOOcNXOztDmpWDMnua37zJ111lnQ9/PmzYPLC4OAY/lKSkrgHtx7770//OEPcRgrjii+4447EH755Zc714t8bNQ5TSGWayCgRI+Lr4MlfkcdtDvd8W12lQYnGFHUC/L549h2CTtHBLzo7GPcB10g7B+BeeC4TxE3jABGhOAvkAUoAusrcWy0VWT0BuzysIQPHrD7wu99urcx8MwrxNOZXw+PmPHN7Yv7tTScsunjp4Z2/HNCuxzJDsDeWS7r2Ch6O+bz9vjwSXSWcHFqnM2Ky4JJEiDJTwJVCJLVQJESuVT5/P+UhX0VyX6SshSSMPpWGGKAGwIQ8CkBL7ifBIBYnzpCCYdY84zhLcdw4/BJuml4tN1LH2r67j3rpEXf/lZiTzQJZbKgrUUVLw+iz5FnbP0sG0cW2PnE3TBHlrsLSmQN00PD4AOAeeljeY9KT3gCmBYgGWAxECuBhBHQXAKSATEzIHpJEAA4CEHsxK56u3KeGJuT1gfKXhp0aDQLm3mJDXcletnaF3Kx0eV9IbFWImmPLRezLKDiGsBIKI0FQf1jWQSPh4L7hUMco1sYAXaIhQWgzVSwoxZ9VU/x2E0IzILE2HixK3UWpoqfHPbNLDUi+8RW5N0gA4W1EtZmcDGEuB9sq3E/yUBcTAvESAYMARB2QLA+jQv5aD85LJWDHQiQHYhghhhLJLCzoq9r7YCL9WBFJfaVkFi1wtppa1317BBNBuADwAKgCySe2qQY76NIWymapsb0OTIYAeyohVFR+nRG2AGsrUNkz64OE/XkD5C9S726wQ6kklD47VINkAeMCxNhuDASCguArbw9KtZEYFoA/RuyA8IhFvNiNDWmDwrRwKjHF/N6MGqKNULRYpWWyuETApdIywk0NDYq21q0IAM50TyuEKFC5eMSfSF8IUkWgJ70vTyWxPGTv5a0PsmBxveT2meVmD2LApek3+AKoRkj6d3WWBRt3VokOc06YxwJQPC69LNJ63qhDiC3SyL3ie2gC+EdrAEcpMceMDZKIT84QJsFBWEBPBgPpQWhmBOAhqc5ATEpJubFaDhI3HAGYthUxRf3CjsQ8kbgD5R4sHYaMtCddgCnWV6y8t9ryvr/aNr3O1gzycnsfWLJYJErOQJJQQY6XpNtivclZRS4sCGTCbIkCyDsgPaVDNkB8X2M8AHok3nzkz6aodFCwe/o+YhNtWgJBe4s8kVmtYIxovJw09T61QfvXDG/ks4i6uTFh5FZkRT6QtY6yYmQZsV3t5puK0JoffYBYAFoPhh2AOf50HE+ccyIiVEesHYM0wJiNoB8AJ4V1v1gniNTfBgUwrgR24EwBoVCKuaJu9kOLKgctbDPyGn1q3DKNzYq7fyMgW1fSOYkuMUE3a5K3CpI7uKhpQxC5eu9f/0dc0zs1QpnQLvZIIgP542bDrsRd2JnRRo0olHT7i02aPr7yJlg/bF7sDmptqq5MyRBBtgUpDyzagcKMtCZJnNKC/cXm6N4sF0uvo3EXUQ3WQBaGu2jVXF0wDCvjaOdo8kC8JNWyGlfzPB6aQwNkR3wx/3+CBYL8SqJUk9rmacrVk07FVJRlvca/G71JMBgc1J8buYMnDaW1wtpz5j4qlg8CzKQtupyFYDXc+JpvkEs/TSe+uAOD/GQ+tcXAOmDPrylCqWjRNov+sieHOLu9IlBErLHVlxYUz2oqe6EzZ90siXIDtAnBOJpvGCwKJsDYAU70MlWkyQnCwD1zxYAK6LxbSTUPzwBrIsOYF10AJ4A7ACNBYklopgWoJNkeJk0zp3HWFDiixm8x2mS2BfD5ABmiDFuhL13cfMR3bqYSMjosqBNxVWv1hyE7M5e93ZJJ075hjgR90PxW+6CHeiy1nQ1I9b9QMkqn3Fryp7+aQpchCQpcytfayEEpZkQkah7B0a5QPx8fNhRTb5gcaR19N4t5vD2vgufWH63F1Xm8IWx0czrKhWyRAn/NP4J+iR/Uw/kw/noczCx9oHXAtETPAsjgKc42jmO+WAFqh1jQTheG2P+mArA18HiuHlW//zhmGlmgFcK0Qyxj2aIMXRU5G0T40K0vRwQ58K1I9Tr5klnrigfiCWlnaFHzA9IipRVO1CQgY43GRj1YGUrxjAfViYSFqPTTzukyG6CEX/EvKTGU58aAJsO81Ns6iPGhWhoSN94V8IsHS9NZ1N+JL427uSFz4Ol7J7VTY0KMtDJVtOS4ysw2hXC5xVHR9JBwjQSitWguh3Aqn+A0vpQ2AHMCeAdy+PAzvhiho6bFyvkMByE8U44A7xWVJsiiHu8dOgYrSfyYle5GL4gC6pYL0RZ55QYdL4qc+j7gc4XZj/DINP6CVOga3S2ADrnanbAxMhWr0DrF+icTsaAxoXYE+hsPwj7tvSr2heNqWn3Ye+y1ozbDIPCPmSPhoIdcKFuofU96PTDDmBREEwBlsFpdoD8AdL9mAlmCyCsAcaC8ITWJ17GylDYAf5mUnwxY8wTi0DtswG2A+wPYLEQ1hMFhQh0hjWq+zQ+fvszW3aUnnvVGS7UghsoyCGWLQGRdpDcyJBwyMdGI0q4Nr5pR3xzvLtnIt0qZ1bwGIpY2vunwJSefVKIGOURI0LMyOZRHk7IURSbGENiIyCenEHnSgbEWVCxRdE2fHrfAcrsBoW6wQ5gcj+oosNpNEUHipPXScSntB6fX2mjYmL8h5aCQv3TmTGGHYAFoLVA+DhGWANhAQCTsAPkCWCZkLAD2hczxodjWChKHgKOCBafj8EO4MbkAPwB2mOUnoSqM3YgSy3Ut3X37Z/e17+5/urAD9q7OWkMSjepR6jRKA10i355XwjN2EtxZ0W4W4TmCh7ugfAiUHzVxRetBTItCsJPsbLHWA4kevGkUihQ17wkADzZK1QN/Uy1G4mTWAU+vmNYN0q3jQ1vb0VBtPAlz6SJQyZPHmxNu2LF1k8XrLWGO4TgECfcA5rrj9n+RftlQP79QFbHheR9obDStl3Z5FDO/TYKc8B046g80v3aKXg0HAQHgHeJ03cLFdvFkXsgPpKkZaG0NFrsmCK+kxS7BumLQ+mLYdnN545hd1F8NoBbfEWpfV+Az4gxFCVsdaeuaNQTi6knnzztlO9Ma2kJH/XNcReef+TIEdWhoA8vA2sq2osd/HrP6BN+M/msO8Z+p71p7fpCWfUH5HYAO91UKzXtLUCew3PvX7MApOkbvb7ryk9QvZ4t/t7UOdesAal/uilEqH966hZA6BzugbPiT1H/CVMAOM0skBIUhkQzBXCbhf1ggtyp9SGDKm/+7ctffLHh9P+iVQ//mbPok0/WfPukqUuXbe5ABjjlG3cHEtL8gOxkqW7wB0T9y01EBwqWH0n4M0iaBkbl4KniBBjfF/7Bxkfxwh8QLgEEQNsvWnSKoPLFEwlTniQAFJtsBLiDRE+xXlrsMk346DNjrCjl22UZuOyKR1tbwwMG9K7sUxqLxVcs3xqPK1df88T6DTu7svnA61J2BzHZu+R2IKJEdin1FYq2v2n2su8ZmFMsAIgmNS8+A6BevskCmHQ/R5HqpkBTX19mBwyboOt+UTFkB9gIkC2h6WE2BcKPcLfqIABAOGZ0f6/Xs2Hjzj17W/Bzzdod7uaSFhuMAOYrrGDd0BeCKitWSq2k7J8hqRZAtwNkAcDfpPh5RIjsANQ1MSxe+KnZAd0CsE8sPqXUHGK4AbpDbKyCoBcxKARBM76j148ijuJrehiPbLTFhAnUAV62bAvv6J+NLJxxgtdt7IBEMJxRZR4rtwNQXEGlKHMseQvpET0YbRsIfTMI6ifyt2C6NdB6QcT3JAbE92IdBKt/dCqFKcCFkMQTqA0AhBOYKQRcToHCDuC/B2NBwm0mpxojpK5VOZZgYFyIe+Hjx5EMLF3WqbWfHacsrtj3hdwrsIU+u05/FrO00JCzAdgNghQ8LQRKurnTr4sBKX7qs2sCQKzKXRYRkui+JEY3E30anek1U6CJBHGCJhLCG2YBYEwQA9p+Dl+YuHRFxLgQkIVC/lEj+8ECWP1gn0/jEx9GusSFlxSXXITQmBl9Oyqk3gBG/ypDYtHvlw4NSa0ejiTDITRmzNiEfcuWLeEw9evwxHtjY2ParOV2oG0/328UDaiiMUn9Uosa2wGxBUCl6hMCGOcEv0Z5IIjFQHsXep29YeJs6s7j4id3+mkIyN4OcKxwOmbmE+YAACAASURBVPS1oiREbA1kW7Glbep0AMOH9YUYNDa2btpUb8CWlAQvvujoww4bddfdcydPGnTkN8a+9K/PorH4SSceuHDh+j/c9iog+/Qp/b9Lj4UnXV5eVFIcvPOu1zds2Pmjq2YB/pc3PDdx4sATZ0259dab0uUv6oeUgQyQqiPp+vLLL//4xz+Wl5fPmDGD91iPxWI4nw8H1eBQpr+KCyKB8ziuv/76sWOd9ryQCyg+et3Pz2YlCwABEJ0ckxFg3S/GfzyecqXtn+v+9vyq24e37SA7QJIjVfba2KhQ/6KDpLE+j3cm+wMmwdDGhQyUGBJlMciCTwxNP3MGfRbc0hoW0q9doaD/iac+wvPs/z78kUc/2NXQdOopX/vo41WYO/va9GEAgo6/4Zcnl5aGbr71X5s21w8dWrl+fV0g4LvrnrkwKZdecmxF7xJERaMZff7PfSHZM1kCFOXRRx/92c9+dssttzzzzDMct3HjRnzAd+2111ZXV+MAjquuuuqaa6459dRTcTplauLk33IZgEA6J8vTWKH+eemb+an1/pMEgCQEc2XxSCCOUxupz8PdHn7Rf0LTw4yIW7C+eCYkgTs8rPK1zg+PGgFSjAhp40LIWUiC6AVpyyncbYKamoq6ur1/f+jdF19aMHJU4iTTnfX7IABFxQGEt7VF+lWXv/XOsnXr6oYOrfpq1XbQMGpk9aSJg/796hewA5hQW726tqmpbdeuRmBbvmJrcXHgwYffXbW6NkNqqS8UoymClBtSgQNmcMzM3LlzGRV6QTiXKRQKtbS0sAe/Y8eOqqoqxOIk1u3biTac0fTss8+mPZNP3hfKkOL8AiMtTpfYEI40vf7O40LU/8HFXVtjVJSrQJcBYlWYAtMNPmatT1aC+JuflIxY3xgR4hdTYEIAhBVhA0MfmZEY8DSDm9WP3svjGz6SYpw4YSBU4uIlm4YOqYS+X7x4Y0VFyZDBla++9gXghw+vRj3BLPTpUwJheOGlBYykqrJ0xIjqohC+hpZitQnk2T9rZEy5+OKLjz76aCOmd+/eDQ0NRUVFAXy3LWq1oqICIXjBIa04i6mpqenKK6+87rrrnA8nBrxcBsRaiZ39lEFWYvIxhEZe4M6xaqfev8H9CU9A+AC4mPuFhAi/lS7hDQtFLabGSBLopwgX/Mu8rskDwxOqxKSB3jsyekpidsx0G1uyix3maKdR2nPajcs8LiTFN2nSoN17mjZv3nXqydPA0MuWb6nuW0b9RK/nW8dMgP+AVKNH94MA+P00jHb8cVNqBvQeNar6scc/+PGPTjjxhAPWr9/RmNl3xsAfl3WarHJ0+umn//73v0e3B6cUb9u27eWXX8YRlOB+nFuMg1lxet8VV1zh9Xo//PBDkDd58mRp0ThQLgNircRAh2R5FyWMALGsfjPHC/alQFz8TISLQL4Et4q0BMZMr//UlD1FsZonVPq7UP/805ATgSQhHvjFHSGyMbqMgFK3LmNcyA4hpguWfLkpEolu3bb74X+8V1u7p6Gh6Z/Pzkcfad78NeggPf7kR1hfBLehfldjWVlo0eKNY8f0v+/+t7dsbRg6pAqOMsRmSGbcRDJgcX9NFZeg8ZBDDqmpqcHJkzizFYfzod8PjocfjKMpcVwfjMMvfvELdJOQgDtIdqVDuFwGECHaM98v0fchZqXxH+Hp4reY+aIeES7q+RjjQiJEyABNhIEftVEeGv/R+VRMjRmdfoQz2+LJ82IGfwOLYHTCobO2ZhlElLg1U8DcT1CaV0DIuqx5/vXKQuaD9z9YiRvvra2Ru+99kwPx/PuD7/D7U09r3udf7pzDIffe/xZe4lLdbqQ3v1CNSCKkCAYP1pYk4Xw+ZnR0jQ44QNv9cuDAzMTOQQYkhORdkCYALAlmI8CCgfJq2l3wm9kaEIMyn1KMYGXDDlAUd+E1LmdeZ541PTULIGKZ6an1+Se9sE+sZ6uDMDKILIC7TAy6rOVpREi2ViKrZbW1A11W7O7JSON7L/m7ZAeEKWDdz9zMT7M/ILxhsgC4cPgLMaDOhMJj1dwAbYJMDASJ3pHmFYjuC1sOzX4If4AFQPcHtLEgcIIQMd0VFmcO6A4x78cOxNrK7e6pwCzlymrAipyqKVuX5tWloA8rrduUjdnKMwfwsgUw7EBC3xsDPoYFsNoHwdmcpMXjb/EEYrSsR2No0X1hdS4EQHvX1LhIqN2G+tdEiVs5AaCtltONii5QwiXIIkd0b+tABuzurBEmtwPiTL6OrP/OGp1uIBadGer3k+IXE8CayhcWQP+pj41y71/0cAz7gPSaOqfw3b6SM6b9FPo5jNPEdFERnM1mQbAqTwskhEEXDCIlVUIAnyQYhEqYgmQ7QCFu1Ecu4kD5pX0hmZPgFv1yGXALe47hEdpTKHiJBTAUv/GiA1MSfqenKBPBEL+G6VNfniHWtHsKZye6+FpCTk5PbtYE0zNyQwx0QMqcSE7YAcYk4vPtgu8rnU+QBrpV+P1DBvjzc9HPSTgA/I5A6srrM2KoV80m8BA824fEWJA+SyC4kmcJtJFLPidM9P6F7scLRvJJJMhEJHkCZn+Ax4LIAmipyHSI8yf1VdP4gIaP66a1EjHapYV2YMlTQbC1A1ks7/4hA3Yag1U+85NZ2TO8Fqsndm4FLZb+We22NcQAk0VpFsKg2oSbaOXbrkw9OpwGw2Q1Ig10q6T5KwOa7if+0XW/8ASoYyFCzD4A2QExP4CLwzUfgEPEkx1fnhnAWmLNDrDi16eveIE/lDrPE4thfNL69nbAiKUXcbNBoNyMyQZhAbAzLz6kxFoJYWny9IIAyGQgq6WVVybWSuTVuBDreK5IVqqa1jfVrTncXOWaEhbqF5fx04CxhltgpM0qDXRobAidNH+HJD0vivtCcIutd9YKI7cDWCvRv+cuFmILIBQ5LX/AleQJCLEXboBYI0Q9e7opRBgK0cvXbQIB8wo1jM7Qu/EEiBKbsnsddPKy3kP2eULc72ch4RGehAVgr8CYH2AhEfaBVLr+FBZAmyIQTrAYERI3LZWjuWayBvSVZdYYopsRY7GQVDdIA12i1aEyLdrMpSyzi0ZT8MnEmwMRQ0wvqHAuYjqY0mjLbxc//IfPH6xp1jZfEDNbBtoE9va1oE3nV7cDeW0NUDirBZCOlrrHRnI74B7+rsEkFLmh9U12gIfz9QlgoeBJ2eseAgmDYQS00SHzuBBrfW0siNZEiqVBbBnwX28bsgBiyRBNFeuDQsII6H5Csj9g2Aq88NgojwsZlaU5A+ILMrIG4ha2hIed0ghv11R6NnIRxZUgFueNZOvKCxnQFLb2j6qK9XHaSjPbBytfmfBJMckaSwqYQaC5iW3e9TLlux1ws1ozqPmev2ZOU+T8mYvW+xd2IMkC8CAP2wpD9xsWIGEKEoZC+Am61jd7AobYINaQNFbXQqlrdoB3TBGrGtgrMPe+tO48ewKEB+SSG0A77GqB+oI5Kgerf/YEhFeQv+NCdmOjcichIw5PD9TD7YBEZZqCDB5NXw8pEIzEjD0zFBJ62p8wKQVrRU03CvRdriczK4E7UDyYYMWVzULbyUD7m99Kd5ZCiLN5sQMyYDtAvyk3tgBimF/7ANJsAXjYR/gD2hCQZgF0T8AYIxIjMgJhwhpoY/JioEmb+tW7Twn1r/XZdWvAdkAgYd2vWQDmZSpHsj9AIWKWiIpljAuJjRbFp2lir0WaJBZlyMcLvC77jiyrgi8fF6K9VeIbcqaOBbNo7K57scy+4um0+IfLYAIWmJKRmJEbfM9gHGVUBIuEwX4OL5TEkU05MgVElsIAJIoEL8igcqatOkeIpgFYDyQ/O4fYKbXcDuBE6f7qEKd0XRbHql1kJ3hdcLDFDohAjhJguAxFjmB+l1qAFHnAT/YETPqekeszA5yRzo9cD2JESPCmGL5hInUdT5zL7xRPCRI2gSBNNwNQiDAFWgy5GIwDvgHWDiFcrrqYmB797I75AbkMdHc1Ck4xLvolQlgGmDvEb41NErE6WCKtjooZKjWcY4VZYCQCQDikRnbmGD29AI+o3o/7jgN37vOFBLwM0hyu06JjEf/NqSwArPgFVGLU0C6fJLQ98wfJvqwvJB0wdauIOSkDrMiZQ4Q+Ttb9HCE4gR46AE378oiQ3pVHpBZiIBHwiSTip6bFtQ4Sr1HWYQT3aTRQvqTjdX9gn7foumnnaUuDDGUv6NKtQeKFSDX8WfHO3C+MRrKhECHsDxgvPNMgkoFeTRnwz7x6JixmcrG43rNT1FyQAeYIUT6DORI/ONSk8jUY5hTBxAQi/pmEJ8HEjMpIxTJgfhKAuJi1CLFJThKxxpsBTy/MxBrlhES/jXcGTyqaHFUCSSIHQ0Y0kTEytKDIiwAbO5BVnzgHZMDEuNoAv8Y0iU6v2RPQOVVnfV0GKJHpXbMAHMKK3BgXAiR13/XhIOZ4wxqIKH3VQ8LU6NaA8mVbofmnuhYnFaav+tTedXlIaDdBtabUDGkxi4fInD8fYypMTwMrC2teMH1yIagjJB0GlQa6VAFdJgOCmVIKjJ/Eo+YIDYyC9D9KpDW6YFxKIeKYd8U7hziHi7QGsOldx5PaC6LmIHhNHkQuumwI8sQYrEEPI0/wt57QbCi0WJFOYKaXBIAxRZQoE7kBCSmjd8oyb31iMRZkvaSBVrCOhXSVDFCjioY1LmrM5BACEXCsthnS3NzErDqMwdCcyoxKGxEy55XgKSEJjMQQA90sUAqG1IklSB2PJj/JaHV6dOmiWLMYpBRaSyxwMpikxa3ECnHTbvExsShDHl7E6zKfWG4cXKoAF2XAplU42MLuzIlmnqB3DYcJlTnECDYEgF807mTGMLGHWU6M+tLo4byMHyIav8zUsrSkVHRScopjJjY/TXKjJzbnY5SCI+2jTOSYTIFuNlLoypOfPdsOWLhca2IpJ1GcroYFXLLuN7GJwd96I6d2gcwA1nfTLIFudnQ7wIQlPVkMRO4aKiaOnmbtzr2mUKztf1e+DsCnR3+jtqS36KZoos08qwkVujJS45Dgcc5FyBEFiv6PuEWECBY/2d0QFZciSQZgD3+hmhKVwEXnlyyX1dYOYOPHjJZmGfTZEUrhyXH8i5mMGzihgbXfkpY04M0vGqcm2FqbIDPCUxAhazM9GioKSnT6jXczciseRQlGw2esec8bj80eMhUyIKFZb0qtArSCSwDpqAFDTkzxwhlIVB/7DpL0+RKkOUSG7PMLC0bWyiiXAXxLWavU91Mz2mIoSYVbCSVOSpUBjVPNwCaR0BW2iBbhSbqfUyHcKgBWrW8WBkrCCFmTCqpEoO7pUnji3YhNzFFokNQ0KcXin8ZIv/jJ/JtsQChPLUQriDYjx4F4cmUJSgUCEg+NF1KMAyPIq6cNu3eDT0xrJTwZrJXQOMyxFawTOhojmlPpDK2xBbOB+GEM/BtMb8CYZEBAmaRCJNRufqenHsiQBoAhG9oLcx/RkCwPnDHjoaehrZjdwbCG0k7wvaCLojSyk5AkCQNRKLrDIgn3iPjJo7XGSIGYI8vPC2Oj0nnirPrE9oNsWkskmlxvG3MIs50TKOm1lPjU36JBzTCm9k21AGbGNVJx4hS+kPCJDmFAphImMHKgQUMqWjNxyYxoRivr2CSgBWRChJLRmH/ptCQJiwhMIcseRc+KYTsgfVoKsnz58gULFuAYMiMGp/S9++67u3btQkhra+uKFStwIoElXWqAjQwQq4kPSpxvgQ1s6nClwcD4ecZKz8uMjTOQIaGMjbxlAOmIJyERMNqTERpPMRhp4jRt4oqZmxKZ4ogSAWx02DkyuWtkYKMm1uG1JKafBjmidsmEiOk7Y/5NOnaY2q499LdmCNkcJj9TSgRev+eee3A004MPPshROIXgsssuwylMl156KU4eeOONN2644YZXXnklbVXI/QE9mamZHTA5Q1FsMgS3txNCE7zBaiwhiVSsCgWuFIRm7mR4xqdRYkYuorXYBFAi0Ey7OV5jehMqU3ESHSFTYNKrKZ2dNeBCAFDcQmTIPUjtPdnl0FPDUR1SGaezOXCIMrbZowule+GFF3DqHs5ZuvDCC7///e8jZM2aNQMGDMD5NDiHZsmSJSeeeCKOZ4VlSFsVtjLAOaVNL5pIzgpaWopNBpAlScrOjFDjBVbYAiUhYwugvaTSYCSheJF14skCkzARosevIad3ps2gUCRM4mkzbYSaLuZNjUNFhuxICM5NLr2ITaoPKYzwAZk0kSDpYupTQ/PitzYuZCkLwnHI0pw5c2bOnHnMMccgHuftlZWV4fQNMDrEA/wDdsdRrYjq1asXH0xmQSMPsJWBFL6Vp9ZCuWHtQARjpb1kvEWJzExsZKcxLbOsI+qUrInhRJDgvCQ/VSPAQqsRYImxzVhAJmnszNOKpBqFNhlopbeJ7dnB7AlYyxBXLrroIvOZfLAAW7duhQzg7BlWoMZxlDia2wxpRZYS4iADNq6CHUrzAgcrjJXFdaOmwZoBeIiTIwwZ0NmIGB+BxMQiyPx0GhvlVDr/EAb9wxdGhacoMVsDTZFzHYgstDEiQRUr+CZf4PYpJ8Nvqi3urZMkbIKASVyEX9xWwdCjDBvCJQOkcAP0mxbj0YmN2vkeGSmVZBp6yK/Mx4XOO++8m266qbi4+Nxzz920adOTTz6J04jxE8eQwUTgUO758+c///zzbW1tgwYNYtNhVwf2MmCXotvDBTNpPJUpMZxGS+mUKAMQI3mr1//CiMP5+wEnnK7GtYdAVzPuGmQ2dsA6P4Cj+O677z74wSUlJegLwTeAUr311lvRI0IfCYd1T58+/f777wfVOKvPmfYMZIB0VcY1bwNJ1soaZQ1xtgAEb1gA8YKLMTMqM8KkhXecygBmZc+WQS+dgYeHgwzklEWiDhO+gaDFrOA1Xc7wKbGGBdDQMuUp/SXdfhBd2sSZc+PlXyyV28YnthY2KC7BAjhIkTgZL3AGGBKsn5b7GTIDGbBm3pUhJv7TsxVBknB7sjTOc0qT2oGxR+ZWjHOOTrS6RUEO4rGxA5b+pZuk28gAlKJd/96qvC30yLU+Ma6sZa26nxGSYtZQl1WUBIIBvc9tyIDauKcZ54QSkNkOJL2LHr0030QuYn2Edms5Jv7ReKRJ6sQr+wPGU9sxRUNI8sk2wQxmxqsZExHEMLpNE0PiWoMjW80fMF7gFVjdDTPmnv5uOy6UzYLZyEAns3Tgucwxm+Tl+kd+OPrAYeuWbR4yZkAg5Nu0antZRWmvytJfnX/vp28tyxxlFiFl0t3B7Cyo9ICE5bCAdDCrXEtmJwNZtQP2gz8J1WjoSPFiufDVYsqdBGLGwxEIge43biPQQC7mRfVgT7AoOHLykD9d/sgvz/orQHx+3+8uefjmi+7HjMmaLzdL8jIl176XN2fB9BCM3qFCVsY7FLKJYFLnegaJ7n5KDSA5EytezEk0QAYwPzV6knt0OgD9l9c0JUMsHSibr1+SsRWUPlOq3b2f2bED7tEHTP6A7y8/euz9VxZOOHhkUWlo9859W9bWhoqDL97/1q5aMQsok8zOkSCYmjnbHlF5uOmet/+G/slPjjx/bUV/e0B3YtKR404u3YzFZs2cdVzIRTodZSBlCD+TbO3YUarZrMAmJ4QOyMDlURv3tbz70gK8jps+HM81X25qa420tUUfuvVlAmAkVlQpH2EypBh111JZ9C17Bdr8gDEzADCzsTQlx3EZg/bV4fuBQDRCmksYAYE8+RYdfLMPkCRdBrBIalxEKd/kFWB/RbHnLh3ElOgRJafIh18JbyilNNkstJMM5JriGTd9GGpmxcJ1Tq3dfqL302FIp0rsvjibsdGsCr6tP0B7k1iVq1E5rNetT3PtmTv9hrY2J2Fg7r6LJ3S/cVu78uOmj0CKZQvWaTvmWokBEgM/x6pqqCR4/V3nTj1ijLVvQyMvBO/YAScVnhg4YmVvPDmTVB3Pql3Ecc/WoDTJqTDshkaqDkWFsNV7iGRfysCZTy/sE0uf2Sum3A5ElLYdkU2o7kpfjeCRDC4HgbFLTYgN5KZcZBlWD+pT1b93NBJd+fn6BD55piK9jqSisszj9dRt221KZUNQSr5y5JmllUIl409ic1mRpTjyPDBFZxiltdUJLtSHXAbAQT7VL3Qq8sisfZw5xhoLrKZAmlIwLuu7qo6dNhyEbNuws6FurzFuArNxxIkHDh9X8/wD70w5bNTYqUP/89THFdW9Dpsx8f3ZS1Z8saF3Vemxp01fuXjTto31mD8/4rhJQ8b0e+HRDw88ZOToiQNffWHBts0NWrZEj/kW9HCIgEhS9glaTW8mYE5LSYximcqXlDoFxg5MmmPeBZL9y3ie2K3Sy/tCEIAKX/8Kbz/bz+pJPJLvDCniJqeWNnOH/m5miGSEUw4fjYD1K7aagycfOqpqQMUZl8346Z3nlJQXnXTO13957wUjxtd8/fgpF/zkBEA21O078PDR3zh+cjgcnXLwiD7V5Wf/v2N++tszQkWBU//nsFP/+zDB5Z3nu85jMBXLjExoIdNtpyczrP2cB4vR7gLSO3uky2UgHGvdEdlom6tVAFLYyArAuJLCNfRi8MmQASFXZmDxfsiMyVO/MW7H5l3oEQ0eM8AQv0UfrVoyb7XX45k3d+mHcxb7fN6lC9a+8tiHXp9nF8wFxlWD/pohlUsXrgcffT5v9bLPNyDw47eXzXt3BRyePXuadf4y5FnLPOkf86BGVbK5MAfSO3+SnywS1uSpqcTvFNZnikhC2R8R08ZipIhT5+WTuB9iYLnxBU32yivvC/nUQB+fWA/s4iVBZgqSxCbynvf64nlvLNHoSaZq/PRhsXh83twvR00cGAj557+5tP/gPn0H9P7nvW8j/aDhfdEd+nLBesY1YeqQaDQ2/90VYycN9Pu9SyAb8ktQ40iSPF2HQ7syrw4Tmf2EbAGs+diPEVhh2x0ilwEMzng9gfYhcxYYsgAp+EzqHzHm5NZ3Sp6antFNPGjEzu27d2zddex3D4pFYysXbZx0yEigXrl4I4zGiPEDALZm+Za+/XvV1u6dOG1Y7daG+rp9M0/9WmtLeOvG+l69i3fvbjZRpqlf7v1ro0Y2FbEnUPS9E34GzVxb2ov6KPo4T2LUCCTLqTZnyGOzrOe4q5NFnWdTlJwJhjMgLb000CWq5X2hSDy8O7Kjs1kwBxjPJHQmH5gA0nKKLS0DR1QvfH8lKm7wqOpVSzbv2dW0c/ue1ua2c686vndlaX3tXvD6+Vcfj1V3Xq8HJuKL+WtgCrZv2QUKvn/FTExCM+oOVHJM9Wwp6bO5tDLskauSVKJFKTXfuuMlTsWaT79FX0h2d6B5Mq4XeeNhasDvoZXZtlcmXGsL0x4LYKaAESajvWzWH0iEPOrvr3yc92NetnD96dNviESi1If0eE4/6FeRaIwUrKpe+t2/0rSDqrzx8ufvzvmyDTBCAknfp73MHJxElWBrA4EdJlPy9ENMaYnJUwC7vpDcOLhUCTYyoPqKPfR5svxy4Bg7DjD1CRKpCdg2gZa1jO8TVCHWzH96RLgtQoIh0tK7OKmSLgNYVdvaIuYjBZgSUjfmqSs76jjcnDVS2gFzvhoF7fhH6HmrOUGUOJWMXtqBoseBkq6SEN0N/kCCCgd2l5BKjWYfnBwlWlgKnBRoB6PJhj0Sa0JmWREueF0feeH8iPVJohJKmuFlMwMJUdFhkgRAy0hIhQFgLSopPVNo8k9tOEjnfiwTEqTluQlRsUME2WzLJQuzAHUwQO4PtMWat7atdlJs5uw0ZrJzW7nnY25tZlxLiJlrJRws4K3hzpQQCyZnJK2oFBAtVQqF6VBRKil2CiQFZxObxNoCxmGthG0GeRFBzkCXzw/I+0IBT9GAYMaLgW2alhtFcKCVmRxbzMq1HGINN6NBrJUS5yQaiYJAa9oUGi2osGK0f+MurCrdVtq7zSuvScbBdkNaZqtgWPKRpsvTQJs1c9IOkltV4NRy8jwyaiLTsI+ZuVgeUrjNjNDuXcqOzPSchJ4WLtaxaT0faXmScpRCpKj/hKSVtTU/9ervvbHYuSdetaJqICe28nQSUoNGC7E2ee9fwfRBvWythPxDe5fqpgMykD5nswQkQ8tUtR0+O2EzmD7BRk4CQOi1JHY5mcKtrJkqsQlgkkH0X1lHWRM65NYuYAc8+ReF+pR2/bt+nrgt3rI9vKtfYFiqcrVvPHu+Fw1FCS0CkKSDTahTuN9OGDrAAWb5kQmOIFVQIh62Y6aUNrku0HKmALYGiWcyrEZ4Og93P/QKxPyARAjkgtEBBpAlkduBgBrsG+ib2syy9KYwaTsb8RYBcMBmJxsOSTKKYubWn3J6OTYtOktiGwGwdtAM1JKmNtemaPY8Hwm1VnN3zBPLZQCV71HT7M5FLZSJhibmsAhAJglTKshQ4daK4xBkZIXJKCMxomXh6pR8HPxaQCI2aXjHjkiHcBMBiVciTayZsx1VcsDY86Lsx0adNUanSmonAxkiTcc4hCY9e6XPzMrc6dNkDJFJIUQ5sn7JsiDR1u+sE9DdGfDAqJWKbugLWYkwQrRP3R0gEOWgVq2K2Rxit9+WOTsDOSXUVbgVbVISOROJSTEZ39mXTj7skwkOM4wNPPV8hMqX569ia1N8XJ/XF9lTSQGzKgM2c2Tx5q2tqyS0ZBhk08btZTin3NrFu3b0OGXQjjjnblI7EGUCmuWyZEJC9mCsXw5wSDd8PxBQMUdGq47FlbzEzbkCDCVtBbNyrTUkk1RWGGmIlBIeauGo1NxtvQKr7qcQVYl41I1lVVjGE8YEGeSAudPKowJYu6yxUuL320Cb+QGpcXCrkjrpD1jIsGvjVIazJHQ9wEoJ06BRYo22ocAecE+g+MyTfkJ7r5u53AZNITiTGsh8bBS7DL788svYaR2HL4VCIUa+evXq2bNn4wCO8ePH40y+Z599FicSfOc733HeKix0BQAAD2VJREFUgFreFwJG0zYn9lxgLhZ4y7RDVlKBMxEA3oiFk5GeTs7UGuJQo+0CTsZjDO+IsZj2ePPmXqwhEs6y4RzrUMD8jaJxIdl6IasdwHlkq1atwuFLf/rTn7g+cA7fddddd9RRR/3617+GbNxxxx3YmR3HczzzzDPOFWYnA5nxvRm3XYpMBMCZxh4aa1chPbQ4XUA2O8SyJ2QDJ67izMnGxkYm5K233jrrrLNmzZq1ePFinMGBQBiBUaNGTZgwYdq0aTiT77PPPvv2t799xhln4ARLZ9pt+kIZtp+d4uc8HbjfIcqB3rSK2YLWdqLXnEuGKt+5TlipO8M4FU2M/5sMD37xeawOifIvSnxEJhsYiik4a3Xt2rVf//rXDz30UBQcXR2oeeyXE41GuR44BO/oGsEmIBxdIMAg3Lmi5DKAtdNbWutqgrSdSeEq1EDX1YDYUcKaHewA+v3mk/ZGjBiBM1hHjhzZu3dv+AZgdJw7tmED7RuCQ1pPOumkqqqq2trabdu2DR061IrQHCKXAaydrgnW2KYkjdUhjSdNZTcnIAUGTRxOT6E2Ez9t6e0gtfb4OhLToQrrSEY9Og16NTIZsPoDOJP4+uuvRy/o8ssvB6PD/b3iiiumTp2K5+DBg4cNG4ZwOAYY08RJ3c5VIpcB5zSFWK6BYDR84tpPMav1xvADdxWXZLta9gchspsnts4P9O3b96677kKd84IdsD7eL7nkEtgEdJDwPm7cuLvvvtsAcGidjGWgXbrfToU7EGIX1WFU1oSSENPpG5ieRdVZGU3Ym8Rlei+OtP3o0xfwJc2ifsMSMmDFYCla0oRDCn5qNLQrjUtROhpsw37rYtd1qzK0YO7xATACMjsgnSeWLldjAeB6kAJYqyidDCRaNIO2taJ3DrEypTO8W7Hpi5IOIl28W5Tub3h4bFRS6q7/fkDTOKSi2tnadvDWcIRYA7n0duGSuml/EOtdLpokI3uqUrJiPEZgZvVknXJOLUBmeFJT5c1vmieW+MTSj8vcKrSNHdAaOJcaJIXnHCqg81RnnpdBBhpOli+3p6xVHQpgG9UBumxx5WSEGo+pMcnHlLAP2aPXRgaQoURHOpJhB28XnoLMGYyMhmPu5khnVBmiEdmlV9sGNjN5YrE/Gk0TANc4l/fczbAAPROsO76hkc8T0/xAy1dZrEVX2DQT+lzjv0wyK8B0qgaorcT+QpK76+0AzQ+EtI0S0hervQxNSj1zrW7KvwOpMswnAzBnm6At/M8AT6I8Bfm08hY6QrK+kHVs1Jq0wyH2faEMUXaAL62YXUHCaF1EZaWzEJLtGrBbOy11lF0ipqMykAmrZQKDYtiB2YU7lLwDSRywpYtq9fqfHXuEqsQaQqUMC82eRd8tHT15EC/GRmVVKAtzq7wdlYEO5+8Om4puBD1E58P87DBh7U/Y5Av+efrJcW/Cde54S0kngdpPUo9PQWslJONCSlwW6FJp2y8DmTCxHQzC7aK4PM6xCRiBhzvfmQhAJmjdqNBO2QFaJ+AGET0ah808cVbNaztloKuYyZ12zJClNLAMoVNJM+v+NHaggzmk5pjPv232nZYuJnWrHtojAz1KADL6cgC1aBQKDGrYFvvalY4OZfItpTShfT77aQzxutwfSKNeOlNfmclA5txvByntsdgBmwtEurM9E2T2lUG1mOB4/lQyM81spZO3vDJvfAXsApmLvM5ba9kXKB9j7PpCuTgu1IH6t3JSJkg6lkqKWZNDwalSAGkg2YfUCFb8GhKONcG0A3kq4v3+t61PnMVKtbMDoAUNnc6FzVKTucj3EgrdsSpAXBpuueHDJ7Ck+Y+HnLKpV5VVVCSZc5BFqGwh97cImiOTsbu0g+RS5ditlWjZ3rLGpSzyFo0/Fvn65mVHbFoKYWiHAORtfbhRMJ4ntj6zKQNyO4C1Ev2LBrWvTJ1U3mmTpwUwyM0cUlpCc+cnc1S6PyBFmQi0WgB9gZ2JfN5kNw2m/Iym/odsKkAa6FIVyGXAJeTuocmcF93LU8Nk5VppFhmCWdLKDL8A2j9nzXqqT+zMoIh1BrCwhZsBHc0606FVg1azHWBLYkiF2bC0s2wgn06k7KiAtTO3HACHvpfPE9vqis4T3UPsQOcLmm0M2WXTLHJAtiumffhhB6Rnj3W9P9A+ujsAnVuazQ1LJfUH2mkByDWQdYGARnxZvx9IQsEOdECaciVJdu1ArpQy63SQHZCJunTA1CVqOtcXclbnrnsClJ09rwlt6VK1yNA4F1ZqB2RoCmEONRCHMyDvC8kGixwQtSeqczLgnJMz0zin7Qmx+/xF1xx9AaRyU1mlg2z2hKLkDI0xWjRnpSaeu3bASmwHQuxEhcxIB9B1XZKwx/thzfjE9wOOVspKViYr7ayp8jyE/AFZXygPfeJMWjK3BSCTEhRg2l0D6AvFtX2kk9JKB0zbjV2eoKN9ITvlLc8l49BM0FrtA4UUJCbjSs5hQPgD0r6QfEG1SwXpqAy4lH0BTaEGkmqg540LtbcBXdTW7ULVLuD2FqoA72INdMe4kHzdaCQacbFcbqGqb97kFiozHpkLllE+mNLC9uvhLSvlWyFkhCMjoA5Q+PaHzRmhziUgFJP6QtI7A594+fLlOI/s4Ycf5qOZuGSPP/74z3/+80WLFuHn3Llzf/GLX2zdujWl0DYyEAnbVo6l890c3ZsKrB+wZ41qjuwxA5sBjKjmiIawJbJXfFoX55AdzWslX7/Y6Pjm8O5UqvTfzW0N/EqVLryLltYGM581t2gAAGtp2sXAbc2742L1YmtTPYXE46H6zf9+7lfvzX1gVMM2u7xSwsMNIq3siuzUMjIiW7drdcW+zq4tGluD1HWbtAbavC0SjhDt6zeFUVNt4fiW7aS/Xpurndslyyo1rKU5NWsDwhqVEmL+2dKi4WmhCiSqxAuqCkOeMk83lRCx4a514TSHWIFNIeD73/zmNziFYN26dfPmzeMYHFX2+eefX3PNNbfcckskEunTp09DQ0NdXV0KJok/AHSRWNu+tlRxoZQyz3N769rq4PCkGNUDSOCpbV3bLzTCnOW2ljX9QyONkG0tq/sXjeKf25pX9S+m9+3Na6qLhuNgzNrmtVVFQ5BrXfP66uIREIn6ls3apvKUn8iTXzh7lgfx3LZ3Rb/ycQrLuDiUQeNyj1rbsLy6z3jaxQFzaoBV1dr6ZX0rASzIVtUddV9W9Z9E8B51x/YlVTWT8Vpf91V55VA1ENy5eXGfIVOoUTd+XhxuxfkDLXUb90VaaDdQJBeHGNCAKXI03kUIrr1fLS6dMJkPm4/5iYS4T6g4X7zpi8UlB09QPXGvL+r1xWL+yN55yz1HDosGW5p9LeHA3rVvbuw9ywM04YDy4mv7Tp1Fmxq98V7TIdNDZcWel2Y3njSjZF9jbMGilmOOKN60JfLevOZMvpfb2aBs3PhBdTXKa9YDRC1qZ0ftkqrqifRDv+pqv6yqnsTVCYDa2iV9dQARRcA7dyzvUzlG9XjqapdW9Z0Qi4XbajKRgfjueF1zPGjOjt/3xXdDl+N8sWHDhg0ZApZIvXAWE/iturr6m9/85ieffMJnln366adHHnkkWL+0tHT37t04paaysjI1JereGgQm++VN1+J0S2tU/oZ8J7loJ5l+nqC/z9JfjueXYMsxnocegt668nvH7a6qyqxyZtqCHWng10HGJcOepv3cpyjfOklhW3nwURSI96NPUJogs72Vrx1JP//7Ag3ANjs9wl+p3PVXB6gTLXHmykGkGcCISn0Bd1rwpAbgGEmcMpYaqv8Gi4MnjQP2Pv74Y/RzOLKkpOTaa6/ld3AvjqLhd7ywxnQ+jEMiA0gPYbIjJXfCm5ubX3vttZqaGhb67iHs9NOR75GmvNFUODsaZ0SPHp0TJxqCnrfffhuK8KCDDuqeKso4VwiAgwykoEGjm9sdxQTH7927F7KBsyt37tyJzg8OaX3uueeOPfZYCE+vXr0AwGB4mqWCOgltbW3GAZdIiXMtU/ID6vvuu+/GG2+EQcm4RJ0CRK/usccew1mcwAKKX3nlFRw+hc5cClIcVPjee+91GVU48Bm6B8chMlX/+c9//va3v1n7lzgqC1a4U+Vvf+KVK1c+8sgjOJ0OSdHY//znP9FkTU1NS5cuBYXgjPp6W1ek/bnlXArwNEwBTumDtEMGcEAljis+8MAD0XFC+I9+9COfz/f888+Dk5944gl4z+YC+KAkbrrppquvvvqEE04ABDxr6NdTTjnl+OOPR91BNoAdjYqjj3EsOCSka0qPMuCMZdi44cOHv//++/ByYCjh1N9+++2PPvooyEDX8Oyzz8aJzXgpKyvrMqr4RGjo+AULFrz55pvf+973UGOQhCeffBK6A8QgpH///uvXr+8akoxcoDWgDnBWKXJ/6aWXIK5TpkyBLwiTzoeTQgbQM+5iqroyuwMOOODPf/4z54iuP7/84Ac/MGj4L3FZSfLBRJ555pl8/PecOXNQcYDDuZaHH3442hiKBO162mmnTZ8+HdKDg8KlXoUVbydD4MoYbAQyQBJKeNttt8EmnH/++YwcjQoRP++888LhMI5i7mSOmSRHnWzZsoXt5DvvvHPqqaeiWnB+OtKec845jAEUQmIxHIEjcqGTMkHrCszMmTN5BBDYMAiIAUEIw7333oujGqE1UEVQIq5klH9IfNC1BgPNnz8f3FZeXo7eBdryrLPO4gLDPrz44ovoYw0YMKDrqwBdtUAggHz5UHK/3880QP3/7ne/g5mCmet6quCcMVVmJwxk4Cd6aJBhnJbe9VRxjlxjoASNCEn44Q9/CEXWjfR0Vz1kmG8S96BR2adG9eEyUIDbDHnIEK+LYDhoFj0QDIqhRc36HsIAh9jFjNqFClQtWbJk4kQaCmRhMJL369evXajcAjaabOzYsaANJh0NB8UBpeZWFnmJxwd9Bq8ZthLdISiw2bNno7eDc+67rJMtrVb0f9DZgPaCKwLTBE8AfstVV11llkxpwqwGwjNBdxGiCNk78cQT4YHB2br00kuzmmmGyP/1r39BU6xZswYdsAsvvBC0Pf3005geyjD5/gymwvW85557wFsnn3zyt771LbxjMhlaH1okp+olZTwrR2jLTaq4cnKZthxpPiaDuow5RVCBmEINdHENyNcLdTERhewKNdCNNVCQgW6s/ELWOVEDBRnIiWYoENGNNVCQgW6s/ELWOVEDBRnIiWYoENGNNVCQgW6s/ELWOVEDBRnIiWYoENGNNfD/AWJqAwiFqqOSAAAAAElFTkSuQmCC;" vertex="1" parent="1">
          <mxGeometry x="500" y="102" width="257" height="211" as="geometry" />
        </mxCell>
        <mxCell id="nqBrUfsvDNbjU66Rz_OZ-4" value="$$\frac{T_M}{T_c}$$" style="text;html=1;strokeColor=#314354;fillColor=#647687;align=center;verticalAlign=middle;whiteSpace=wrap;rounded=0;fontColor=#ffffff;" vertex="1" parent="1">
          <mxGeometry x="597" y="313" width="63" height="40" as="geometry" />
        </mxCell>
        <mxCell id="nqBrUfsvDNbjU66Rz_OZ-5" value="" style="shape=image;verticalLabelPosition=bottom;labelBackgroundColor=default;verticalAlign=top;aspect=fixed;imageAspect=0;image=data:image/png,iVBORw0KGgoAAAANSUhEUgAAAFEAAAAeCAIAAADb42XYAAAAA3NCSVQICAjb4U/gAAAGA0lEQVRYR+2YaUhWTRTH0zSRVm1RK6SQ1KKFtKSgDT8kRUTZFz+4obSYELhgKkSSRRCZokgbUbRRJLaRFH0wCy0xMEvUMqEwtc3MsmzR6hf35TbOzHN9rFdfeO1+eHju/5w5M2fmf5a5Dt+/fx8yyB7HQebvT3f/+jw4Dv3vOf/b50yC3L59+/Pnz/tq+Nu3bykpKZ2dndqB0dHRWlwFKyoq9u3bJ+EOYt7+8uULM3V3d4tKrq6uU6ZMCQ4O9vf3V41aI0lJSb6+vhs3bhTVamtrN23adP/+fRxzdHRkuqFDh7q5udXV1Q0bNszUfPDgwa5du06fPo2ONMv06dMxok796dOn9vZ2Dw8PU/Tu3bv58+ej3MMIPotPR0dHbm4uY5iPAS9evKisrDxz5oyPj094ePjXr18lfYvXgoKCiIgISQGb8fHxuMcJHD9+vKura+vWrbaM7N27d8eOHaqU3ZfAt2/fnj9/ftasWWlpaZIoMjKyqKhIBIeoFhMTE/H58ePHogiLgDt37lT1tciHDx+8vb2fPn2qlQJu2bKlsbGxuro6IyPDlg68mzFjRkNDg6Qg+bx//37WjGPwJTU1VVK+efNmaGioCMq0wbEbN25MmjSJgxXJM2HCBF7Ly8tVRmkR9ghS4bZWCgnv3r07efLkpqam169fa3UAnZ2d16xZw2nbUjBwIiUrK2vFihUODg6q5uLFix8+fPjy5UtTJPsMSe7du7ds2TJpcGlpKcjSpUtVo1rk5MmTYWFhWhHgsWPHAgMD+TNixAjOx5Ya+Lp16wjpz58/W+j0KiLETpw48UtNYsKlS5eQHT58WMSfPXvm5eW1atUqws8WD0X81atX0MyC2MnJyaQohhACZMf3799bmB0/fnxJSYmooMazIXVyclK5jailpYVQNy3I8WwEM0kV+rW1tZFpcnJylixZQsyQZi1WJoogxdixY+1U7lUNclJv/sRnxq5evbqsrMww4iQRg2BmX+EbD+Xx9u3bpO6rV696enr2SiFTAV6IBcP+gVpNkgtr0IrsB2NjY48cObJw4UKG9PDZCGbikPphmouKigoICHj06BGxZ+cc+Dxq1Cg7lXtVGzly5J/7vHLlSgKKUBo+fHiPHHbr1i0ILCWw2bNnEw+wvdfFmQofP360pUxlIrvaepCqAyGkNiGrmhaIYcFot3qcM8RmmJScjfrEZosWr127VlVVNW/ePNqsCxcukOFIsKYCTRX9kHYFeKV1TKtsgLQxv9ECSgYJT4j9D/vE3ACHWb2UVCZOnMj4N2/egBt9WH5+/uXLl2HEokWLqI2tra2M4tcceOXKFeJZsmPrlSRvS2TgnMGhQ4dEnb7mbcauXbvWTP6/8jYEpiklmKUVuLu7gxtgQkICzSkOG69z5sy5fv06/43CYw40GgAMSqbUVzoTUpSKi8iYMWPopURE6zN0gMCcgWqNdEA/Z+I/fa6vr9+wYQOHNnr06JkzZ65fv56m3NSg4nHOxcXFlCtO2MQ5eRcXF7KCOgfI3Llz4bxWZILUQrZ43LhxFmqsjXaNOBR1JJ8LCws3b968fPly1g8rY2Ji4uLixJpPJ7d7927TglyftdNTsQ4ePMiZGNKjR49CcrpLeikDyc7OlgZyUaE8aK2ZYHp6+p07d6x9zszMVC8h2nO2mIs03Nzc3DefRXPUMz8/Py5bbO2CBQuoYXv27CGApSlh2tSpUyGVraUcOHCgpqaGO4aFz+wsRphCMtInn2lFaEhEC3adszQla6VjoVHjhsBpcz3SOnbq1Cm6Oq2IdZw9exaRtc95eXnq3ZBRffIZul28ePFPfda6oQXhwrlz5yQRFynzTmrhMw1sSEgI10nVsv0+k3GnTZsmXfvl3tOiTv6GiKjmoGiYxVYUrrKUbdu2YfDJkydkQf6TgVAzpyBp8UWB/eI6qc7LdxIV1CIUFPpI7h49pOouDiRCjJBsB3JG5urxPUy7Vf0H0vRTESjjFEjauKCgoP6bS7T8X/o8MB6qs8jfSVSN/x/SvzlM3C+uJXxXpC2nSeKKboiMz70DvK0/ANrZIOf+QC4jAAAAAElFTkSuQmCC;" vertex="1" parent="1">
          <mxGeometry x="591" y="60" width="81" height="30" as="geometry" />
        </mxCell>
        <mxCell id="nqBrUfsvDNbjU66Rz_OZ-6" value="" style="shape=image;verticalLabelPosition=bottom;labelBackgroundColor=default;verticalAlign=top;aspect=fixed;imageAspect=0;image=data:image/png,iVBORw0KGgoAAAANSUhEUgAAAfcAAAFzCAIAAACsNte+AAAAA3NCSVQICAjb4U/gAAAgAElEQVR4XuzdBZhcRdYG4A4SCBIkuEPwn+BBFguwQGBxCA4huDuLLAQJbmHRBRIswMICi/su7q5BFw1kcYeFAPd/KxWaZqZ7uqdneqZnpurpZ9Kpvrdu3e92nzp15DvdsizLpZYQSAgkBBICnRSB8TrpfaXbSggkBBICCYGAQJLy6XuQEEgIJAQ6MwJJynfmp5vuLSGQEEgIJCmfvgMJgYRAQqAzI1AXUv6rr7768ssvG8D8008/ffzxx/52ZvjTvSUEEgIJgRojUFsp/+ijj66//vpzzjnn6quvXvRGxowZs+uuuy611FLLLLPMTjvt5L/xsAcffHCJJZZYbbXV/H3ggQeKnps6EwIJgYRAQqAsArWV8uOPP/6GG264zTbbfP7550WncsEFFzz77LOPj20jR44899xzHfb1119vu+22hx566DPPPHPYYYd5r6fo6akzIZAQSAgkBJpGoLZSvm/fvkT8XHPNVXQSQvWvvPLK7bffvmfPnpNPPvkOO+zw97//XacdAEPNgAEDunXrttFGG+l5+OGHi46QOhMCCYGEQEKgaQQmaPrjmn76v//97913351nnnniVbwZNWrU999///rrr/fu3Xu88cIK5K/3r7322hprrJGfzI8//hjt9RaA7777rkePHvHgms42DZ4QSAgkBNoRAeKO6Jtyyimpv82aRjOkPKP5t99+O8EEE0w22WTNukapg3/++WdjTjzxxPEAb/yX+Cbo850+8l5P4SDHHnvspZdeGns++eSTqaaaimmo1FVSf0IgIZAQ6AQIRKWWykvQN+t2KpLy77333kknnfSvf/3r008/XXHFFc8777yzzz6bjF533XV5R5t1vcKDu3fvPumkk37xxRex05tJJplkookmIrXznT7yfuqppy488fDDDz/kkEP0uO3lllvusssuK2UUqnpu6cSEQEIgIVBXCDB+LLroosRmc2dVXso/+eST66yzzocffhiH/uabb6wkt912G38p08oVV1zR3Evmjzddk2aFj9YYbxZZZBFSfvHFFz/ooIOEV7LX+/vqq6/qKbyK/YSm55dffmGrcUqh7l/1fNKJCYGEQEKgnhFgq2muucbtlPG+MpUMGjQoL+Lj/TOPcI3So++++24afROgMKdcd911Tz31FH3cm0ceecTBL7zwAq8s44/3e+655/nnn3/99dffeOONAmz23ntvnX369HHAPvvs89hjj+23335EPOnfxFXSRwmBhEBCICFQCoEyUp6VRoCjk8Wz77777vlRVlhhBe8/++yzd955p9TQ+gn3e++91+Kz1lpreUO+66Shr7rqqlEZNw4L+7XXXvuPf/zjoosu6tevnwOsImJvZplllhNPPHHGGWe86qqrktm9CZDTRwmBhEBCoAkEylhsnn76aTr79NNPf8sttzz33HPM8XEsItgbijw1vwmb+Nxzz/3Xv/61weVnn332E044Id9J4msNjrESHH300U3MO32UEEgIdDIEGGAZD/ztZPdVxe3QjIUOtpZ2W0bKx3SkOeaYo4FXV/xinHo+W7WKO0mnJAQSAgmBiMAPP/wgrtr7FBUNBLo1HXqmmWaSSNTyb0gZKd+rVy/X4P/873//W3ixm2++OT6PaaedtuWTSCMkBBICXRwB8Xu0V3ItSXnfBFIeIB999FFbSHkMM0BnXu/fv380mrvw4MGDhw4dairTTDMNm0wX/3am208IJARajkDM90kiPiLJYkO+o2sk7qsIqmnwOMro8ssvv/xCCy30/PPPc5xG3ynaGS2OgpxgwgknbPkDTiMkBBICXRwB4qyLI1C72y8TYyMUffjw4UXNMtKj/vznP9duZmnkhEBCICHQBgjINmKRlglUo2uJRZSwWqPBKxm2jJQ3hOzWhx56COnYDDPMIFXVPmLeeec98sgjRd2IhKnkGumYhEBCICFQhwgwE0nAZK6Q+LnkkksK9pPHI85n4YUXlqRpwrJ52KVPP/30/OQZq/XQfYvejqwgEYkoueabb75VVlnl/vvvd9idd94p+6fo8W3TWcZi455lnxLuYiilqlqUxLnjG2i5qahtbi9dJSGQEOiUCIwenRMRMt98uUkmqf7+rrnmmptuuokWSzST+KjOyTfBLZjSY/QgNV8EyiWXXCJbiHVa54gRIwQc6i96VZFChnriiSccKc1T9iiCgKJHtmVnGV3+rLPOQgmpCZZ3k27APScR35ZPKF0rIZAQKERAuv3BB+fmnz8nzYaUv/XW6uFhSFHjaLrppjMELXbppZdmo24w3Pzzz4+fkeDWj9aFMYOe3sQliUeDOIXbUpzMW2+95WArxznnnPPHP/7RpiH6NWX7F+YS2TTgXW9i2JZ8VEbKm65VywLlVltymXRuQiAhkBCoHIH33svddlvDV8zS0X/aabmdd86dcUbu//4vN3Bg7qabcnmNWWhI4Ym/Vp8rfmXV6BhVFLGgzsoALZqQRWpvvfXWkQT34osv9r7CQCDMLlEzdm1kLQYnymX7b7fddjR9SwUKyFgJVfqRRNHaxSuWkfIrrbRSpEBrmsmgOISpNyGQEEgIVIUASb3WWg1fH3wQxrr99hzZffLJua23zt1xR+6TT3LrrpsbMWLcZY4//ndnffVVU5fHaEvKzzrrrOwwIsXXXHPNxgWonb/BBhv8+9//JgPRtCh+19SIuRzl3ThM/HR5spv9w/FkOpsPmoC99trrjTfeYPrWg6ELs4tPpR+hcuEYaHrkqj8tY5fHGYlB7JRTTuGjQD/J7VD1ldKJCYGEQEKgQgT69s0NGdLw2LE5mrkZZ8xNNVVur71yeGllyw4bljvooGC9iW3TTdEd/nZiWav9YmObE+R+Es0YtGjrDS4syHDZZZfdZZdd/vCHPzRgQW84xTC9GU899VT6PkNQ/uC8oRt7LutNJHlU8nrIkCEDBw4cNmzYjjvuWDtLeBkpz3Xw0ksviaVBW8aAZfEpjKuh5iMaa3yfqSchkBBICLQEAYJ3rOwt0gYNEvqSu+++nJXgzjtzxPpxx+Xy1ZOo2uW07d/GjNTl8f+Ua3ZpWnaRS+Zy6pVuscUWlZjOyfEFF1yw6CANOtmLDjjggMsvvxwjZNktQiUDljqmjJS3f7n1V++GeJsHHnigcKDE6l4K1tSfEEgI1AiBmWYKIv5vf8u9+WbQ4tnlm1kg77d5KYjEDkPaUl7vueceflFqeNFps6dTeVtX4rHas9FjX6fI1zQqvYyUL3rDqTMhkBBICLQjAnPMkSugta1+IuoXsYxfeOGFYuRxMiqYIVJeSCXNfeaZZzYuk3UsgBpJIuOV1ltvvVLRKDYEW221VYMJ6Vx//fXznXvssYfY9Phf/UcddZTLVX8PFZzZrenEYgsdR3CpcaxFhfkCpQ6rXb8NF6YdBPRiPWt3lTRyQiAhUGsEOC2VAm1uRdNaz6qm45O9om7E7N91112NLySy8c0337Sc5O31wh0XWGAB5h20bo2Pb6KnjC6PCz7PKd/EKOmjhEBCICHQpRCg+DewYKMJWHvttSsEQeKVCE5rGyW1wlOqPqyMlK963HRiQiAhkBDoxAhMMcUUsZhS/h7tRSq/X6fzu04yySTeVH5WdUdWJOV/+umnl19+2bJjE1Fo4VHKxHJU3YXTWQmBhEBCoOMiQHPXqp6/UEsxl1Wf3qwTy0t58n3bbbfF8EDWNxiaeShJ+WbBnQ5OCCQEEgJtjEAZKc/ev+mmm7744ottPK10uYRAQiAhkBBoFQTKMBxwL8iKciXhNDFWlP4eCX286VIO8VaBOw2SEEgIJATaGIEyUh6DD0M8Nk68yRJ8Te7www/HwiPfVzzpbcgmUksIJAQSAgmBOkagjJT/BBVQLqdsyOqrrx5VeH/l7+LM/M9//oOHoSiLWx3fb5paQiAhkBD4DYEPPvhAsPhhhx0m6xUZGYHGAYnJQPUoB7FkIJkprPTkvR5B60VBFOH+z3/+s+hH7dhZRsrHgHyWGeq85r8Yk00XfQ8dH9tyPXDktyN86dIJgYRAx0UAPSQCMoJbdScMYmgZv/76a7mvap1GyYaKEpfksccem7/HY445Rg86hKJ3TSTKZS36UTt2lvG+xghQDDYgQEhJsqPohAsDjklb9z766KOmOfXb8d7SpRMCCYFOiQD2+fPOw/Gb69cvh1Cgmamgv0Fy9dVXozTIV/M48MADKbLY3gtBw2Dz4IMPfvzxx1Rbto1HHnlkmWWWaS6qdgxWFCyVlhMB6PH00aNH68QCicRGkHrR8trNvVDR48tIedwOTsNzINgGHCB477338vldpttmIZ9FZ586EwIJga6GAFPKiivmZpklcFIefXROadVLL62SsExS0iuvvIJzOKqqRbl/8dio4HrDDTdgm2GN8Z7IbhbmeHKOPvpovkz2H1JUQRLB8upm83TqjGVWiXgKdLOGrfzgMlK+T58+DDWYKVmsmOYZ6CGSHx0dc+3qm1R+D+nIhEBCoDMh8PjjgWyyVPvww9yoUUHKP/NMbsopc5dfTg3N/aofNzxp8slzyNEnnLBhf/y/TCC2l0UWWYSWvfzyy3M00twbHzpo0CAFNvBHKgDLfF9owGl8cIOeDz/8EL0w5na07d98842ig4hrpBkpJ8IfsO6663ID9O/fv+w4LTmgjJTHlfPkk0+yzKh4IphSIREkmWrA0uLVQ1HJsCXXTucmBBICCYHGCHz+ee7BBxt3j+v55ZdcluUefTT81xuvhx8uqcsjHXBAqYZdgHrOViGY0Ju11loLO83/KTP4+9a3b19WawVGmDTQI5YarWg//Z2eToX3qW0BXZnNRw0+Krx1RSc1GjXm888/X/T0VuksI+XNIM4vXkxRFUIfzw6JHwk5W2USaZCEQEIgIZBHYLXVck1U8hO/jalXKWw1oRSKUv315ZcJ0OL4oZ7v3r34R7GX8YRlXKNfU+TvvPPOxlKeuFNCZLfddhs8eHCFRV/zlyxqBSJXqc6xYpQjlYFtaoot/qyMlC86frNIeYqOkDoTAgmBhEApBMYbrymHqiqv222X23jj3EQTBVPMRRcJ+Ss1Upl+9ucZZpgh8oUxp3Cu+m/Rc7bZZhtCuXGxwKIHF5J9LbTQQuIS5Rix1TB933777aJ0iFBuWL7fnXfeWVQPG07jpaXoyNV1lpHy77///gUXXFBqaCuSONNSn6b+hEBCICHQ6ggo93rKKbn99su9/35O6b1fC3JUcx2lvY877jjuxsknn5zNhK1is802KzoQwz3TfNGPGnQKm+FTjZ2qhdx0001Dhw41rIIkQjYFKKoVbkNArsaKr4wi3J9FVf5KLlfJMWWqiDzxxBOWoFID4TxoEHVU6sga9acqIjUCNg2bEGhjBNqligil+4svvnj33XfVipLMr5G/OsVNShJS15o5Xvh8A+sFk7XkUPE5jSFiuDdgvp/stjz4a0AJUwz0ohbzNh8Hf/XVVxYYEZz2Ew2cum1XRaTxbaSehEBCICHQORAgf0nwBkI8iuZ4g5TxfPW+/C3H4xlwGtD0ikmh+Ba1+ZDvDcLhH374YWEsIjg5fllsBOHUDtIyFht32CAFwOJmUfLX4lPomK3dFNPICYGEQEKg3hCQS3XuuecWzmrzzTcXF1/hPO0bbr311scee4z0Z6xnvq/wxCoOK2OxKTriqFGjdtppp/vuu09h3D/96U9Fj2mbzmSxaRuc01USArVGoF0sNrW+qZaM34oWmzI8NkVnqQ7WySefzJIlsL/WMUBFJ5A6EwIJgYRAQqBCBKqR8oa2zvgrmyAVGKkQ6HRYQiAhkBBoFwTK2OWl5zYoMc7nIGtLGpjpckbT6Ntl3umiCYGEQEIgIVAJAmWkvBijffbZp9RAHMpi+0t9Wuf9H32Uwyf6yCO5+efPHXxwCLxNLSGQEEgIdD4EqrTYAELU53777dcgPKijAPS//+XWXjuwHUmisxvBXzq2ZkBqCYGEQEKg9RFQk0RubeuPW9mIZaS84H/aeoMm6Ge99dZTTuWII46o7Cp1dxQV/o03cjfckJtrLiQS3Ay5s84Kf1NLCCQEug4CAnvku+IY4GhcccUVRa/jZ5Skqk4Iu3TEAb+NkHEsAPG/zNSIJB1ZSmqLP4zjLLnkkqqRxMO23377G2+8sb2ALWOxcXuFVMPtNctWvy4uJPRGcqOfeCJ38825n38O1pvTTsstsURuueVyWBtKkR+1+kzSgAmBhECzEaCR4ZV/++0cLgEUkjjJqmryWhESCMgmu6UBXXzxxcsttxz5joJ43333xTNsVFZrkponcv/99/dfSUwvv/yyg51V9JrWA9QFTkdDL4JeahGG4aJHtllnGV2+5fNQUgud2yabbHL99dc3Ho0vF30xYgc0QDgl4gHWVSm/gI7NpqHxiS3sQfn544+5wYNz66+f23vvwHm09dY5LgbE1hdeGFiQtNdey227be5vf8vhBHVw44bR1D7ACpFaQiAh0HYIsLFusEFuk01ykpKUbRo6tLUujdKgR48e8pUUSiqsdUqCkUKRg+zyyy8nu5u+Ig5L4/Tu3XurrbZ66KGH4sHIDA455JB11lkHkwERZzQpVPn6sdabgw8+OL9jaHr85n5aRpd3bTX/KhmUmX6mmWZqcKQqiMQ3OY7zQWEU7Gb5OlPxSDYfy4Byi3geIILi2TZH3vBll112/PHHR6P/7LPPXskEmnVMr165q6/O7bln7vTTc2aNkG3gwDCAXZoyY7HmAImvBs3Y5Tw39dShMI1v1G675aabLvQoZbDXXjkkqD7ad98wFCK91BICCYHWQeDpp8Muu0HbY4/we7viitxdd+V22ik3/fS5Bx7I/eUvuS+/zK28cnCvaYqGvPTSb+cdeGBT/Ja/H1/dKBElaGouuuiiQtoyZUaUUSLNGKuxj1FYKykkQo4T4vlqemeddRaZRqNlDsIpIKpFstEZZ5zxN4pkzs7kfiMPGTKk4S23yv9NpYmGTR5lWiVt1llnbTwOEY/ILfZLCF5ttdXi5ij2YDrD3YPQOf6XDQu9p/f2RxYMwfiNB2zQYyuwxBJL2HOVPbLoARbU0aOzb78t+mH23XfZM89k55yTbbVV1rt31r171q1b9sEH4eDPPssWXzxT4XzYsOz887Opp86uvLL4IKk3IZAQqAQBNhDi9bcjzztP8Y+Gr9dfDwfsumvDfkcefvi4czfZ5HeffvJJE1cn1gk3/GKRrUxxD1Z49ZHwAN92223xRHonnhlkBqRzLPNEJaXUohEuOrJSJGz9W265pVJ6NFR8NQ7TSZeNxxtq44039p5XgKBDd+z9gAED8gfEw3CZWSQKBaZJEpjEZtHrNtFZRpd3DXalSpYTftoGhzmXDWvDDTeM/bgtTzzxRFPMs//Q2c0b91s8wJubb745Wrt8pP4W9h9EnXvvvXf+mEpmUvkxyguUYJMOYygZvOii4bXrruG/CgpTEeLx3lA1NNUMVCaLVKgshLPNVvnF05EJgYRAaQTWWit3550NP47WAtVDlIBi7J5mmtx99+VOPjmUFBlbjCk0qr2fZb717NlwkNL/Z0Lhg/W5ct7rr78+IYtRMh7O5qwWIHZiamtZlmDcX4w8jDYLLLBAnroyr9RbV0hww1oDcBRjmbcGuCK9vvTUWvRJGSnfkrHtR2jlkaHfON5YMAoZEdytRY+dy4bIR/ZBkeeTVcsN6+T7PuqoozbddFO0PvnC54YaNmyYldYby9d//vOflkyy8nNnnTXnFZs3PLesc0qXPfZY7pNPcsxaTD2kPEs98msmfoXDLAlN16mp/OrpyIRA10KA9uRVtG21VTDaMMX4mdG2DjkkmOnzDti8uC96bmWdVGZmdFp2XspPPfXUCvgp5vfHP/6xVHRNfmyVp2K1v6avZrVQReTQQw91IXaOomSWTY9Q4adlpLyQoDPPPJMtBXcNX6iliZGEGYep3RtGmLwtns29wSX1kNdx1fKRN5wbhcLaTbJVKbArdIk5zC7JJsgpjiHZ42jDhw8XxynOZ8GCtCWFuzwGB5DyyipWeKuteBhPgXD7J5/MHXBA0CFOOinUNGC418TdH3VUCMpkpu/dOwTt/OEPOXqJ9w2aYzh4mRlnnrnhR+n/CYGEQEkEVOym5t9yS1Csjj8+pwBGtTE2DS7x7LPPsiUwMNAjaZmEdeEB5513HhsDo0VZKV9y5o0+6NevH8WXrYYi2+jDVutoKJobDBwFMbHLep73gtpfMGCtvPLKfBT6S+1fnDX33HMT0OxchvWG7b4B9T43tBrqVHgLAAY0UrtwGXAWfd/4kTYnPzdrj+a/HgkO/lYDozkDcdgeeWQQ6By5apKpTxa/aRxCthnKDas+bBm45pocMoiJJx4n5S++OBxP9IvW33773Mcfh9LDInlsOpPW3xz407FdGwHmVD+5FreePXsyrUTNkq1c3T7Nf8VTquXE5OIKaHej6COjND0EPQ+iw4penzle0H2Dj3Tm14y55pprlVVWiQcYhEX+uuuua27R8KKXLtnZhM3eR0hs+BlMWrBN4ZHkMuFLW0eE38QIAk5F3Ct7aPWzKrDLO/i9997jSqbaey+AJ75hwQel0lQ6MRs7xhurnBqJVgKmm6JXaaH3teiYrdjpFl94IRs+PIuO5O+/z2aaKXiGOHJ79Mh69cqGDMkuvjibfvrskkta8bJpqIRAx0Ogofe1491BNTMmwfr37y/MpvHJbed9ZfV2eb5gUjhfGlDPtcKVckLFf3777bebqCUiOPKFF17gQbUkWB75UZ3FCHXFFVcIJLIkCqM88sgjmWscwP7Dne0AF91xxx11Wlqmn3563gkafcllqo4/4JBWGyBfHsDar+Q8Nf/uuwN/DovN4YcHm88WWwT13yZA4+zlUhp//Dq+qzS1hEBCYKz0I8cYmQvBEKKT97KWBemOO+7g72WQICfLHtySA8pUEWGfkrDrAqJcOJ0Zx1mmSHzBMJYaar4wT0K86RlQ5N2JzVHRw0TdaIpsFdpqXAV8epqOrjGsnY4NB32/6OD12fnuu4EcTTKHZCvWfJYf9ifh+RYAtSS5lFgaRezAdd556/MO0qwSAq2MQIerIkLK8xoWVnmFiABKSVUVQiPJVn4sS07jooNGaMUqImWk/OjRo3khaN9F503oP/PMM6XsU0VPad3ODirlgbDLLrmbbspZwkeODCwL4sFY6mV4EPQvv5z79NNgr1933cC0o4kjUDHYnoCaH3OvfPrvf4f4MfsD+VzStVrJ/9S6zyeNlhCoFIEOJ+UrvbFqj2tFKV/G+2r3wQshuamxW9mSNWLEiHYU8dWiVxfn/fWvOdap22/PceNzvdLlvWJ1RQL91VeD8zaf83vmmTluW3shaj6B7iWSR4FJOd5ff51bffXcP/6RG+vhTi0hkBBICDREoIyUdzj6SX7n0047TTCM5DQGdHGdwmzQDk9Dt0ytKgSY7KVuFGZv5IeRJcZi45Vvm20WskCo+SIvn3oqpINo55wT0rXeeSeH0PS443L9+yd1vqonkU5KCHR2BMpLeQiIWJeVy1YeQ2v4QlnkOzsydXR/a6yR82KlQbPDnkPcc9vG5A9hmghN5Sqw43tR81MKbh09uTSVhEAdIFCRlI/zFDeZT2Stg5l3uSmwvIu1x6aJGxnP3YknBko+kTmC8aVWkf6ycDVaPxO/HpYfRn+Ru96nlhBICHRZBIpLebGSPMhAobPn1XakYIId5ZpKDejbt+9uu+1WecxQl8W3FjdO3IvPYZRHrI3jmvLODSv48sUXgzWfpzyK9XvuyW20keCoIOijju8v/79tmCBOzgAZWyJU0fxJNE7O21o8qTRmnSPA3cgQLWKdlLvrrrtiFWvJUJhXxHDHyWOjZMNYffXV8z5IZMISfdDrFvVKYkFgyq6vUqmNo/H1uGHJpfPOOy8GgngA4nyUDozy+YbzAKNb0dPbrLPOs6JqisPPP2fPPovgIRtbAqFIe/LJbJddAnfmpJOOI+mbcEJUqOHIPfbIppwyO+EEDNdZz57Z1VcXOT11JQTaEoF2yYpqwEkp2n2vvfYSvc71KB813r4kHnotWR//K3SSdksMNsFJedJJJ7UculbMiipuXr/vvvtee+01GU+Roc2aJlsV32bhyozwHil+na/VnXh6VPJFFglx96XUcDwKTDrCNLF9CLvEXC0nXAVEaRy4nlTLQr+DDoTKgl5t1KhUDqUTf1k63a2pOMRVJZ1k551zo0e31u0R8cwVQgflbHqTHxaVWKwbpeeWW26h6ZPyzbqomG9R6UguCyl+rQTi5ZUrkeQvZ4jjs1ljVn5wcSn/os1/TnmNmTCIeWPVcm9xUDq+zUvkJpO7hbmt8oulI9seAYvBtNPm0GYoc0i4i+1h5JGNpeiCSE0RO6+/Hgz63lsJYlMbKz3Vtn9S6Yq/IeA7yqpY6vXcc7l11gnMUL7TXE8IKb/7ruTBRcu8lcOazC0kyBJnKP2TFk9YI+8aNGhQuQF+9zkhvsMOO6B4kfzfp0+fyKdrKMWhMAJYWuwh1MlABNCsYSs/uLhdXqlDQ6CviUZ5VG2YZPT06tXr7rvvtp1hlMfQJm4fG4GVrfLr1dGRYlbEIT77bG7uuYNK3GWihljqhV2KuFcnS2gmNk0R935QkYlBGI+SO7Cxvse4Hdm5KJQbUDP5GfpG6JSsm1pCoJUR4FMaMKDkmAQ3sc4ZJcIM07dQ4lIcxYYQjSAyoTIuwMGDBzOpixdHpRVJXOIc0A4jj2TDwYZLJS+b7d9g5mrG4gt47LHHRK+o8a1qHt4XDk4ECfh9OQD8NXLJ+23xB8WlfCRnyHMSmKLNhWsx4ESPK4o1Ul5nR9Xl3Y5co0MPDQLMjk8SKutG1xD09pruldMVeTIZrZahBKs8c45dI78u7R6hZqxY6SMR+nbGGjJ/gFkJhOrfe29I1Np999zBByfinRb/ENMAhQggg/w96+/v4FGN0++X8VGjnn0hyI8AACAASURBVOAeV12kURWjcaf4jlZsXcFPiQWdIo/ZhY1a6Ys8oTr9/bDDDuM8QCHZuGJS00+PAXzdddeNAYrqvhqKcvzoo4/ioI8+Xqb/mnK0FJfy0epk1Yqzzxeotb+IPfmbb+4NNw1H233KVk3EM2HQVzHIqO2tzneXyR+VzUYTUgSMBB/LrvpbUxtHHUoBVgqkPPNMYFUTtxNj8y0ANsoffBBUeLVuUM8Z55hjQnGVbbZpu0eXrtT5EfCr5FAq1eggtp9+sw5jPafOU0ma0NYr1t5YLyIDsAgZYpcsjgznJoKrkY5P+j+Ah6SZTZBIXmASrei5YgRjVJ3jYIXvmzl8+cOL2+URwTsVD/A//vEP9PZI5ONIeSmvKKse040FuMtfp96OYJC2/qvuIZyQU1JV+FNPzf3rX0HydY1GvxFG2UDE52+d9CfBV1stN3hwTnkDvyaN2vTHPwaZLlgzJtz++c9hPcCvoJH+ttGpJQRaAQHfTqK51EtEME3Ei7vJd/G660LOSKmDKxbxhdNWDINcjvzysd9/affqKamZ0dwbtHJwYWLYdaI4S39RzDP7qAL4X5bTsZK2pjXviuvyfMoih5jdN998c4sPR4GpzDHHHIsvvni8w7igSYKdrYOWOvWo3n8/eB7prizQhD7XB0ZgNUlWWinY+5K9udF3WRFElSnBtsACwe9F6PvGYlKLUKEuxblG67ckoGdgzZ9xxpLb6EZjp46EQMUIWAO23DJkedhdUuGrkuNFL0aIM8ELYWSZUdmigXBjbCl6VuNOXJXC8GM/47YqezfccAPvq70CF6vKUK5C9CuTR9ZbNtRWwkxZO0KB4lIevTuzOx9sjPo0XTPgEY5ZADICrAE65UYVzQtofNt110Mace/wM4o1kSRKJjHgkPJ33RVcslFuseTQFyi0jmmiCnjd3VttJySvar31Ansaiw0UH3wwR77T6L0XjmmfjYBBY9UR+3DVVeE94w+raeG6CWM7AMoDH0ATBtja3kkavUMjgNajURXS5t4QzfXxxx+PlC3kb6xKTW0XYJLnPOc7bWCx8JEy36WKXqiWGmNV4mRwqhPiN910E/pe9ZQ4eGPlKdqzhYQn1qLC2Ynft4Z2kVLR++LlrV2CatyMdUb0KFtSPPj88883LUB4U+r0tulvUVbUTz9lEh8OPDAUc/rmm3ETdo9ffTXuvayhbt1CQtEEE2SLLZYddFD2r3+pX/XbrVkFR4zIbr01+/bbtrnfOrnKd99lRxwRIFlttXD3+SY/68svA0jHHpv96U+hElZs++6bTTxxtvTS2T77ZFdeqQRNNtVU2XLLZSuskE0xhRS8OrmtNI32RKBdsqJaeMNWhQaN2aPyMcXgU5fF3tCql1lmGUMVntuKWVFl+OXx3LuY/YXKTfl1Uk8M4NeZ9yo0dxVtleNryy/PRi9vgLGeW4ILklmNzUJqGGO2eHLuy4MOCjlFLIMYgW++OViyUytAQBxEjG447bTcZZflXngh7LBjE/n25ptBFTvwwLAbgG5qXRyBDscvTyjLHIpB5/lnp6JRLHhXydN08PXXXy+kR1rSnnvu2YAwpu345cn3xtMtlPiNP+08PWR6pAD+y1+CWGekYpKI/koVQNQBYcRXz0kOHuZfzlvl5FMrQCAfwCYk34vDVigEU76wHLjGAHzmGmvAUkuNK48lX1d+VoFGkQBNCNQpAozVeeN7dVPcdGyr7txmnVXcLt+sIbrEwaJulW7KNwuAMBRun0suCS8uIOFcPJL6UyuBgJAefhAvmjvkOG8tA+qoTDFFTratBeCss4Lo5873XuoWxV/QjpU0v1oUDuxT/alAbgmwU3dC4DcEikdSJoTKICCESwQJ8l9hJSryEfHME1E7ZcARupNaaQTAJuN4jjnCS0YLShKYARKvjpVU9FNcK1ly2MBo93ZNVlLGM0H6mpxbqVhMZfzAdllWi9Q6AQK8kazSneBGWusWoNFctpxSl066fClkmuyn2h91VIgyUdZPxKs0PEEnMS9DWM6xxwZLjmAvUSYSrFP7PQKYkEWuMoCJsaHa0+U1Cd4xx5uSHkMnxO1AlzUfbcl554VOUa9ioBTJsiRIx9VzwAEh6j+R5nWCr5jgdCn3wlHa19VXJ0jyOPKJso23iqDv2Otnbb2vZR848cPioLQHHve8NBchiDuBVYK4shio5UrZF47ZelG9ZefVmQ5gzSfoZTt62SNJ0RKtT+unzquUa51wgLQY7IQpw6FDP3fxcggaUTYmjT4+RyKeP7ZB2MsCCyyA2LIwXauSh550+UpQKnEM5l+vBk0EOKGPBkys+OWXh7+UfQnZGjMzfb/FQb4Nr9ip/09Vj6Rp7pJhjC2eYQz1Boct6c8pTtBT+UUJsOpEigr5D2w+0X7WqbHpVDcnkV7KPVkfczA71b01/2YiEUKrKPIunqR8859A2TP4BCmcRx4Z/LExSDA6EPfZJ3DmqNUtIYtZH2eYrQCiBf0dlNezLBStekAU3Ntvnxs2LFS+Zc3HsxZTIBn6YxY2O4+4Vvsroj9GSOEbtVQ0aLEqut1AWnMbQtOu/yfrtXadQie8eDOkvM2Uilnih1L110q/CESIOq2x8Syx4SB1ZEW2AEimRa3H7kDTxw7DSt2nT6XDdu3jUOtQ1VU+sS9S1xBZJrEA2igcKPJWTLY0LBW2UuxkzGYcJbvtFlDzqQZ16Q2aqE17LStyagmBToxARTE2LEEIbRQIZCcS4PnJJ5+opbLHHntg2+nE0LTyrVHnL7ww9+qrwW/IzkOZFDLCqCxfyEpwwQWtfLnOOxyyBGwUOMOJcrI7Cnfradwv0eIlsUGXg5fKv912IZInT7aEWJ/+bgFAScKjK1p/hx1+y9XqvJilO+vSCJTX5ZEjb7DBBuqk5HGSKoWTAWHZhx9+iCK5S+PX3JtnnyGZROB4kUBbbBEGIIeGDw9sL5Fah/KZWssQkFcVnSbMO2w4cQGg7yPUZM23raLmo51mAvLRRx8FsxkTv6UiuXBbBnw6ux4RKKPLq3GullWhiHcTmMtQ6Xtz77331q5WYT2i1VpzwoJJveRMJHXEBhI5LMeUejRggkW23TaEksTg8Na6YhceJ6avAYAQv/rqEPQkWxnY7DaIFmRdRcmumgo136ds/XfcEYz+qSUEOgcCZaQ8ZnksQm61f//+h9on/9piTSzxrSqAdw4g2vQu6JBocPA3Ch3njKXdg1FlJm5YDAojRoQyTkh+Y8uTv7TpFDvtxfbdN7AsoKjwEBQ6VzNLnq3G1MPQj3/6iCNCrE6k3owosKsVFsKVmussuwS+85TH02m/KJ3oxspIeRVfha/OPPPMiHX+yEn4a1P421thT1iIOxEabXgrXIQiwJkPWOppj0wMbDhDh4ZqxSSNgntqV2ko0ogcaif3LNNDai1GQFym7ROrGFIiK6kwqNjQ6bzySjD3X3tt4FBzWN6ar0CuLRb+aY5zh0l89q1n6hHew7ifWkKgzhEoY5cXVOMGSPkGZMr5cq+xtFWd32SdTo8yGWtXFs6PLh/ZXmKnCBzLAF5MGZ9WVpH44vEFCXJB0iRtCOifLDwqNUbbc53ean1NSzUBr8bNA+GP9dpww/BhXk9nTqPp23qNraoQmsVA+RQ+KYq/5RjdQoJ/HDTpn/pDoIwuH4ntxdjEEoD5+ccC5wz008k6T612CNAnaffM9IMGBUu9rFqlrG65JXhrmXosCYz7lH09qbU2AnnBzZCGT02i2223BUuOpZm/3JKgcMq77+bE4wvMZ9Zn63/jjbTjau3HkMZrMQJldPlll12WKOeDXWWVVVZccUWXGzVq1G677XahoMCczJ4Zq6iC2OI5d7EBaJLkuBcpT6m/4YaguVMj5QUJCeTI7d07kOow8cu0SqSYtfl2cOHaSnnZSokfZlqTf4tqGrcas74FgKaPU1Oj9gjxlA7Bn8KF678NuC1sERiLNL7ftAOozeNKo/4OgTJSXgUTpPiKZvGyRkcrvV4zhuzbnXfeOSWqtd0Xiu2eV9aL/GDJISEQuzzzTMjx16iUzAokDauOxqBA0kw7bYgsKSVLGP1JoJT92ZxHyI7PHK/+MeQkVcmukmr72WfBhiOvmV9X3hsDjsbnwvYmiop1SD1q+r6FGMmFAopieDT2fVuyVHumOfCnY6tBoIyUl+l60UUXrbXWWg0sNi6lXuB+akOk1vYIUCzRn6lSS4FE3StEh3OQ0sh7yKAQm7SfDz4IncID6fte1P9FFx33KbHEDHHjjUH3lzyKwDcmF7X9vXS0KyLMkXXFV2JnJVs5wkZS5zk18zdkDbUY0IjQlXppXL50f6cIp7JM24zh1IwfdTQY0nw7EgJlpLxbwYL20EMPnXbaabfccgvSOMq7ni233HL77befiA8wtbZHgG7OZLD55kFLtP8XDiLinqTJ5/94w46Pkd1L3B+hQt9nOY7RmfhzZIXaB5AxVE0insovqie1yhAAP628bKO833NPCMEUihw5NS3KbDtY1eyyBKxZJ6zR1l/Ma3K4rAGJt7QsqumAKhBoHvOwHChmeq2KK9XilHZmHq7FLVU+JsHNTMDeQpEvZZMxmpRaAt2RlHqGA42JX3xObOQN6UJBffjhpgapfFbpyCYRIM2FRDGqCY594IEQsB8bP/r55+e22ir8j0fXHiyVRWwSyK74oYLbbcE8nAj+6+jLZa2lB5ZtiO/pil75JsabsOFGZDu4/vqwBuTjCvMlPMoOmw6oCgE2TrVn2NK4UUh5NGrCdaKmz76vsfMg2/n00xDAEzk1xc3apwnpie2993IXXRQC9tdaKyTxJktbVc+ha51UxGLz/vvvH3nkkZXAwGp/jjju1DoWAqIzWXvkXh18cLDVnHBCUCzjboAQIj+UPVl11XGlrzrWrdX9bLfZJtSbIabtxMSpibW3WEc2ozh3xjYrMrkvNl9ElWa35kENGRLe86lzuAiqEs1J8d9rr1xlv9S6xyVNsJYIFLHYvPTSS30qY8FVx+Q7QQPt17q0xaYlsEt2EwaI1QWNCxFP9pDy1EhhHwjxSSAapoqGBAkNs24MdC254451riwI6jxaTXE7Hggni+wIjfIucVfetERpz1CarkgeEZmpdQUEqrbYJCnfFb4eFd8jiw1X7aWX5v75z8DFLrH2mGNCvn9qdYCAxZdwF96joPnYnPTQmPivuSa8YQWyUkuZSK2zIlC1lC9isUFmsGYsrTYWrTFjxiAZ9nf22Wefa665vHnllVfQ10wzzTRypjoroF30vlgH5NZ6nXpqEPSi/OIjFsmDzIXzdoklxllyWBZom4KsYnHuLopXm962PRWNXvqz0sIq0Ijcx3EXHermwfDG4SKEn8GHQd9fXvmiteUt37ZtbP1pk9amz68dL4aMrOmmYIjoyTPPPPOHH36IRyIi3nbbbZlrrrjiiqbP9akoTDGXAwcOvP322xsfjAbn4osv3mKLLXbaaSe5V/kD8OQMGTJExZKjjz4a82XjE2OP05dYYok33nij1AGpv0UI/PJL5qW9/no28cTZeONlCy+cnXxy9vDD2SqrZD16ZNNOm/3lL9lPP7XoKunkihH45ptso42ySSbJpp8+vP7979/O/Nvfsj/+MZtqqgwBT3wtskgWf7Iff5y98kr288/ZmDHZAQdkvXqFR7faatmoURVfOB1YBwhgFZtjjjkYyZs7F/HWTbUnn3yye/fuVPi8iI9HE6xyX2eYYYamL/n000875rLLLrvuuutsBe64444GFyPEF198cfzGjpllllkiBSbZLeVq6623vv/++7fZZpu1115bBGfRWSYpXxSW1u8kHm65Jdtww2zyyYMI6dYtyIlrrw2dM86YXXBB618xjVgCAcvuSy9l99yTkfiN248/hk8vvDDbZZds//3HfX7WWWGBtiIvtlg2/vjZvvtmfohrrhkEPdGfWkdBoFZSfujQoVGao7IpxOKpp56KVcYLFfDGYA0aNGj/X79rp556KpJ6/tL8YSY955xz3nbbbbHHkY73nqzv1avX559/7r19A9OQ1aLx4HqSlC8KSw07qX9HHhmkfPfu2auvhgsdfnhQ8P/1r+JSp4ZTSUNXisCtt2Ybb5zNNttvaj6Jf999YaW2DX7ssex//6t0qHRcOyJQtZQvk9/ECs+apPKfilEvvPDCZ5999vHHH1Oxd9xxR/1uuIlaUT594oknYr0RB3tjhEhlHC1UBlcxnBCP//XGmmEZINPVmJ1ybHEHlcTnm28+i0o7GrXSpX9DAIMCRgSJVLJnZetrUvURNkrlZANmxP/znwNBZj7bJ2FXBwjwsgmnUgt33XUD0x2WfOGYHO0Sr6TjMuLzreRpNeXPsdqn1pkQKOJ9Lby9vn37MspTmVURwTbcs2dPUpjR3F+H+e+CsjtKtB9//PHrr7+e6lcHEKltQ6Bzkl9ra0466aQLLbTQNddcw2hD+t98883xAGtJ/ixje6+n8CIjRoy4S0DZ2BY51EpMIXXXAAHpshtvHCqffPxxcP/hxTz55BDhIclHOLe4P//1dMh9Plsh39J7ROU39vTFGliJK60Gj6jUkIJmPTqO2QUWCLWuBMp6Y9UWr4lHM9JqSr/yDDHweHoYe0RtFvppv/46FDWQSIegVlpWyskqBXVd9ZeR8tiGN9xww6tpAjmL/0+F0pb0P+KII+jape7HAdKmGPTjAd74byE7gvdnn332VlttxTHrfe/evW0UpNfy6+bPcq73egqvssgii1hg9FhsHpaan1obI3D22YFIR7Q2ASB7VpR9bNgU5PMgZiQkNGszNZK0IEtwpREMNEZRIDaIknliapBQfQk/iTC5TZ7g6qsHpV6UDrFO4iOss8j+7W/h2sT3s8+GftQ6cZNmBVcFlzrnv/JvPToZ09Lmvv02iH6l6QVxyolsvHy3ya2kizQHgbJmJvq1MBt6N0N8bCSy4iHnnXdeKadofszVVlvtjDPOiP+ls5POjU8hxGXbssIfd9xxm2yyiYM5abmSbSC895fv91aWxWIt2eWLoVI3fZ98kh1xRIjG6dkzmPKZ+CaaKLvoomDKn2uu4LO9/vps3nlD2Edq9YfABx9khx4aPLRTTx18tjFuZ775srH+suzEE7MJJ8xeeGFcEFb9Tb8Tzqhqu3yZGJs8VKNHjyamTz/9dCGVVG+mmEpQHD58uEhHHlShOKuvvvoxxxzjLDKdJzYG7dgcxDcSbnliKeYOYBHy3uWo6v/85z+9LxVMmaR8JU+h/Y/59lsRtdkJJ2Rrr509/3w2++zZiBHZTDMFEb/88iH44/vv23+SaQYlEBC38+KL2cUXZ0svnW2xRThILJ9wTHLfX+GbFgPrtVUhtZoiUHMpX93s+Vd32WUX7lNUaptvvjlfq3G4Umebbba4TrCw+0ihEvb9yy+/PH+Ve+65Rw97vb933313qasnKV8Kmbrun2ee7LTTQlxmPrp71lmzHXbISkRS1fW9dKXJCZ2dbrog8T/7LFtnnZBBYUvmb1TzbdtiE6Z5773hmKLxz+J5vvoqRXBW872pWsoXYTgotPdQtHHKl7IAMeAwrZT6NN9PE6eVFzpUC09hEaK8MwE1ILxk2/n000+nnnpq1vxSl0g8NqWQqev+U04JubUKYyNBwm7PiM8G7Gsmp3PAgDDz++4LdJupilKdPUX+coWurroq8OMjtfMY/ddz47ll0OeCYbvnhZEfrYIZLmUs/N5z9grsEaXhowsuCDm6wrL0cA9UQtNfZxi053SqZjgoI+VlRcVyr0VvThUR9vSiH7VNZ5LybYNzK1+F95X/Viwm1x4iLlS8egTLKmXFqa5YKn+fj5RfwtlIeCi3mnx8rfwMqhwOsQX3rLooxLcKNI2b54YaQ2lccl9QpiIqetRQFIol3srDxKvsmY8YEQqqCMFNUTqNMSzVUyspL+B9aQt0idbVOSnFFfsiizKqYENTAsLU3QgBkTk4c266KcgAEkJ4Ffr7444LUTr5pr+SCiqNxk4dbYmAuB1FKhUrm3POINyFbKqUolmyxdbaDQjyIfdVt0ytEgSqlvJlIikruXZHPcYG8o03Qog3cl0xYs1VKmxKcUf5qlJvqJyYouxRU2s5AgpXCcYfPDhojDfcECI1yYlYexLU4v48L5+S8oXVEFt+3TRCayOA1toCnS9R4/eB0Zxe73mKtvX0hOMqc8Dgo4njlHHhYDXNKE5p89aKT6OMlP+///u/Z4izgsaDiqLy5JNPZi6/FEVtB22+Yqee+vPhR7zxv1nnGP+9ibbeJDd8eFPfLPJFmc78S8ywwm4Mx+QRI6XgYdJn3307KBj1OO1Y6RDpseK0SuRF64BNvoBtWygyQLQ2tnWws++z/6RW9wgoTqNwCoMcpYg1n1FeKeJ8s5ofdVT4n5x3bJpxeaBHFdaWxqaJZplm5ckzGaVWIQJl7PKlRrn++us32mij9dZbT6RjqWPaoL96u/wbb/zcZ5FTpxwy3fifTfPhS3/66cZu668blHG83V68gg3eyO2yMBS+yP3YJPd6EUMSPks7itsAjc5/iW++Cdo9aSF9mjmArMeAz2r/n/90/nvvFHfIra56jaKGrDSHH57r1eu3u7Jz8ylrvpf3ODImmywsCZ6wVd5Wmf+WTsVWxz4qO9c4e+zRKUCp+CaqtthUKeXfffdd0TXU+ddff11YZMXzbOUDq5byY664+qOdDpvgxGOn32NsUEeDphwDczChX/RFxPjqCQjBw856YJ3ztSVxmH223jqkjTM6plYjBCyutvRiO/zo6XXyb8HO2Wd35XdPx1Noo7nGtxpNNQ1bFQJUKa4ZxVJGjQohV36LOBXyRRMJG1q8AziBbe2KEuhXddkOcFLVUr6MxUbAe4MoGnGejDannXYaVAQ7vvPOO+0o5at+Mu9ONO9sP466d9TU509115jPvxme235IbvBtE28w+/w9Fl++x1IrTLzoYt1mnqVb2C36lsWWfxP/i7cr2ohFhtAxCReqCHuC0MC11w4sIRL6k6W+6idU6kQSXBXU/fcPpWvpdZr/ajRApbI5aan2uFo23DBE8P2eGKPUkKm/rhDwO6Pj+z3lGw/tbbcFHjwWG2vAzTeHmCxfBGYfhr2DDsottFDgYKBxsfY0+JnW1a2122Sajs4XSYmpprAhkME4H6kORLiPHDmy6RFq+mnVWVGfffzTddPu8MvU03yywgajJ5r90fGW3WLD7yXroOGOKR6IdeeYI1t//ezYY7O77gpZ3QWUyWPvacyY74df/uCsm49cdY9fnns+9LzzTnbSSdn8849jYDfcUUdlb71VUwS64uCeBLbqrbfOtt8+e+CBcQ8GM/ZNN2XbbDMu0wqhQu/egWo9tc6CwNFHZ+qiyLBVEUUplZlnziTgS6SL3BkxEVd27p57oi4vec/vvx+o+VFvdMRWdVZUGYYDVMB5+prGb5AJs5m0I15VS3lzvv/en/+80C0ndj/s0Nkvu+LCceVXPH6Ze0OGZOuuG6T8BBOME/qk/wILBMFy5pnZo49mn36aPfhgSNGXnD/ppOFg6XzjGvodn227baD/8NXDALLGGtlVVxUc0Y6AdYFLy60k7gcOzBZddBzmH36Y7bNP4FPP8yh4WvI4hw/P3n67CyDSSW6RprXSStmUU2bUpymmyK65JtyX8jbPPZcNG5btvHO2+OKh328uVqWTebvjjtkhh2TXXZf95z+hbJayZij1lb3xmz333EZ6W93j1KZSHlsZdX6NNdZ4q70V1ZZIec+UQFAVo2jNHZ+SCWosXH11duCB4evlCxQ1fboDAa5oEin/179mN96YzT134Ghp2NRhU6WNdhGpnugeZA0Wl3x5Hgukr57vaWq1QCAv01VO8sw8vDnnzPbeOzywPn3Cb/3//i88VEtCah0EAY/UxhoTyrvvFpmxH5bfHBUrkmxZFSabbJyWhiUPiYavwMEHh08pXQS9Mpcdq1Ut5ct4X3EPNK7gIeVVeb+ZGabbu1Xtfa1i4uL3pHjg4PYS7fvCC8FEGBsT4XTThdBK4V98gcJtfhdrIxJYmWyUr+yIrIZKbTiUC0ngmGjh6acPZR3Y8dvYoMiNiVeA5boOnmMVj6MZpwiXknbJVXvHHaEqtsbf8uKLud69cyedFCJoBWwnD0ozAO0wh6JSEAfuB8trgxJbxM4ZZ4TwTb9cZNizzBJiOhn0ufM7hBe3au9rGYsNMcrF2pguuE7WwBbq8lXfBcPONNOEDSDSLWTJNIU8Nav3KBejQV+ZPMrFOGVdjfIrrwxErkz+dpVoW+0e2fFPPz2oHL+WRax6Ss070SZsueXCdSmzW23VVSghPQKKPKWOfTcyabHRenKHHRbK4jW/aHLzME9HtysCl1wSfrN25xrjfixW74dom8cKtOSSoWp9bPYE7WqHLglTrXT5F198ccstt7R2YxueccYZ84s4Bf/KK6/kfT1e+Fr7tbbU5RvcJdIlL7qAKEpBXSicqIxRa6AmivCNASCUeq5/fFwiPqjvNIipPn0jaBRnnjXWzTs2CcQ2AXMLBV+sgIQQynVNKyiZmYhDGQAigmQZ7rZbiFeRTdpFmvsVXy/unkYvPoc6H5v4V4EdKqKgWZG1mVrnQkCobb9+IRMGPdLtt4cKZtLpYoUsFEoCN0VBn+VHmQsRuYpkxbQsAXTC8+PWXIWsv/51XJ0sofql6yfVCriqdfkyFpvIY8Pv+uabb7LS5KePMXjgwIFdmceGqPRdwbYiAZZYmGuu3x6tDNnRowP7ln0iuY+ORYoHAwmTDOlB6P9x1lcH37DECVOftM+yj/X8zzPjv/xSt9zYoECNCcXu0WogGTy+LABOa5xvJXxTnSz9TEClQgaxCFp8Pv0099ZbIdWEdIt/7WOZmXxq1yoCmcQ31y7S2Knk5MR4PeszdkyVqpjO7r03rNiQVCDVI7C9F7JHJMCnMfgtwYoF7/LLgxYgCNz6d0AhYwAAIABJREFU38aWupbMvIOfi1nxkkuCTkblktaSt9J5FFjV/EJjlhZ1i3nVeqBJjLH6q24pIYsOgCnVX8Y/mphvR02VscZgVy3ly8TLN75S7FG+tdRHXaRfFpS6l16NG0GBnslL3LZGzErfwJdD4mPwwL/y9FPzrpJbbq1PRxz1+N7rzj3bMuO9NXzJvxlqjm9fnGDkC0GvwOhx993jRo7DsR1SPyj7soEMjYFngw1CKhBJ7Rt3443BG6AQ6/vvB2s7UR5f9hScAQ1qbVszzN4gRIw4ZClFemxMdtklbCw6faObWdIgJvoahxZgNQLXb91zymfaEPpWb0DZXSFK80O3msYEQMs7Cl3PFScLadGsJCyAO2vVVcPIdEscIZ5jam2CgLUbP1rj5lEUfvGVqvRr4Hjza2XNp6X5DcnM8gvDuGDvJyWDsm/77utTmL7beOQ66SmuyyvhpFSTKb799tsnuOOcdJPjUL3HSTPTX3TRRYw2ygQqBtKOd9KOFpvq7pokAZhf+n4DP713pSNmfen2l7+c8fBvD7ktt+aE3bv5xrDq9F3kx77zfbXoxK9MM/qFCV95IfgJyX0iKa6s9Ae6Z1QAOZLo6chBfH/j0PYR0VTkALoK8U1b52a018i/7D4ktSnZyeXLoXzrrYEwgJ6DkMdGlKzvEN/c6h5A5WfR6GU1W2tl00u1hCo87YEgxoZJNHObQx55EROQtZacYAJyGNe846mC1uD4sjNbb71w5csuC0lzNmF6LDaeqVX59zxRlU8wHdk2CNjo+uXR5X0j0OJLvPN4PXC/ML8bSpcfkJ+UrYCn7QdXu71Z1bp8cSn//PPPL8oiVa7NM888rxJA7dc6nJSPUPnSMMbQ5wTXSJjdYYegI1C4WQkp4jF0x1aRHPAQgn1w4R/6TD1q6o9eDRKfjmHPadefD/ExKHWSYYdJjYYepbk3/Ch2m0WtDb6SV1wR6AFwhWALoM+ee26wSlozRAvtumsQ96mIR3xafrseDHFPHNvJM9wT6PfcE+yy4CIDrLueKAVf8WxvgOkpFjZuD2hrRDwhQQx4urHqvTeWfX9Tq28E/E7XWSdUpLcBxsBDl99kk/ArtGTbo/uRWdwVQ/fw/WDF7TjM+8IfHwWAXdA20hLvSCpBc1vVUr54jM1zzz3XOAeqQY+o+cMEJ7Rra68Ym5bf9JNPZgsvHIJ2FcWTuBHjcBTYfO+9UEIzVlUW0h3TsoQBCAkQ5D1oUMjmePKRMd/N3eei8QadvMw1f17sjmu7bfjzqqu1Qty9yCH5YDPMEEKAZAQIIUqlPBs/aY9hu+2yZZYJRWtFU4mYUvl0gw2yJ54IxwrOEDR1/PGZovayrkRVieqRtxPbF19kG28cyp2LcZKWpei5c2PzhbjllhTn0xjvOunxYAXhKIjoNystS9h+fNoyXmITUCd0K6ZlxWxIRXGfeWbcp9Lv5G35VfXvH1I1hNpJ1mluqzrGpriUf/nll+ca2wTFR+GOrCb2+Dv33HMvs8wyxx57bKzj2ty5tuLxHVfKA4FMf+21TGJmqSa0T4r+ZZdle+01Lu5xbFhOeG003j+/HW+yn1Zf8+d+q3zRbcpj+j9QapBm95P1hNT004+T9QcdlI0e3exBOvEJFr8FF8wefzwk2vuxrrde88LuyPfFFguxe5b3hRbKXn01QEWEkP6eq/y6I48Ma0BqdYmApHdPrFQteo/xo4+y++8PAdabbx6Sr/1X8wMSNU1Xk50rdlcmphRJmVnNba0s5fNh8o888ggpT20XYxMD5+Pf9iU2yKPToaV8s56xL5DvFtYO6bRUyQnGz5ac+PkhucMOzx3VO/eG4HsKorw+ad+SuUt9C5txRaHlYvmFlhM90nz33z+RAYxDT4V6TBfUcEodKY8YpbnNxu2RR7KHHvrd9gtvhucaWTHsD/70p7ZOoWjuXaTjyyGQT3L3k/zDH0LmrQdra6fRDQ4/vNz5jT5vZSmfH3/UqFFHjG1f2GzWX+s6Ur4QexJfStNmmwVqlhNPDJtEAifP2UTizzZbtvbaQSm89dZx2kSVj85DHzo0KB5kPbmGHqBoanmVo3fk09iyQJH/HbfWrdD9zjsvpOh4nGi3YmuFRbu15pfGqRIBm3JG14svRugbdvD4r264odlDVS3li3tfm+sWaK/jO6j3teVw8eGI8uD2Q8Eq4oaXX1xMjNSMEfpiN2JIDlcfL25M8fBXgR4eWdHB+FpFUXG+8rPi8RVMVrIJGUQDICFE+KawToWxxPZIB4jJApy3Qjyb24QpKLrCIcVjmUJ6GqMn8Jb3OwZuiuAU3gNnwbaqn3scXMEKJilvUJim0XiQ1FM3CAiVGDIkBGgKkpC1otAZ0pOmfnTFZl6197WIlKe/H0QG5FTj3ZldfnDprEhVRC422fZrXVbKg1zWDpc9J75YnQZpeMI3SHlxvhYDMb8Espi9GGAp0ovQJ/rF0xPugic9Xsl+girLNMEEAgFPPjmcSda7huhAgwq3J68XW2zc6ZXEkQkTEq/gi+9rLiRNGqqIhNSKIiACh3CX/gZqcdoCO0R2ysL05CRDqJYtPKtZzThitHwhrPmlkumaNWA6uDIEfN998S3fMQ6nioyq1pTyL730Uh+BfjlhQxctuOCCSy+9dKm76Mq5r6UwqcN+YZO0cOI+KvtiX60QsdERRfHRGsX4CdUXflkmt98GQaC99YGwcKbYTVHEEikIIAuOb278G9/kexq8wR1GFaWcCigjpywb+RSwOoSvHqZELg8bFsqTyc/RBPQpi6iIDcI7bBkiO23KvDxOG6OY12L5FF/bYNEVrmudsGY4UiifhACyPrUOgkCS8r07yJNq52lSKKj5Umgle5L+5D79gkDQyATygUlHtK8UcH8ZDIpEchPKzkcCInjcWLRCA5HjMX7f38ZvjN64XyfxpH73iSc2zM5tZ5Dq9fIMbdZFwfgyMi2rdHl5uTHuPk7Z4gpPIfna3nvnrrsumPOs23ENkB9nDWBnGzo0nBt5GoV5e3apdQQEqpbyRRgOVIbaGnNPTspk7169esX3RUFgsSnanzrrFgG6nR+7cpr335877LBx4ppqzt5L4sv7ofKjV4hNdqe0LDo+oU+wU9zDNlOi9/zz//fhN4+Y6eaF+nyw+70Dxtt7z5A5bq2o8KW2m3lgepMVJsMkqZMVfl08JGUmrakxHx8HA/HN3MtSz57GtuMv5uvYLNq0dT02bg6QFO3BIcPA0iLPC3nDMsuEFd6mqtNTT1cIb+c9rIhdvgPdbFe2y7fkMfmZH3lk0MXpebvvHmwn0RFESse6ySS+F4M+C0FUFkmMKPRJ/B8fe2aLm7eYsdvoiSf85dpsg7nv+lvfFXs0Yz4sy2z6hIutACmDngHnQ2nDYDNG7vSHosFDtUZkQ4+Jl5sEI0XRxqSWX3T56L23PPC36bcwyLe2SFhrzzyT/615VDxFL5c6a49A1bp8kvK1fzgd9grRvEPhiwZ97lykjdGLO/H4Yxaa4JXei/V8dPTsPK/nnReYEZrRrB7XXx/G8mJk4D5mSUiCvhIE2W34q5VDIe7zmnslJzrGI+SsdxZXDKN8VPZZgRj3U7hOhRi232GtKeWN9RpmvgqahKnop63g2JocknT5msBaYlAaJNkioAY9F/f8qFG/o21iz2HKjzZ9UQSsCxUFillJhGnZTdDoBYQ6P7WaIsARj36XN8V2iuNlr73CE6XRe6ip1TcCrSnlxdgsjGMl+tCavO0UY9MkPJ3zQ1t/Adyo+FjUcXbhZGQrZv5FpIbXMjaGIIKejs+84y96Jux9hY2phmuQHi/qn7k4RNqI2+cbRNrND5BamyHAjIOEWbAmvd4yroaeSNvU6hKBqqV8Ee+rG6xExNclDmlSNUeAA5byzT1PfPPweXP66SEUh4cvH6/JoC+km90YDTuNntC3KlDT+VnJcKZ44XycwE5H6MpysOKOOwaRL9lq7bWDjb4CPtSa32cXuYBnkCe4F+zkWR57bM7jSIEVnegLUFzKd6IbTLfS+giomCMMT/kpIR75MpG0dTmwXnJjNSYBgl7Ejhdx7yVmT+PwI0Ck46y8cpD78m8F2jz0ULfgA7RNsDVgJiboq8inbf0b7WIjSpcg9G2qLLyyIoRpptYpECjifR0zZszHqg5V1mYSt9t+Ldnl2w/7ZlyZms6kw/MXhb7YHuZAcR9atN0rxBQ0/SWzRR48e/bT9x1vhukCXfvY1LzU2hQBcfR2VOxmFnApV4z1RTIm2nRG6WJ5BKq22BSR8h0I1iTlO9DDyk+Vsk7ui7CPoYBMPYI1oxtowgmyvX8ZesIvfx5/1pleHnr7lH9YsKCkfEe81w44ZzsqZWnlUKiRYq1VCD61+kCgailfqcVm9OjRjz322HvvvYeFWLYU2oOpBEWklhBoPgI4m9DYxCB9uZnK7oj1YMofG6/Z7Zrn95twdDbkvYMm27j/6uPf/vUsC4YqiWPr77AUoVqzJAj2HzEiaJnMPOIwk7rZ/IdQ+gyOF/QJtldkvWBNjVeWoa2K4kalL5I+aVMEytJfors84IADJMQW1oqafvrpzzjjDFzzZU+v6QFdk3m4ppC2zeCffRaqKPz975maJQ2a4jtvv/nz14edgJD77dzsC3V/LU+qPMkk2XzzhSIceLr32SeUzZppplDBJ7XaIoBxevnls5Eja3uVNHo5BKpmHi6jyzOJbLvttv9Ak/T79tFHH+2zzz6ffPLJUYx3qSUEmomAfaAwm6ItcKDNOV5uyEG5SbPZDzvs+RlWf/u825/4ar6o7KutHSsNCwbhKeTyPfXUoMvT9OeZJ+T6VMKJWfS6qbM4AoxrwisRnIFY8KxUaZ53XEZS2DhOEtzFUauv3jJ2+QceeGCVVVahMpv1+OOPP9FEE1lvfvjhB9JfzySTTPL666/P2H6m02SXr69vU+vOxndMVB/rjAhuNJYiQHKB1gxDt9g/8j1G7zDrxyZ/1iE4jGO8JuIdkTxJCrXCM/HzFwuF/kxSHJoL/BhWVImTiJBQJiSIWwHiioao2i7fRPGIcOFHH300inicZYrBfv3111999dUTTzyxsji4XO677757BsFVagmBWiAg/obyiP8eC6NiI4ov5AIVArotRMVUSYxb/isQ88ILQzCI3CsRIt7vumvIxpJi5RjvUfb6kloe8g2lIz59lRwuvTSQu6RWBgGbpk03zT37bG6VVYKg14RJyWrDh2NvlVrdI1DGYhNZJ1nhzz777MkEV43V6BdbbLFhw4bxwbLUTxBYClNLCNQMAQojpZ5A6d8/aPSzzy6RipJOuDPUHHBASNEXgE/ii9IhykXxx8IpfLkjRwanrrOtF2gcKaDUfKG/qHlFjvTuHTy3MrkM2LwmCNQ1bCLQOjZI6m3eQB3qaHVLEOCIsfYgkN7IakNdBAG5y/ZN0t785R+HctPUFtDz8gibPqxDYVPvk23a4k9t7969+1xzzcVKU3jkZ599RsRzyTLNNz1CTT9N3teawlsvgyt0e+ihoToy3+ubb1Y+q6++CmW0zzknGzQoW3TRbLLJQv3a+JpqqmzFFYNPUT3txx7Lvvuu4lFHj86WWiqbcspsuumyOefMnnmm4jM7/oEXXpjNMUf23/+GO7n//qxHj2zxxQMOef84cEeNCp+qGHzKKaGU9Suv/Aau5zhsWDbXXBk3+hprhI9Saw4CVXtfA5lBE43he9ddd6W/n3vuuT/++GM88ttvv91vv/1o8UOVfm7XlqR8u8LfhhcXzXXIIUGazD9/9t57VVzYAJ9+mj34YLbggtk882QLLBBETZROE0wQqi3365cdcEAI+3n99SCXSKTibZddwvlDhmTXXZdtt11YK9o70qz4PGvRqzT1yitnM84Y/qr27om4d2spyBSrPu64bPvtxwH35JPjwFVsvlevrG/fbNttQzjU5JOH8uXW1QEDsoUW6kLQtcbjqFrKl/G+vvHGG/vvv/+dd95JxM8777zzzDOP6MmRI0e+++674uVXWmkl4fNxt8Kec3GxGrDffPMNF66zll9++aIh9jESHwh9+/adxTZwLIvO008/LQU3jjzttNOyDhXdEyXva1FYOmcni4zyI0JqGAduuYVTKNQ04YptpvfvpJMCu84VVwSDAau9pFyEPGzOTDf5euiME5F4R6g+KwWn7oSffRjiTO64I0SRO0ebZJKfBx81/lGDAy/PWGNml2hi56VKAesPfwisdaXAR3DBeaKQIRI7tnt2NEVO2Hkw20EfebJft7JkTHCJnK7i703V3tcyUp7Fpom6r4XTm3rqqVlvGkyYYWfVVVclo3v06GGoO+64Y3YEtQXt/vvv33zzzddYYw3bhVtuuUWlWe+tKA5j/Y+egH79+u1WghY1SfmKvyGd4kCu0oMPDoJeMpVGxCy/fMiP4mmtuBFTCm/wHVo12JD//vfA1yLfk1zCwcCOH0N3EOCP9903fXLPrz3hnRtMdtcCPzxrXcly3X7Mdf8yN8WD8263wbun/zLml/HmnL3bSy+mvKym4PfULMnqA4t+hbIa8VwllkZURbiNmPJTqwyBqqV8GYvN448/XpgM1cR7tQMbb0oGDx684YYbsqv4iKTecccdGxyz6aab7rvvvrHz8MMPX2uttbznA5h55plx3DcesEFPstiUhaizHcBEsMgiwbjObHLNNeH9HntUcY+sPszCY8Y0OpWl5pVXfj773FFLbfjfbjNEK/6Y8bo/0m3ZY3J/WTF37yq5f33ebcovl1p1zOy9fTpmxlmrsyA1unAX6HjqqWCx2X//7LLLsmWXzVZaqbRdrAug0fxbrNpiUyZCZpppptle0FkFTex846Mo78z60aqz/vrrE/T0dO7c/JGid2ICrfXDmyljQcuxRhvnUv9p9PPPP79PGw+eeroiAjRwIZXy7//979zmmweFXJaUSEkkCYI98n+FdbOi+E6KAmzcRo6c5aKLxlXSQK3u20W1pFciW2BDeOut8X76aWaBO3PNluu3vXCc8Vdcaa5sms+fGe+XJ0Nl7FV/enzT5y/r9r/Fe+S+33302W8uttGRy9zee8mponlH4EniAmgMeeiRy6BA2PHHh7pgQmMViE+/6+JItXJvGYtNS67GsD7ffPOdf/75f/SbzAlrG8k0/9Zbb4nMyQ/76aefDhw40ArBYvPf//73kksumW222ZxIx+cGsHZde+21u++++yHi5graCy+8YBwdLDbYF6wHpQz3LZl/OrceEbD9Z2ERQcnyQi4z/rKSswD86sUZN2cyeuqpw0t91Lz094bjh11RYXFmZZmyV10VKHUUU2WYj9Z2egbbMf4WGSEu1IhmfautwurAaBSygg756YDXd9n6x+E359beKHctY47DXUFOKIkvV5RNv3HpbAuTIov+slgkKVeP37F6nVPVFpsyunxL7jfuSArVcD0NBrzmmmvIaxE7pPxZZ51FXrPqCNIn3OOJ22yzDcs+2/0cBSVspGLdpYzZ2PZ5vkBRS+aazu0oCNDN5Vtyw265ZdDWOUxJatHvJLWitF4yo7yUK/RXcLceWn/+i8flSrL6q98igflMgg8rv1hvuggFU0R9j6YqlQuudzXH2id8/vkEs910du70D9a+7eZ/L7DHXRuc8+SzE3A3ck+qv6RxD0sMjxLfXxfhADBxx2i8j6hDfu+o6iiPIc2zIyFQkZRnS6E+C4bJx73EWySa11bcp0RjmREe46z4uTc8tIoI5g83mljM4447ju1eJ1s8Eb/VVltx1ebXhsUXX1zIJi7MQilP9GtOid7XEtdP3Z0UgR12CBqyKBmmP3t/qjfBLQ5mLAXC75rEJYo3Bl1CP78GiM+xNogSYVtZYYVQbPaBB0J1qsr0anEi8q3oGMam8c8440S5JUZYHpZ/dvjyk8yeu+UvFg5Xo63H5CzsyqwUXprvvrVBgAk+Tpr+3/4WViuLVGoJgZoiUF7K33rrrWwmQicba+Jl676y1Yic2XLLLUntm2++ecUVV8SEY9/x/vvvzznnnDr9F2VCvENvLBs6LSrxjX5qu8UgRljWFIg0eIdBgCaOot6rbKOVe1GnadH5RhunQiNmEZkjsZZ892llIj6OwagzYEDBtY1Diq+0UuBjmGWWiQYOFPfrxSykMSZZX6LEF8DDwsTmpBCT5pocCljb2KsJfQwNvAkpl7wA2fS2dRAoI+XfeecdyvUXFKKqGt5Kkn3QoEHUc9YYcfeGef7554VLWjYmn3xywfgHHXSQHmL98ssvZ3+3ctx9992nnHLKkksuiScHHaYgHEtCVddPJyUEGiGg6CChS6xyknIRXXttY+N7o3PKdbD4G4cdB2WjRYXl59dmSWKT8UKbozEIkekOpOOLvFfl3HmMRho13xaFKT9aeETxY+78NR3ldxOwcjBBFfUrl5to+rwrIlDG+8p3uovo4lC5bTxe0wasNTRxwrpp2L788kvCnT6++uqri9hxMJ1d0tMKK6xAsvsvVkucaNH2sgB9ZiwJmp63337b5ZZaaikxNqUukeLlSyGT+ssgIDLHJpIi38i/WubEJj4Wn7PuusGOdN99QVoXa5R+9dDXWy/IaNVVzz8/yH0aPTXf6+WXA8tvJFAj31mHyHrrkYXBL0OuFvVfUpHErkgnI+CnsXe32GVTX2dAoGrvaxkpf+KJJ9KvxcBcd911SyyxRJTLhYAVBsy0PZBJyrc95umKTSGAElP9KgGdTDPF/Kp0cE5fXJj0ceE6/AKFtiKcvrR78T4xMytSaUahz0NMoAtBMDB7kZ3B2WeHc60szbE2NTX39FmdI1C1lC9jsenTpw8tnl9UAmrkp6xzINL0EgLtiQBuTNr4X/4SKPDF9jSqmkkii+H0KtqIctGbXrHEioAcuQFkPfMOuW/7wetrnZCvy7PAeUyjF3Ter19uvvkC12YS90VRTZ1ldHlJTCwtDz30kEj2AQMG1JugT7p8+gbXHQK0dPw4DCtrrhl8vE3GZTZr8jR93PrI9ol15h2iP0+ab3kg5dmfonmHuYiLuBVtUc2aZzq4RghUrcuXkfKmK1lJNhMrOaoyXtBC07xYSQHvNbqlSoZNUr4SlNIxbY2AjC3auCjP7bYLpvfW85Oyz4g6Fn+JgUdmlqwvm4do3ok2/ZgYEPJ25xrnyGXTx7zGJRw1fVGjIjiFU/ANyGpvvam1NcZd8HpVS/kyFhti9IgjjiDivXl1bCsEtzD4vQuCnm45IVAcAYHxONRE0uBRYKNX7qqVjCmrrhqGPPnkULJJKKmgUIJeHSeNpo9hLer45L7EK4xssWCz6B2aPnFvLoI4hflLuz3yyMAUiW4gtU6PQBld/r777hPzHosCNsaibLx841Natyfp8q2LZxqtNREQJ6+EHlFKeZbJ1bZN4pcS3JFlk22H0OcviC1q+rR4q8IllwQjT17Tb9s5pqs1D4Fa6fKPPfZYFPEYaRZeeOFJI+Prr3OrNzN98zBLRycEaoqAIHrqND6cPfcMujRatDZs4jlFIHsxHTHjxIxcwTkCNKn/hL6MYNw/7DY2HmI0BelT9v1FwiPguYBRsA0nnS5VGwTKWGwiw/tMM81E3Pfs2bM2c0ijJgQ6KQKyagXEEKWC5KUEtlPFDOYiolzBFRQ6556bO+us4JsV8KmwB04emj4+BslZXhr5zrBD1ueF/tjSPuOaUrqi9dFDiAFVNdeCkVr9I1BGyq+55pqEO8NIviZU/d9SmmFCoI4QYJ3ngBUcw216zz3BK9ryJraGg5fK3UznqU0FKk2bClo8OU6smw5N339x7xD30ayvxBOyH/sQjXmHph8lvnVi771DGKg9gVogAv9FdqZInpY/z1qPUMYuz1yj4isegnXWWcffueeeuzDGBudMnhG+1hMtOn6yyxeFJXXWFwLk6AknhCB6EY6C6FuiAEuROuaYkBBFD19qqdywYSHappmNgR7VGoW91BrBvMOnQMGPQl/Aft6mb1sg2csKQcG3eKF648ttJddyM2+j6x1etV2+jJRXx2O55ZZDHwZSMp1G728eXgwHX/u2tV9LUr79sE9Xbg4CBP1eewVbCaFISf69f6sZA1GhUeUMGRJi44XLSJqiUdeY4czKEqN3LC6uhpyN0I81cln5JWfR9PPmHQm6BbSzzbizdGhZBKqW8mUsNi4cRbw3OCkbBNs0oLUpO8t0QEKgiyJANxL/iPQJ8fyOO4Zip+T+ZpsFY3mpRrhi7ZYEJUon//e550IN1f32y00+ea5//1A+m6CX+VrLRuXnSPaadtpgx8e8adbYPFXtXmaZkJp7221BqddYb4TroNzJ+3Ip/oWaPuogjNFgsNjJ7UqbgFo+t9/GLi/l22Ye6SoJgU6OABWXJk628cfSh1k9+DEFtC+3nHIkRQQ6Wcj4nm8koh0A5VkyLfnOmHLllUFMnnZa7tBDi3LmtDqeLPKnnBIC7TEriN654YYwd42mHwnX/BW7ee+9uTvuGHdxNxo1fX8Ryw4cGPqda1uwxx65Y49t9TmmAYsgUMZigz9Sge8i543tYsBZRURw+7VksWk/7NOVq0IADf2jjwauMkQ3xCE5TmrzprKFx0aOU57Fs2Em84rVUajE3nC30p+VMBQrwyVqc0DfZ2J3sKI6MmLp27VvbLRUcnp90WhLlhw1dEVq8uXGFxP/WItvWJJsYJZdNvhvbUikd3EFs+8njb7Ch1a1xaaMlG/68j/88APTfNPH1PTTJOVrCm8avPURIJ1FINLiyUICnYQTbRmFeJTpvKJedOBSDUcBxuGY/IoVXK0pXAfsNjJc0R3sv3+RmlmlhmqTfjfKzkTiE+skPkFvYYpNQKcsXGo+gmWOBgsZQ1RqpRBoUykf2Q5GjBhx0003qRRYak5t0J+kfBuAnC7RmgiIpyTcxckoMu6vxqrdQm1WXXIVSU48MVjw6fUYjen1xXiPW/NGmj+WmBxuY+GbWHRM9rGmx4JWAAAgAElEQVTHApcyu5RtDNFvA4PBU8RQ3pfrPSsXtPLN1oW8YS8SXqQATFdrbSTlMZfdcMMN5HvMiU0MB13te5but6UIMFKoNELOkeyqk6sqwhPbKo2GjDyHGUfOEgs+Ezi9vlXC81tleqE6UFiAhNgrfEhSM837rxRc5p3IrkzltydByBMbvR7PGh2fL9dffl3hRSJRyXcB/nwcBSW5WmmK9T1MbaW84k2q9BHuqvrly7QCJEn5+v5WpNnVJQLEGKsL07y65AR96zaD8+5SlclLsp4cZSCqG1nPQM90w24jOKdxlSuqOg8FRsS8Td+CZW0AVfQ6ey/JzEtApyWBXl91SGrrot42o9VEyrOHKK59xRVXoBd+z5P5fevVq5fM2EuVvWm/liw27Yd9unIdI0CvF7HI+m/rwF6PX+GAA5qK2qzXW4lCP2r60gw++2xcuUTztRfKh2wy8ogmtUXo3K2Vpfzo0aOvuuqqyy67jNldydbG2O25555HH310+5YDNKsk5Rs/mtSTEBiHANVXtGWU9SJ56PVkPRP4xRePI5hn8mihS6ANsVaVnY4vlFOwJipNkUpMOpYBOwA34f5EGPHiRl+uOFVW/gZRQPYEeHjsFeQg9+7dgW59HMpVS/mQ69S4YRuW41rYevTo0b9//+OPPz52nnXWWY3PavseWVqq0b7xxhttf+l0xYRAx0Dgu++yCy/M5psvk9g4ySTZ5JNniyySDRyY9eyZDR3aMW5h7Cz/859sllmyZZbJNtssm2KK7Jhjsm++yZ57LhsxIttnn6xfv2yaacItxlf37tm882YbbhgOu+WW7N13s59+ynbfPevRI5tnngDD8cdnv/zSge4+TPX777+fY4452M+bO+/iWVF05Lh8sLz37dt300033WCDDWaYYYZ33333UCkYqSUEEgIdBQFargjLzTcPej0bvdge2qzsVYHrzPf4MunANeZIaBWoOBeE5bAQCyJVoU6iDmO9QEwvuxRblEi/I10sWnjkBd98c+6f/wwXp9SL2nTrQpxkHMtCQ9zGC8672xVacSmfv/PJJ5+8X79+K620EhFfyGDTFaBJ95gQ6DwIiEnEi4ndTNGQd94ZxzLs9kT4CFMnKQWyeHnTRKh+e8OBpf/gg4tPgtHGLQq+9CLHNULfjebzs554InhxLQ9eojatCqKQOHJZeKIBpxR3W/HrdajeMlL+448/HjJkyHHHHaeECI1+SV+R1BICCYEOioCKgmI3vfgxsadJWCLiVYy9+upxfAmYaCRnkXyxTDj/poTbQk1flIxkeGWo+vbNzTtvs23bCHnOOy8E2SCyIYxrmVNpbBP0or9rsscUXRdoimP59tvDtsACoHSiRr6LzsznZzHu294UraYhM0Heb8erslLUxHPbbbetvfba8lobWOcVh4o9p59+etET27gz2eXbGPB0uY6NwBdfZP37Z5NOmvXqlc06a/bkk+F2mLdHjsyuuCLbf/9g3p5yyt/M246cf/5gCD/55Ozuu7MPP8wGDAinL7hgsG2femrz0HjnnWBZX3nlYEefYYZshx2ad3rLjv7++2zFFbPZZss23jibbrps882zt97K7rwzO+GEbJNNghF/vPHG3Xe3btm002bLLpvttls2bFj21FPZ//4XjPjnnhumz+LPr/Hggy2bTVVnV22Xb4rhQKTN38e25557Ls9MGZUYbJQrr7zyZpttNojJr/1airFpP+zTlTsmAkwVAk3EprDPFFWlxayItaflimjxVywmQ3h01DGEe4NwjU3/4YeDPoxfUycFX7+/zm3iRYU32tJLBz2ZtwDbmbIqzCVF1eYaoIs0iLmGCi91lj+i0EQDFUr6s8+Os+l7IykXSBpbEJwYghj6sRCpsSVbWeEvlEJtNfFxWFQdY9OUlI9jk+/PPvvs5ZdfLrbyQ4s5PH5tKSuqBl/FNGRCoJ4QYKQg8Ig9bk2mHiQKWoEQKG60KRqgGc+yKngTlw2ClhtAVKPcVi8SH6uPAP+ip7chKmbHVcsu5abjrVsZ84RyUtmgsvbawQPMvGPWXLttMOUaSvk8tj/++CNLjiD6u+66K2bAJinfhl+8dKmEQHsjwHmLLBiPghwamv4hhwTdGPMAYd3Ei1hn2feX8o50QXYTyY5px1aA91MCq1WEIh2bIyU4EZxR6CMpNn6+6qCDFa7lTvjTnwIxZ1FWzNqAdNxxgW1NvoFo/QcfDH+J9fyyZZ0y5RiqL26ncMqF05HAoGQAOs/qNgFtIeXz0/3ggw+w2VxyySUjR44sJDyoDbxNjZosNk2hkz5LCLQuAugTlBFheBGZg2Rgu+1CklLlSixWYlJeThYLiICYCy8MTDTUZq5gWwQ6c3yxjFCVWX40hh1CkYJPiCIpVsGEscjVrTSbbJI7/fTWvb8mRnPTTFyMVcsvHy5uv3HmmWGFstiZNboF5p1IsOzOZOFKy8qnaAkNsnix8wjfVGaL4u8+0Ik2t7WplM9P7pVXXpnfYtt+LUn59sM+XblLIoA7gd0GvwxpV121J/KSQksKkuBFm42C8WnLZCcJyv4tLCafgS+lldAnI3fbLUQHUZvbqll95BGbGv4hiQeF5XstScw7cb7kvnmZchT6ZodtmoIvlNM6ofqvIxX7uu++8N9mtfaR8s2aYi0OTlK+FqimMRMCdYQAnykbORHLQITBkhbtL7ctpZ7NR6xn/TVTZlWKmr4ULS/ltGKlXEr9v/6VO/74UEpl8ODmTb1qKV8mXr55s0hHJwQSAgmB1kWABYStxkuOE356Bh8mj7/+NdRaYQ6vy2bKsRgM94HGfK/c78Ybhx2AhAHhOjYzbZl8lqR8XX5N0qQSAgmBBgjIVWXAiaTyaItZx9vQ+9qSp8FzwZ2BbFn85YABIQeZET8m6LZk2MrPLSjEUvlJ6ciEQEIgIdDGCPDZnnNOCPZ/6KEg7ptr1W7j2f7+crR77ow11wzmGq5MBqeky7frA0kXTwgkBOoWAVp84/ojdTvbgokR6wxO7dKSLt8usKeLJgQSAgmBNkKgjJRXK+rmm2/GaNxG00mXSQgkBBICCYFWRaCMlBcRv9566/Xp0+ewww57DQdFagmBhEBCICHQoRAoI+XdC+Kat956C/nwQgsttOqqq2I4+EIF+tQSAgmBhEBCoCMgUEbKKx4y9a85XmjL7rnnnm222WaBBRbYddddn8LIWUha1BHuNs0xIZAQSAh0NQTKSHn0wu+///6NN9645ZZbTotQYmzDTHneeecttdRSiy++uAKwH0nzSi0hkBBICCQE6hKBMlLenNUSUVFkxIgRbPT/+Mc/BgwYoNK3foo83vm99tqL1Z6sz5eKrcvbTJNKCCQEEgJdFIHyUj4PzJRTTjnvvPPOOuusk6CSKGiqBu69997Dhw8vBeG333779ddfl/pUP2LLL7/8soH9Rx2ozz//vEH1kiYGSR8lBBICCYGEQGMEKpLyxPQVV1zB9cpKc9ppp32KLSgUSxzffwcOHEi1J6DZcBqPTsH/85//vMQSSzhyp512+iHPw//roYw/66yzjk+XWWaZ/v37j8LkNrY9/fTTyy677Iorrti3b9/777+/8cipJyGQEEgIJAQqQaCMlFcUkJieZ555ttpqq3vvvVchEYPS5TfZZBOe2Icffviiiy469NBDdb6rFECjpsLUHXfc8dBDDz355JOvv/76X3EM/b4dffTRCsmy/GjcvH/By5nLKW+49dZb77zzzs8///zgwYP5e1NUTyNoU0dCICGQEKgIgTJSnmQ/5ZRT/ov6fmybbrrpDjzwQMJXMdjll19+PPVfcijW5vG3qF3eYdtuu22vXr0mnXTSXXbZRU1BdpjCeX322WdLLrkk03/37t1p9FR7n0rF0k+4WwBE66tIldT5QtDS+4RAQiAhUDkClXJScrES01tsscUUU0zRYPTFFlts6NChZHGDfgKd/r6n+ihj23zzzffee+9Jo5188snzR+6zzz4HHHCAUiTsPxT/o446ykevvvrqnHPOOeHYMmAWEqsIx++6666bP2vMmDHRXm9pKbq65I9MbxICCYGEQBdHoIyUJ2qZywXSrLLKKtTtomCRwryvjT8iiInjvPRnvmfwaaDL0+LZZ5h9SHnvZ8PKPNZiU7hmOFFP4fjHHHPMpZdeGnuUJ2x86dSTEEgIJAQSAhGBMlK+X79+QmtYThqozP4btelSot/oVgiGGsEz8Ups6/4bNfTYQ+Lvvvvum2+++f6qQeZy559//qBBgx599NGpppoqf5Z+7/UUPjB0CwcffLAeXl+Go8KP0vuEQEIgIZAQKESgjF0et8HqY1u0mOfPFDg/zTTTzKKAS+nG2CJt6jFVu8a2xx9/fMEFFyyMwiTlDSuTNh7gDWevqlcLL7zw22+/LYxSPy3+xRdfNE7hdSwVFHyNyh99A6VnkT5JCCQEEgJdGoEyunwpbJhivvnmm7LB7HvssccGG2wgJpJwP/3005nvbQtIbQQJt99+O9Xe+nH88cez9bPYMMoLndRJ3P/hD3+g4LPpX3LJJb1791566aVLzST1JwQSAgmBhEATCFQj5Zlr6NpNDJr/iHRmQB82bJj14OSTT44e1Mkmm0wUPLHuMNH3Z599to/YXpj+2fctAxpOtJNOOkkYpTysa6+9ttDOU8l10zEJgYRAQiAhEBHoVpRxDMnwhhtu6AgGE0Ybb7hY86I2SnmmFRHunyiv3n7NTMRfCtCk77ffLNKVEwIJgYRAzREgctk5Ro4cGTlmKr9ecV3ecMYqHEVMZONBGdAbd6aehEBCICGQEKgfBMp4X5uYqLD3Qw45pIkD0kcJgYRAQiAh0O4IFNflZ5ppJimvJoe34IwzzvAG90A+nFFYiyRYpMQzzjhju99AmkBCICGQEEgINIFAcSkvSnK//fZzGv6Zc88915sdd9wxpiw1MVb6KCGQEEgIJATqDYHiUj4/y0UWWeSdd97x33wJkXq7gTSfhEBCICGQEGgCgSJSXtRjzEhieRfvGEMe0YcVHSVJ/6KwpM6EQEIgIVAnCBSR8sjCYvDMhRdeKFsV83upuWKewT5W6tPUnxBICCQEEgLtjkARKW9OhUH0RQPq233eaQIJgYRAQiAhUAkC1UdSVjJ6OiYhkBBICCQE2heBIrr8XHPN9cQTT5jWHHPMgQ4svi86S1QERftTZ0IgIZAQSAjUCQJFpLz0WZVa8/MrfF8nk07TSAgkBBICCYEKEUgWmwqBSoclBBICCYEOiUARXf79998/8sgjK7kb/GXnnHNOJUemYxICCYGEQEKgXRAoIuUVdRo+fHgls2G1T1K+EqDSMQmBhEBCoL0QSBab9kI+XTchkBBICLQFAkV0+Z49e2600UaVXDwV96gEpXRMQiAhkBBoRwSKSPlZZ5316quvbsc5pUsnBBICCYGEQGshkCw2rYVkGichkBBICNQjAkV0+R9//BGtvMkike/evfuoUaNKTVxWVCrFVwqc1J8QSAgkBOoBgSJSXvG/xFZWD88mzSEhkBBICLQcgSJS3qCJrazlyKYREgIJgYRAPSCQ7PL18BTSHBICCYGEQK0QKKLLzzPPPK+99poLRrt8fF/0+omtrCgsqTMhkBBICNQPAkWkPI/r3HPPnZ9i4fv6mXeaSUIgIZAQSAhUgkARKV/0tI8//lilb/E2E0wwAWV/scUWm3TSSYsemToTAgmBhEBCoH4QKC/lf/jhhyFDhpx77rmxGKypM9TMPvvsOrfYYotktKmfZ5lmkhBICCQEGiNQRsr/8ssvO+644+WXX94g6ubtt9/edtttv/rqq1133bXxoKknIZAQSAgkBOoEgTIxNo8++ujf//73vIhnrhl//PHj1H/++efBgwd//fXXdXInaRoJgYRAQiAh0BiBMlL+4YcfJs2dtskmm7z00kvffffdN998c9999y2++OI62XBefPHFxoOmnoRAQiAhkBCoEwTKSPnxxgsHCKm84IILFlhgAbr8RBNNtMIKK+Rp5eMBdXIzaRoJgYRAQiAh0ACBMlJ+ueWWI9knm2wywr3wzGmmmcZ/e/XqtdBCCyVMEwIJgYRAQqBuESgj5fv27bvlllvytV555ZU8sfE2RN2ceuqpDPTCbFI8Zd0+2jSxhEBCICEAgSIxNoLiDz300Dw6ZLpqIdttt93QoUPnm2++MWPGPPPMM++8887000/PN7vTTjslHBMCCYGEQEKgbhHoVhgiGWfJy9qnT59KZqzuK39sJUfW6Bjbi6WWWuqqq65KBMg1QjgNmxBICNQJAv/73/84R0eOHNmjR49mTamMxaZZY6WDEwIJgYRAQqDeEChisZliiikktVYy0VT3tRKU0jEJgYRAQqAdESgi5WeZZZbLLrusHeeULp0QSAgkBBICrYVAsti0FpJpnIRAQiAhUI8IFNHli05TJVhxNeJtCj+VErXKKqsUPT51JgQSAgmBhEA9IFBeyr/11lvCJR944AExlA0Ccrh6v/3223q4jTSHhEBCICGQECiKQBkpT7JvuummmOWLnpw6EwIJgYRAQqDOEShjl3/wwQeffvpp98A4EyNqUB1EWkpvUuJrnT/dNL2EQEIgIVBGl3/qqadkHhHxKOZJ/LPPPvvggw9ec801d955Z/lQSInLIuis4cOH2xNgSnBig+NPP/105v58p9zaXXbZxcjHHHPM999/H/v79eu33nrrlb1QOiAhkBBICCQEGiNQRpf/8MMPnTPvvPNutNFGOMu879mzp3RTnJRvvPHGgQce2Dh1tvAaFokBAwYQ7ptttpl6I7fddluDGSy66KIYLrXll1/+pptuUnfQAXy8w4YNW3jhheNHc845Z+N5p57/b+/eoz+fqj6Ar+fpSWu5hCnlUpKuSEoUJZNUDDUZkSiimZKQVLpQbpUMUrKSRBNKSolCGBkpt5RINzQqEo3C0FLpsp7X8+xnnees7+d7+/1mfr/v9/ub/fvjt77f892fc/Z+n/PZZ5999tknEUgEEoFEoB8EetjyceHftGnT4v4QXx944AH1iqmn323JLly4sMv13yeeeOLuu+8uN71HzAonnHDCtttuW18iyE4PLm+77TYzyh577BFfOYW23357GY/7kSFpEoFEIBFIBDoh0MOWdw7Wk1wo/DbyDNPsZ5111jXXXCNzmXIXjNx9992dqkZs23bzzTcPgs0228yVI53y3jiHxXJ3nWwQ8/DMnj2bo0byS/eWdGoiyxOBRCARSAS6I9DDlg+1K1heohyp5JnhjHdJ56NSFncXc/uRRx6hoFdZZZUg9sFX6rvJkNnizDPPnDt3bvxkX9csImPa4sWLDz/8cJPKOeecU68ATj/99EsvvRSxiUSgZ7PCLEkEEoFEIBEIBHpoeZqdr+a+++5zNWDY2nLNF+zY6Vz2naD0oLAc00MQRAbjtndLXXbZZbQ/Z05QLr/88vw88XnevHkbbbTR7bffXmed3GSTTeIaE1r++uuv78RAlicCiUAikAj08Nisv/76VPB3v/tdSlaeYRY3tU53M7enT5/Opq5N7BY0Wfrrrrsuh3uU33rrrbz5bYMvqXKbtCuttFKzP8JlVKaKINhggw147f1tt912QdB8MEsSgUQgEUgEINDDll9uueW23HLLghRfzc0338ycp+Wf/OQnd1Hx8YjQGhuw9lTV4+ZYqpzq/8Mf/iAu84ADDlCIzNeLL75YwGVp5a677jKR8AUx8MVurr766maL7K1EIBFIBBKBcSDQQ8uXGrnO77///kWLFvHDuCVKPGVPFe9Z+t3FUvZdOWq4WQ488ECF99xzz8knnyywMrT8JZdc4t5B5nlpyybtfvvtpwkh87Z8XUY41qz54wAiH0kEEoFEYEoi0OauqBY5+b4vuuiio48+WsBMZCvjJNlqq62OPPLIPq/2fvDBB4XolG3YfnBkxdsMMA2suuqqXejzrqgu4ORPiUAiMJUQmMC7ooS7zJo166qrrioJKYW+nHfeeTw5CxYs6AdEVvmYVLw6eWysGLqr+H6aTppEIBFIBJZxBHrsvt5yyy2HHnroP//5zyZMjkfJc9A2MrJJnCWJQCKQCCQCA0Ggh5afP39+nGPinDnllFOuvPLKyy+//KijjlpttdWwK8CRD30gfGejiUAikAgkAv0g0GP3NdLHi3G88MILBdVEjdISiLDcYYcduOw7nWXtp+2kSQQSgUQgEZhoBHrY8g6giqVZc801hTPWrGy88ca+Cn3pcipqolnP+hOBRCARSAR6ItBDy2+99dYyUMoi0OKZkT+S9p8zZ064bno2kwSJQCKQCCQCA0GgjcdGCKO8MYUbiQduvPFG97vuuuuuHDW2WyWWOf/889dYY4005AfSZ9loIpAIJAL9I9AmXv7nP/+53O51FSWJPPu9fEYg58Fg/fIZL99/TydlIpAIjDQC446Xb2PLA6JW5W3V/UiDlcwnAolAIrDsINBGy8thUMJpugMhm013gvw1EUgEEoFEYLAItNHyLl+t72IdLH/ZeiKQCCQCicCSINAjxmZJqs5nE4FEIBFIBAaOQBtbvsmTTU4p5uUsk3OYP2e99dbbaaedWnZom09lSSKQCCQCicDAEeit5V3jt+eee0pPRtcXdo855phDDjnk4IMPli9+4DIkA4lAIpAIJAKdEOjtsTnooIPOPffcWsWry52uMg+76btTvVmeCCQCiUAiMAwI9NDyXDRnnHEGRkXKr7322tLKb7HFFnHnqntFpC3rFHM5DLIlD4lAIpAIJAI9tLy08i5souLdIvKrX/2Kd15aSh922WUX2C1cuFDygwQxEUgEEoFEYGgR6KHl77zzTqyz4t/5znc66RpiTJs27YgjjvCZOe/W1qGVLRlLBBKBRCAR6KHl43LX5i0ipaSf218T5UQgEUgEEoFBIdBDy6+zzjo4Y7Az3l0O5TNHPAPflqzP/Z+SHZR42W4ikAgkAss4Aj0iKe21rrDCCu4SmTt37mmnnSbRPCv+jjvueOihhwD37Gc/u89cCMs4yil+IpAIJAKDQqCHLb/WWmvtu+++mGPC33vvvTfddJOMlaHiXcDNwE+PzaB6LttNBBKBRKAfBHpoeVUcdthhs2fP5pypq1t++eWPP/74mTNn9tNG0iQCiUAikAgMCoEeHhtsufbv85///N577y3DgSxmkeFg1qxZT3nKUwbFdLabCCQCiUAi0CcCPbT81VdfLUZeXTvuuOOhhx7aZ6VJlggkAolAIjAkCPTQ8gsWLOCx4Xx/4xvfOCQcJxuJQCKQCCQC/SPQwy9f3DIrrbRS/5UmZSKQCCQCicCQINBDy8+YMUOspACbSy65ZEg4TjYSgUQgEUgE+kegh8dmxRVXPPbYY2297r///s5GvepVr1p55ZVL7Tw5cWyq//aSMhFIBBKBRGAyEeih5X/605/uuuuukXjyA//7VzMns83DDz88mexmW4lAIpAIJAJjQqCHx0ZdmVt4TIAmcSKQCCQCQ4VAby0/VOwmM4lAIpAIJAJjQqCHx2bDDTf8xS9+0anGTG/QCZksTwQSgURgSBDooeV53qUkGxJek41EIBFIBBKBsSLQTcu71/uKK6649dZbZa15yUte8pznPCeN97Him/SJQCKQCAwWgY5a3rV/O++8M3dN7L4+5jGP2WeffY477rj//M905Q+2y7L1RCARSATGgEB7lf3II4/stttukgyXAJu///3vJ5xwwrx588ZQd5ImAolAIpAIDBqB9lr+Bz/4wY033hi8Md7DUUPjn3TSSf/+978HzXO2nwgkAolAItAvAu21/FVXXRUVvO51r6Pxzz777NVWW03Jr3/96z/+8Y/91p10iUAikAgkAoNGoL2Wv+eeezAms/ynP/3pzTbbjIP+7W9/uxJXAz744IOD5jnbTwQSgUQgEegXgfZa3uWuKrDjuvrqq0dNkZySuyY9Nv1Cm3SJQCKQCAwBAu21fGGshE5mDOUQdFaykAgkAonAmBHoGEmpJv4ZN/9FlXfccUd8kJyy5Jpfe+21Bd50b9NV4N/73vcsDrbccstp06a1EMuGFneFR/kqq6yywQYb+Gyn94YbbrjtttvWX3/95z73ud2byF8TgUQgEUgEOiHQTcv/4x//OP/881uevPzyy0uJc1Kd6o3yP/3pTy9/+ctpai7+973vfZLUP/WpT60f+cY3vmFHN0pcPfia17zGHbO+Hn744d/85jclOj7iiCPe9ra3HXjggd0byl8TgUQgEUgE2iLQTcu3fWBMhSz9Zz3rWWeddZZwTIuAj33sY6eeempdAyUeX++77z6pFPbYYw9ff/Ob33zmM5+5/vrrTQm77777K1/5StmPyw7BmBhI4kQgEUgElnEE2mt5KrWf9DUthnkTyvnz57/jHe+I47Kvfe1rBeo4XWVTt0lp0SBYc4sttvDT97///ac97WlR+UYbbbTqqqted911Hm8+lSWJQCKQCCQC3RFor+WZ2MXK7v58l185fBYtWrTmmmsGjQ8M9r/97W9ttfwXv/jFPffcM/Z477rrrvKUZ31WUjd00003LVy4UAn3/f33388RlJZ+l47InxKBRGAKIECjspL/9a9/jVWW9lp+rLW0pe//+hE5cxy1/dKXvlTq6R7S87Of/YwTH7EmFi9ebKvgsY99bFsepnbhj3/8Y4nk1ltvvaktZlvplmXZHWfxCrziFa9oi8zULlyWZRfDQsvT9WPt4gnU8sstt9zjH//4u+++O3jyQYyNVMZNFk8//XSbtK4Rj58Y7+6YLWQerE175W/83z8fBO+/8IUvnDt3Lg9Ps9opX3LIIYesscYa++2335SXtCkg2ddaay3+wOZPU77kyiuvdBvzF77whSkvaVPAZVl2jhAmXVsV2gSqLukRL9/94Z6/CpK54IIL4iDVt771renTp3PX/PWvf73lllvK6Srxml/5ylfmzJlTauOdF0P529/+VsnNN9qryRUAABlOSURBVN/Mz/OiF72oZ1tJkAgkAolAItBEYAJteY0dcMABL3vZy9785jeLpORjufTSSxVS3Ntss40A/Ii7V87TJJCmMMcwt0+7ww47zJgxw67se9/7XhZrk/UsSQQSgUQgEeiJwH/07z3vWVdbAnlv6HEeJT6Zxz3ucWgcg7J9uvnmmz/qUY/y1T6qlUgchio14EokJZNfSP7zn//8tjUrRGYaUPOy6Zf/0Y9+xC/vOEInfKZw+bIsOx8mU8lCeQr3byfRlmXZWcNf//rXZZD8r/8am3U+4Vq+U29leSKQCCQCicAkIDCxfvlJECCbSAQSgUQgEeiCwAhoeesU8UNdZEDgcqsmwfhiS5v1DLCES4oUXfKABkGL2w09J9g44moHKGnbpnVrdyl6ErStdiQKe4rWiUB529dhJKQOJjl4u4uAoBlQODWGfU/Z2/Zjd0Ux7FpeiI6LxTfddNO3vOUtDkA1JZQJ58UvfvEmm2yy9957l8Rnf/7zn235esqzzkw1nxqJEhl+JPYRKsoDayejyfMvf/lLG9QI/HdDbxAcffTRAHErgL/TTjutywzRrHB4Sh5++GEpMXQrKb785S83GdPXtugR2OAxBloIBBqKy/rd737XfHD4S8guOjZklx2kyXCRXUfXsrvhx9FCDxoSBx98cPPBkSj53Oc+p++8vDJfNVU5dXbiiScSkJgf/vCHI0c6uS677DL5ED1owJxxxhkjIWmTSbITrZPs3vF3v/vdW221lbwv9bNSwoSiEMPyk5/8pFnt/2xgDu2feMonPOEJUlo+8MADb3rTmyj6FladDUFwzTXXiLa0KeHdCALR9Ia7A1MLFixAYIN3aGXsxBgTXmdT2V7pU0455elPf7qXvyZmrdualikIgctebF8rQaDEaPjLX/5if1LSCHFNnZoY5vL3v//92223nWx3Tj+JsCJLC7fmAD2u36+99tonPvGJdiMLAeJIleG03TDL2Ik3sm+//fYhu0PdTdmN85DdyC+yGx4mPKmivCxGvlejU/3DXG64usrCAHb66aUvfamjMC3cirYQg8cAcqSGQqTxEcDK0RzHKg17ZyRXXnnluLN6mCVt8hayM906yU6bHXbYYXpfQEp5nKIwsel3cS6OUFAUQGipfKi1PNZ33HHH4Fi3ibxsEYDBQqEHgZdBDI+xzuTXzQZKlHthjjnmmCamQ14SOpoGx6eOfOYzn3nRRRfVPDse4hyZ0wYKSS0LtJIWoWbOnPnRj350yCVtsudEBXGuuOKK+MkqTUhuTYZAX4vCikIWwAc/+MH4bKXPposrLUdRy4fsLJsQR0LWPmVn1D/vec/j4GriOUIlrNTSleeeey7bhbVe8296+8hHPhIl1PrGG2/sMzNOsqwwgyCwzjrrfOc73xkhqYPVnrIH2ZlnnllrecY7dRcWnqWP7JBOJrXIPtQeG5q9RFg6/uowrbVJvR5hsGy44YZRsu6663pDBFqZ5x0PKydpGbzI2qxihruI7PK1rbDCCtgk+DOe8YwWKRAQWSQlAscRGDgtBGY7erBLHOrQAsAalbmodH2zBxk7+pr4IQICaMTn448/nmkzusfoxi27HH+mRvO695yj0nXNQ9u/nRijmxhnJZ+5AeB1tlwr9DQ+U7cQiCG+8847WUIE32WXXRiFhoF0ts7Y82V1amU4y3lWm7K39VG38O8p734kBxNhKctkeRcK5djiLicZIJZ7qDntPvrRjyaJkpoHlmyoOYWi74PAlE5amjEo1YBskjlf8uZISrSSz6cpRQ2O5hDU4DD/Z8+ebc07ilHVepBp1qUHSaqv47xFLbsR/9WvftWaZsnxH1QN45adRrj44ost+PhtGLm0HoU4WudImOEm7/JG+8A4rbdhTQMIik5g3FCOhvqKK67o9CUb31RnM8bir9x0NKh+HGu7BOkue6cKu+uBeGqobXljtGyo6m+rkpZRWxOY54NAl8fnkFANozXWg208h3uqkxS17GhqMWFFxRs0Mn2O9QBFp8E0meV6MOIlusiur8vOW5H9Xe96lysKHKum7j1rVcc0nkzOl7ytcctuPLzgBS/YeuutKUcgUIgyAC45P5NZg2m7NlaMfzN9nbbF3A+fohNYbx5B8MMf/pCfxy4FT1fkPXR6aDI5X/K22sreNn1vS1vcNQUQP/mspIVmqLW8uwDFlhivmDZFm+pbMtoHQYjkoKyBbreKc8P0XuIr1DCKdwryRN1+++3RfzQa6Vqk8JUWC/vdcLdTHQR0n/0Z4RZnn302Y2fJx9/k12CY2oIrYUXNHrTlqK9vvfXW4K0Q6H0hVe95z3sOOuggP9m747OafP6XpMVxy84pXyJSwjs/chO8lStvTJmcXBf6pCc9yfUSBU+qkJemDAxb7lzw9L43Reo6xCjdKoqm6bVYkk6ZhGd7yt6JB34t2xKWgAgMAAu44sT+/0eGeY+C0018xTnnnEOMV7/61e4FDG633XZbb7jPyr3wtt3pOIlYbcYGgVSFbh3R99bvkZ5+mMVsy5sOk7mBwjJdcTjS4JauKOViFF3nAwIOaF8RCCnjiVainOzmQktX2zL+OLjb1j/khUQWJ2Nus42mi41dDLskUiRZcE5wdqt+t9dEubeEUYWZP4q7r6QjO1dbU3aDIWQ3zkN2I7/ILnpYv0vvaikjEkPywtiRG/KObmHv6quvpq+Z5DaZbCmdfPLJCEgkhoLF47N0KbbcmO3mAAqOvAqZO5Q7PxWNYcCItxFYOVqC47an7Ew6b7R4Cs53H2LMe+sFUFrF0gNC8qj4Zr8PdYwNyWkrEXVcjR/4wAfCg6FQcKjXO3pR4BSlj4Cmi0125YKKBNsqNDhE2o1cfwfDFPRee+1FlbsQ0TiOQi+wqSs+61f78ggEmUjhGYUOCsCn/M2bN28Uxbca42a1h2ZfocRLUOiiDEMcfX3ooYfqYr3vzW+RkTELgd///vcjKvuRRx4ZsnO1hwj9yM62FZMW46G8ICOHAGeLOcwcf9xxx0WADd09a9as0PJceVLYihk3EQqjDAIyGgMMQbYOlUfdIxs5wTFMdrZdU/ZQffyQ9avtcuyQ0R51KAqbMWH+tsieeWw6rYSyPBFIBBKBqYDAUPvlpwLAKUMikAgkAgNFILX8QOHPxhOBRCARmGAEUstPMMBZfSKQCCQCA0UgtfxA4c/GE4FEIBGYYARSy08wwFl9IpAIJAIDRSC1/EDhz8YTgUQgEZhgBIY6j80Eyz6x1QtiFehd2pg+fbqkQnWTjmUKcI4SJ9922223fg40TyzTE1m7LJtOsnRvwRF2Ed9OwZRsU042OdfW/aml+6s0trI3O1HpWvmSKseRNP3lcIZ8eU6dOIPjSI6DeA5a47l/BsT7f/azn0UvJNwhr/4fnKqUDgTIIdxdOn0hFaVrBhzqRukgWDn23P3B/PX/EBjFswMjwbNk0PUgc3CpZtupH0fSCwFNIffeSMg1biYpuJ5vnZx0XuD6yhQnYsbd4vgelNkVnyXltUqctHRnRckcV6TA7Yc+9KExtSKNcDy+zTbbjOnBqUrsEFDPUSHlpKRMp556alA6Dz9V0ZggudKW7znGlg4Bw81RVelZojpnuGtdtnTamCq1yBwrr3pIUxIQTppw5513nrZ22GGHaPHb3/62s8clralkh1LNOHIpo4DD5c4kTxpjy3hDjvXHqGhm41rGkekpfmr5nhAtHQJqwk0uRxxxRFQXd9x0qdqsLg8PfwUrxhJVusHuqcec5neonXNDevGolg664YYbuBpkgKpTPpVG/SQ/DAeFmnkeXCzVnR/MSLogP1RYtf77XPsrTGORQEZVzTygUtDIvlCasJSJpLJxeUKUq9NEKBOhq9G6MOOnRYsWOfDtLhGek+BBVgMTp3PwUri4IKz5OCRl/+BJUz8at+o0aeTG4JYxtfDG+BWxG8pCxbPcpRCR7lHlOOe64UO49957WyqRARhQEjCYq7RSp1RsNmdJJzmX/xJsyb7SJNA0nuXTVw9JW7L1tdA71s8HiCUZYCATv/IvaULH4d/YKMOj2ZYSo07+HFJLJmNINJcvaCBvbgMmAdVWEgVHhTFujSvt9jNuvRSRacvjmpbJIOpx84+MBfE5so5Lmu+vLdul0Csj1YdhWe4eiE5HIMFL23TE1tDwMWf7FW6SJnVvYiR/naA1QlZbe2zChKeCSz6KSJ5eTPsWj40rINx2Vr9j3ij3Y0Q+ssDWC8Zr7E9mm7e+9a2RgNAjcZmc1IwqjxrorE984hN1j1CF/CfqLE2oRwKQ+vI5uZOifv9dy+cFC2KpsmgQn5XXCWS8XfYVlBONYuo5AMomRMtdSB7kvi9NF48NR3YUuu4VD/G45njw+fHlnqUog0M/ka6+NYmu5FrhTC/y+iAjeX2PYDAs/5fXWFvxVT7b8lZ/8pOfbApFQZdCeRCBTyVFK/6b6khX++KKx0Z+HulWOB+CmBKXlqTOvmKoyMVUT5YGiT6qU7BJ5BeYxM1ZFFnU5t4oXNGzEp/VvexXWW7qXpYnKmow0/sMzJgy/TfPsQBqkQ1pKVbQByZq85RbOwqNGpgj9cSPMbjV47aJYSmpV7dm0BZKlxgHq3JPlp/Y9VHIbOJkC94wwEFqkMv4ZEoOTFC6D7au09zJwqg3w/Sdu+fkc+3C5Cj+NOzZykYR0+C51vIf//jHvRhGW4yzeNWNRS9hvDC1lveg7abyIpV3xuMl6aYmmFpBE69xDOUooQvUoKQUGr60djDGuqmvFqnJvAl80EGGvii42uy1M+mWhvipXMfokU996lNRSI+UHFJduq+Llm/rl5egKuq3Lql5Vkg3McHqQp+5yKJ1zOy8885FFngWWDzVksyS5Y7SPbqe9WDZO6GOmfldxGEP1guI0kSwF5m2PF60PClMzDXPNFTJy2bykJeqLc8yMlozBSdf+9rXgoa2ZX0XelreJEeWwkYttQFTboUtN64giMm75pyHpIgsR1i9miyclwv85s+f32ncyivXBbryU3ct39YvX1okFPFr5mU5DLOjFCK2XIjmGO8bbbRRW4QZWN37uh9ZhoomtfxEdUet5e0o2kEypAwgy+EYkfbfwnJUXrQ8+8syPwYfXUwHUcqiMqhphRQBgzE4Llqe7czMEagQGiqeZdgy2diq0a7CYjJT00GjUWn/rOWZYO6VjUKL1rBPay3vbZH2mYdaoldy4SGMJq9NZDamEEtUjLvI+8F03Foe2zKsktecFzz7H+lq+azKq7vTTjsFGwy6INMi/wC73rre3bBRyEVQLGiuA+stUPPGeNYNJMWLIvNlF6HUUJwJLE0+H+wxcouMckzG40XLa10GQQybVouCjts/UOIz2GPjs2oxhtLgicKyk1+0vHIOB8r0ggsugD9PXYnvIg4718rAqsiQixrY6bHWqe/VEgPmqzWZrN1BZhYMfccLVLzhvEZmUAIa1Wo+6aSTMMyFVULItAJAPEMglphwaC6bmnguiZbnOLKhwm9Zz45Slhqr1113nWVcSGTkRLvSOEcJt5IlqTFvOVhelqOOOqrJ3uiWpJafqL6rtbwXzHtuVDErvNvxgYqnN2OoFS3vnQ/jPfwelL4/L4yFcFAWfVG0vGEdekpQWtD4z/IKwYrqRxYl5U5Ub2NRcOVuHRwyS1HWWp67o3Ym+Dxjxoxo69hjj0XMURs+KHqfY7ofTMet5YW7hAegvuc22NAuTReMxb3PSizko8QHU2ZAShtGIeVFhQXD7hMHPnxiLcJfUTy5r3/967sIRQWXKzvMuIWyrCH4UoLnouW5YhYvXhyUc+bMCWb4Q6KkLLa4FArPRaczuuPZWsszBWoOyxaIqoyfkDoE1BarnJsLfa3l+X+ihjKQ9FFktC6zjtmdO7FuKAaG69TDZDYMONzKuC2TrmVrFwDjpyXR8pyWUYlU2wGmrjTdRmEZrpahSvAcV46gpNCDW/85zcrgqT1+PTkfcoIxhPqG/Pl/fAjQtl5soyFMSwEDxbCqK6QvDEEljCNmNVPOHzuFZzzILDlbGKDO4gUrBgsChUFW9JRBrETlJdaYpVMWsz4HPQ55flua4Jmp18I+77///jEbef/pLy6C2EoV11yz0VLPUvlKcYRK7UdeLRZxzj33XNotIC07e9QlP2wwxhiED0s2VioUVtlabO6y1rKY5GLbGTIFSQTlM11JWdePuBam+NzL3jiLMmhKLwvrLDybaeJX3gZ/dW0YFghUl5QaLr30UlKE1LYiYnRhhuVR0+vNshorGxg0XchVrl6iHIvBEY/HwAhPiBLDgGhl3BbFPdER7mXAl1FhiioXxLe8BdZzrP7g34owuPW/aHlraLLX+Iz054yxmaTusypnS7qINdrj8SzGbM1BGVteHi9nrVuDrFlSvKX1T7ULta7fSx7vucL6xrj6c3N8N0NW7E96hSzDvd4sRGagCmmKOopmgpAdk7x4KPLS2rHgaGHMLKXEf1djw8EOahBYlwjViDmAthJb0sQhKEMVxueYIeJzQRUPps+63To0pX4kaEoXdOe5VIjVlliXUkMEqNRNN3lWgtUyIGP+rh8ptSFr/oqygNxp3DYZWLolzVGBz7avmHbrEU6514M/uAoH6dLlcIC1pS0/eeCzf+N95pfngW3bMKdnKOtwZdq1a/njGW/7YJ+FBnRZq9Z3Y9afBaK11NacWmgfVw8i83q7xitMNjsKfA59cjJpZCX6kLXbiuZDD7HlY4sVAuxNfjCBp8EbqYvLRZxM+MpqtinuMAn5c6NnlcTF4kFWUOX8pU3qZ5uQ1r+WQEDOnLY8l32UwmoLnqUGnjq+9ZZKSF12JvrpiIIhea1Lmo8UAtqW1C3NYaD4fJrPLpWS7ni2NMG0Lzsuws+aCJvap5KiTy2/VMZYX5VwNYh63GeffcQCxwZs8zHLYUEUyjlYbHja27QEtpDnI+Y6FzbQdKc0K+leUvbWOCg4LlXOSo1tAw+Kv6xjD7pURWmGbWuvL8xhTuQhfDfK+SYLDn+c1Lj1n1uf1LojZIzDUDNnzqxtVUq27H9wfNv2tF3Be0PTcVIhjh1gy5qy9yim3ga7XkNZNn5t3rZdRnSCt/AsKMvmTfDMz8Dl7eZLJw86PVjKSw0XXnihSjwbUhs/Ir723HPPnjXUBBxcwb/RwgNu+5qA3D52LF1ViJJvykzmA1aN20AAMaxg7vGmp3FMDCxdYl1c3gJXwNue9bqRiLrXa/vuu69d5aXb4oBrG/J9g9Flr2X3ta0gzd1XZDZOyxKSZUTLMJSKJeg9j6qK9ilhAwZrGUyxt4aybPcJr4wH6fQSGakhRl8Jn2CQljjleve1U/YFAd2lRYuPMWUjGPfuq2QmIYgpsLRe4kRtw0ahKKMgo3eKx5nFRxk5alB8L/wzyCzh7YJ4sASSlv6yFx3zbtsX9Q1veENQ2ksvepypCOEy4Vk8FWRKd9QZDiyGovJNN900amP82mSOQjyL48RzObZWtoLL7itnNCVVePbBVz1eeCavGsgeNq9LU4O47L5ivkTH091BZniUC4dtaxd7Wd8RkBNSSYmktIXQHLfRy8bVRMfYxDXfhIrZmuCOiYiSCjHLlgaPYpSIAiqLWkrfaszyqPj0nV6swRz1z2nLt315B1koCIeqDdcNc8l+bGTI4ngVrtf2hOSY2KUs7MhxrFNDHMrsMut3NRj0tg1aNvG618ysK+5g5modst39wcn81UzJ3rTO8MHr6iwMu9JU592m9cJxwVfD0wLzOrlQMGllQ/Wz4ssOXpSH8rWfGV85RljucTCYSUg5sp1pNy4saBeF0qfg2mKD001mdzwzjfHMLlYhkPtxi+lcRnTpIPKqgezYpvHL4YM++UFmDeF8U8yOjHQCmmXVVuwPW/TOecVZvDJuURohGC5ncftvcUIp9dRll12m+wDF68gqMgbMCr6yn5rDYEKZmejK83bviUJYhDIFHbVz9bZ1ZVCvlGzQiEyod+FYoEwqqofKsLdGAVE3ormLPeWnCMlQGMeyPVLWxXwIYVpypEZ8SBiYRVojm/9UnkW/Un8MPQZvrcis8UtcRAtvNWRiG5x0xZUY6rIK7gfTiNdEadZpUYJ0RHFMFeiACdKanhotwZQMsch4Q52FjU/7lJMHwQ83y7XXXgsQ3GqUse8vZinnigVQO1UbCSPb8k9FgqvkpPQs878lzQ7QrKgAqy845YBDX9Td2rY7xJ7HHi9m6gwE9LvhoUIEoZ11K6HKTiOthB/caqIcfG1h3jKC1LG2YyJ4HKSF7TJK1a88jPEykBSir/cwtYgfw0wfUdwaNSzrLQcIQAkCao7ta4Onz+m/7ndauCUth7AiUpDOq1T2TmwIxcav2SW8oOWdMosjC/ChhHPPoikHzn2Nt0AAm2GjWnxCWBc092PbDolRKUwtPyo9NVx88uF4jR0noRk5B3ilLcmL9hkuXntxQ5lawYj4Fmod6Wt6PZG/JwKjhEBq+VHqreHhlQeDW6nwI4Jir732Gh72kpNEIBEoCGS8fA6G8SNgUcwJYEdxEsLkx89lPpkILNsIpC2/bPf/eKW3HygOhJa3HZf5vseLYj6XCEwGAqnlJwPlbCMRSAQSgUEhkJGUg0I+200EEoFEYDIQSC0/GShnG4lAIpAIDAqB1PKDQj7bTQQSgURgMhD4bwveYKK3tcr6AAAAAElFTkSuQmCC;" vertex="1" parent="1">
          <mxGeometry x="260" y="500" width="503" height="371" as="geometry" />
        </mxCell>
        <mxCell id="nqBrUfsvDNbjU66Rz_OZ-8" value="&lt;b&gt;&lt;font style=&quot;font-size: 16px;&quot;&gt;linear approximation&lt;/font&gt;&lt;/b&gt;" style="text;html=1;strokeColor=none;fillColor=none;align=center;verticalAlign=middle;whiteSpace=wrap;rounded=0;" vertex="1" parent="1">
          <mxGeometry x="20" y="90" width="120" height="40" as="geometry" />
        </mxCell>
        <mxCell id="nqBrUfsvDNbjU66Rz_OZ-11" value="$$T_{min}&amp;lt;T_M&amp;lt;T_{max}$$" style="text;html=1;strokeColor=#314354;fillColor=#647687;align=center;verticalAlign=middle;whiteSpace=wrap;rounded=0;fontColor=#ffffff;" vertex="1" parent="1">
          <mxGeometry x="20" y="130" width="125" height="40" as="geometry" />
        </mxCell>
        <mxCell id="nqBrUfsvDNbjU66Rz_OZ-14" value="$$|\psi_0&amp;gt;=|1&amp;gt;$$" style="text;html=1;strokeColor=#314354;fillColor=#647687;align=center;verticalAlign=middle;whiteSpace=wrap;rounded=0;fontColor=#ffffff;" vertex="1" parent="1">
          <mxGeometry x="265.5" y="60" width="85" height="30" as="geometry" />
        </mxCell>
        <mxCell id="nqBrUfsvDNbjU66Rz_OZ-15" value="$$|\psi_0&amp;gt;=$$" style="text;html=1;strokeColor=#314354;fillColor=#647687;align=center;verticalAlign=middle;whiteSpace=wrap;rounded=0;fontColor=#ffffff;" vertex="1" parent="1">
          <mxGeometry x="531" y="60" width="60" height="30" as="geometry" />
        </mxCell>
        <mxCell id="nqBrUfsvDNbjU66Rz_OZ-16" value="$$T_c=T_1+T_2=1s$$" style="text;html=1;strokeColor=#314354;fillColor=#647687;align=center;verticalAlign=middle;whiteSpace=wrap;rounded=0;fontColor=#ffffff;" vertex="1" parent="1">
          <mxGeometry x="410" y="330" width="130" height="30" as="geometry" />
        </mxCell>
        <mxCell id="nqBrUfsvDNbjU66Rz_OZ-17" value="&lt;h1&gt;&lt;font style=&quot;font-size: 16px;&quot;&gt;density matrix&lt;/font&gt;&lt;/h1&gt;&lt;div&gt;initial state&lt;/div&gt;&lt;div&gt;type of QEC codes&lt;/div&gt;&lt;div&gt;layout of circuits&lt;/div&gt;" style="text;html=1;strokeColor=none;fillColor=none;spacing=5;spacingTop=-20;whiteSpace=wrap;overflow=hidden;rounded=0;align=center;" vertex="1" parent="1">
          <mxGeometry x="20" y="190" width="130" height="100" as="geometry" />
        </mxCell>
        <mxCell id="nqBrUfsvDNbjU66Rz_OZ-18" value="$$T_{QEC}=0.02 T_c$$" style="text;html=1;strokeColor=#314354;fillColor=#647687;align=center;verticalAlign=middle;whiteSpace=wrap;rounded=0;fontColor=#ffffff;" vertex="1" parent="1">
          <mxGeometry x="265.5" y="370" width="100" height="30" as="geometry" />
        </mxCell>
        <mxCell id="nqBrUfsvDNbjU66Rz_OZ-19" value="$$T_{QEC}=0.018 T_c$$" style="text;html=1;strokeColor=#314354;fillColor=#647687;align=center;verticalAlign=middle;whiteSpace=wrap;rounded=0;fontColor=#ffffff;" vertex="1" parent="1">
          <mxGeometry x="573.5" y="370" width="110" height="30" as="geometry" />
        </mxCell>
        <mxCell id="nqBrUfsvDNbjU66Rz_OZ-20" value="&lt;font style=&quot;font-size: 16px;&quot;&gt;5-qubit QEC code&lt;/font&gt;" style="text;html=1;strokeColor=none;fillColor=none;align=center;verticalAlign=middle;whiteSpace=wrap;rounded=0;" vertex="1" parent="1">
          <mxGeometry x="360" y="30" width="160" height="20" as="geometry" />
        </mxCell>
        <mxCell id="nqBrUfsvDNbjU66Rz_OZ-21" value="&lt;div&gt;only \(T_1\)&lt;br&gt;&lt;/div&gt;" style="text;html=1;strokeColor=#314354;fillColor=#647687;align=center;verticalAlign=middle;whiteSpace=wrap;rounded=0;fontColor=#ffffff;" vertex="1" parent="1">
          <mxGeometry x="180" y="50" width="30" height="40" as="geometry" />
        </mxCell>
        <mxCell id="nqBrUfsvDNbjU66Rz_OZ-23" value="$$T_1 \&amp;amp; T_2$$" style="text;html=1;strokeColor=#314354;fillColor=#647687;align=center;verticalAlign=middle;whiteSpace=wrap;rounded=0;fontColor=#ffffff;" vertex="1" parent="1">
          <mxGeometry x="697" y="60" width="60" height="30" as="geometry" />
        </mxCell>
        <mxCell id="nqBrUfsvDNbjU66Rz_OZ-24" value="IBM QX" style="text;html=1;strokeColor=none;fillColor=none;align=center;verticalAlign=middle;whiteSpace=wrap;rounded=0;fontSize=16;" vertex="1" parent="1">
          <mxGeometry x="95" y="530" width="80" height="30" as="geometry" />
        </mxCell>
        <mxCell id="nqBrUfsvDNbjU66Rz_OZ-25" value="5 superconducting qubit system" style="text;html=1;strokeColor=none;fillColor=none;align=center;verticalAlign=middle;whiteSpace=wrap;rounded=0;" vertex="1" parent="1">
          <mxGeometry x="45" y="560" width="180" height="30" as="geometry" />
        </mxCell>
        <mxCell id="nqBrUfsvDNbjU66Rz_OZ-26" value="$$T_1=54\mu s$$" style="text;html=1;strokeColor=#314354;fillColor=#647687;align=center;verticalAlign=middle;whiteSpace=wrap;rounded=0;fontColor=#ffffff;" vertex="1" parent="1">
          <mxGeometry x="40" y="590" width="80" height="30" as="geometry" />
        </mxCell>
        <mxCell id="nqBrUfsvDNbjU66Rz_OZ-27" value="&lt;div&gt;$$T_2=44\mu s$$&lt;/div&gt;" style="text;html=1;strokeColor=#314354;fillColor=#647687;align=center;verticalAlign=middle;whiteSpace=wrap;rounded=0;fontColor=#ffffff;" vertex="1" parent="1">
          <mxGeometry x="150" y="590" width="80" height="30" as="geometry" />
        </mxCell>
        <mxCell id="nqBrUfsvDNbjU66Rz_OZ-28" value="time between gates = 10 ns" style="text;html=1;strokeColor=none;fillColor=none;align=center;verticalAlign=middle;whiteSpace=wrap;rounded=0;" vertex="1" parent="1">
          <mxGeometry x="60" y="620" width="160" height="30" as="geometry" />
        </mxCell>
        <mxCell id="nqBrUfsvDNbjU66Rz_OZ-36" value="" style="edgeStyle=orthogonalEdgeStyle;rounded=0;orthogonalLoop=1;jettySize=auto;html=1;" edge="1" parent="1" source="nqBrUfsvDNbjU66Rz_OZ-29" target="nqBrUfsvDNbjU66Rz_OZ-31">
          <mxGeometry relative="1" as="geometry" />
        </mxCell>
        <mxCell id="nqBrUfsvDNbjU66Rz_OZ-29" value="1-qubit gate" style="text;html=1;strokeColor=none;fillColor=none;align=center;verticalAlign=middle;whiteSpace=wrap;rounded=0;" vertex="1" parent="1">
          <mxGeometry x="66.25" y="660.5" width="60" height="30" as="geometry" />
        </mxCell>
        <mxCell id="nqBrUfsvDNbjU66Rz_OZ-33" value="" style="edgeStyle=orthogonalEdgeStyle;rounded=0;orthogonalLoop=1;jettySize=auto;html=1;" edge="1" parent="1" source="nqBrUfsvDNbjU66Rz_OZ-30" target="nqBrUfsvDNbjU66Rz_OZ-32">
          <mxGeometry relative="1" as="geometry" />
        </mxCell>
        <mxCell id="nqBrUfsvDNbjU66Rz_OZ-30" value="2-qubit gate" style="text;html=1;strokeColor=none;fillColor=none;align=center;verticalAlign=middle;whiteSpace=wrap;rounded=0;" vertex="1" parent="1">
          <mxGeometry x="68.75" y="700.5" width="60" height="30" as="geometry" />
        </mxCell>
        <mxCell id="nqBrUfsvDNbjU66Rz_OZ-31" value="p = 99.9%" style="text;html=1;strokeColor=none;fillColor=none;align=center;verticalAlign=middle;whiteSpace=wrap;rounded=0;" vertex="1" parent="1">
          <mxGeometry x="153.75" y="660.5" width="76.25" height="30" as="geometry" />
        </mxCell>
        <mxCell id="nqBrUfsvDNbjU66Rz_OZ-32" value="p = 99%" style="text;html=1;strokeColor=none;fillColor=none;align=center;verticalAlign=middle;whiteSpace=wrap;rounded=0;" vertex="1" parent="1">
          <mxGeometry x="153.75" y="700.5" width="60" height="30" as="geometry" />
        </mxCell>
        <mxCell id="nqBrUfsvDNbjU66Rz_OZ-37" value="$$T_{QEC}^H=50\,ns$$" style="text;html=1;strokeColor=#314354;fillColor=#647687;align=center;verticalAlign=middle;whiteSpace=wrap;rounded=0;fontColor=#ffffff;" vertex="1" parent="1">
          <mxGeometry x="80" y="740" width="110" height="30" as="geometry" />
        </mxCell>
        <mxCell id="nqBrUfsvDNbjU66Rz_OZ-38" value="$$T_{QEC}^{CNOT}=122\,ns$$" style="text;html=1;strokeColor=#314354;fillColor=#647687;align=center;verticalAlign=middle;whiteSpace=wrap;rounded=0;fontColor=#ffffff;" vertex="1" parent="1">
          <mxGeometry x="75" y="780" width="120" height="30" as="geometry" />
        </mxCell>
        <mxCell id="nqBrUfsvDNbjU66Rz_OZ-39" value="8092 repetitions" style="text;html=1;strokeColor=none;fillColor=none;align=center;verticalAlign=middle;whiteSpace=wrap;rounded=0;" vertex="1" parent="1">
          <mxGeometry x="77.5" y="820" width="115" height="30" as="geometry" />
        </mxCell>
      </root>
    </mxGraphModel>
  </diagram>
</mxfile>
